<svg width="61" height="60" viewBox="0 0 61 60" fill="none" xmlns="http://www.w3.org/2000/svg">
<g id="Layer_1" clip-path="url(#clip0_184_8817)">
<path id="Vector" d="M30.9642 59.9968C47.5318 59.9968 60.9626 46.566 60.9626 29.9984C60.9626 13.4307 47.5318 0 30.9642 0C14.3966 0 0.96582 13.4307 0.96582 29.9984C0.96582 46.566 14.3966 59.9968 30.9642 59.9968Z" fill="#605D5C"/>
<path id="Vector_2" d="M30.964 53.1656C43.7589 53.1656 54.1312 42.7933 54.1312 29.9984C54.1312 17.2035 43.7589 6.83124 30.964 6.83124C18.1692 6.83124 7.79688 17.2035 7.79688 29.9984C7.79688 42.7933 18.1692 53.1656 30.964 53.1656Z" fill="white"/>
<path id="Vector_3" d="M53.149 30.0714C53.1875 17.8189 43.286 7.85508 31.0335 7.81659C18.781 7.7781 8.81717 17.6795 8.77868 29.932C8.74019 42.1846 18.6416 52.1484 30.8941 52.1869C43.1466 52.2254 53.1105 42.324 53.149 30.0714Z" fill="#E77817"/>
<path id="Vector_4" fill-rule="evenodd" clip-rule="evenodd" d="M53.2664 25.954C53.8301 29.0518 53.7421 32.2331 53.0082 35.2951C52.2742 38.357 50.9103 41.2324 49.0033 43.738C47.0964 46.2436 44.6884 48.3244 41.9327 49.8477C39.177 51.371 36.1341 52.3034 32.9981 52.5854C29.8621 52.8675 26.7017 52.4931 23.7184 51.486C20.7351 50.4789 17.9944 48.8612 15.671 46.7361C13.3475 44.611 11.4924 42.0252 10.2238 39.1433C8.95519 36.2615 8.30096 33.147 8.30283 29.9983C8.3032 28.6388 8.42466 27.2822 8.66578 25.9443L6.45568 25.5586L2.34334 24.8457C1.59519 29.0312 1.77403 33.3299 2.86726 37.4387C3.96049 41.5476 5.9415 45.3668 8.67071 48.6271C11.3999 51.8874 14.8109 54.5095 18.6633 56.3087C22.5157 58.1078 26.7159 59.0403 30.9677 59.0403C35.2195 59.0403 39.4196 58.1078 43.2721 56.3087C47.1245 54.5095 50.5355 51.8874 53.2647 48.6271C55.9939 45.3668 57.9749 41.5476 59.0681 37.4387C60.1614 33.3299 60.3402 29.0312 59.5921 24.8457L53.2664 25.954Z" fill="white"/>
<path id="Vector_5" fill-rule="evenodd" clip-rule="evenodd" d="M30.9639 7.33684H30.9866C36.0035 7.33798 40.8781 9.00484 44.8453 12.0758C48.8125 15.1468 51.6477 19.4481 52.9061 24.3047C53.0465 24.8491 53.1664 25.4 53.2658 25.9574L59.5915 24.8588C59.5591 24.6774 59.5234 24.4927 59.4878 24.3112C58.17 17.7221 54.6116 11.7924 49.4171 7.5297C44.2226 3.26701 37.7125 0.934238 30.9929 0.927748C24.2733 0.921257 17.7587 3.24145 12.556 7.4941C7.35332 11.7467 3.78344 17.6695 2.45295 24.2561C2.41407 24.4505 2.37842 24.645 2.34277 24.8394L8.66522 25.9445C8.76891 25.3773 8.8953 24.8167 9.03789 24.2626C10.3099 19.4158 13.151 15.1266 17.1176 12.0646C21.0842 9.00264 25.953 7.3402 30.9639 7.33684Z" fill="#FF0000"/>
<path id="Vector_6" fill-rule="evenodd" clip-rule="evenodd" d="M30.9637 12.8203L38.1805 25.3194L45.3974 37.8184H30.9637H16.5332L23.7501 25.3194L30.9637 12.8203Z" fill="#005FA3"/>
<path id="Vector_7" fill-rule="evenodd" clip-rule="evenodd" d="M23.0898 40.1093H24.3861C24.5768 40.1045 24.7675 40.1154 24.9564 40.1417C25.0784 40.1594 25.1947 40.2049 25.2964 40.2745C25.398 40.3442 25.4824 40.4362 25.543 40.5435C25.6112 40.6569 25.646 40.7872 25.6435 40.9194C25.6445 41.0669 25.6016 41.2113 25.5203 41.3342C25.4419 41.4584 25.3294 41.5574 25.1962 41.6194C25.3755 41.6658 25.5347 41.7693 25.6499 41.9143C25.7545 42.0545 25.8093 42.2256 25.8055 42.4004C25.8056 42.5499 25.7712 42.6974 25.705 42.8314C25.6399 42.9615 25.5429 43.073 25.4231 43.1555C25.2923 43.2421 25.1419 43.2944 24.9856 43.3078C24.8787 43.3078 24.6162 43.3272 24.1981 43.3305H23.0898V40.0898V40.1093ZM23.738 40.6472V41.3893H24.1657C24.4185 41.3893 24.5773 41.3893 24.6389 41.3893C24.7372 41.3819 24.8299 41.3406 24.9013 41.2727C24.9338 41.2401 24.959 41.201 24.9752 41.158C24.9914 41.115 24.9983 41.069 24.9953 41.0231C25 40.9348 24.9711 40.848 24.9143 40.7801C24.8492 40.713 24.7614 40.6725 24.668 40.6667C24.6032 40.6667 24.4185 40.6667 24.1106 40.6667L23.738 40.6472ZM23.738 41.9273V42.7958H24.3407C24.4912 42.7999 24.6418 42.7923 24.7912 42.7731C24.8823 42.7598 24.966 42.7151 25.0277 42.6467C25.0896 42.5685 25.1218 42.4709 25.1185 42.3712C25.1222 42.2825 25.0972 42.195 25.0472 42.1217C24.998 42.051 24.9259 41.9994 24.843 41.9759C24.6539 41.9331 24.4598 41.9168 24.2662 41.9273H23.738ZM27.7369 43.3402V40.0996H28.385L29.7169 42.2643V40.0996H30.3197V43.3402H29.6715L28.3753 41.2176V43.3402H27.7369ZM32.3904 43.3402V40.0996H33.4371C33.6963 40.0891 33.9558 40.1054 34.2116 40.1482C34.3991 40.1991 34.5629 40.3137 34.675 40.4722C34.8106 40.6601 34.877 40.8891 34.863 41.1204C34.8684 41.2929 34.8317 41.4642 34.7561 41.6194C34.694 41.7495 34.599 41.8612 34.4806 41.9435C34.3837 42.0159 34.2737 42.0687 34.1565 42.099C33.9336 42.1337 33.7081 42.1489 33.4825 42.1444H33.0483V43.3629L32.3904 43.3402ZM33.0385 40.6537V41.5773H33.395C33.5673 41.5863 33.74 41.5688 33.907 41.5254C33.9895 41.4943 34.0607 41.4389 34.1112 41.3666C34.1605 41.2916 34.1864 41.2037 34.1857 41.1139C34.1897 41.007 34.1526 40.9026 34.082 40.8222C34.0141 40.7446 33.9213 40.693 33.8195 40.6764C33.6647 40.6579 33.5088 40.6504 33.3529 40.6537H33.0385ZM36.7879 40.1093H38.0842C38.2759 40.1046 38.4677 40.1155 38.6578 40.1417C38.7742 40.1618 38.8848 40.2072 38.9818 40.2746C39.083 40.3447 39.1672 40.4366 39.2281 40.5435C39.2963 40.6569 39.3311 40.7872 39.3286 40.9194C39.3313 41.0671 39.2883 41.212 39.2054 41.3342C39.127 41.4584 39.0145 41.5574 38.8814 41.6194C39.0606 41.6658 39.2199 41.7693 39.3351 41.9143C39.442 42.0534 39.498 42.225 39.4938 42.4004C39.4929 42.5501 39.4574 42.6976 39.3901 42.8314C39.3252 42.9607 39.2295 43.0719 39.1114 43.1555C38.98 43.2407 38.8299 43.293 38.674 43.3078C38.5638 43.3078 38.3013 43.3272 37.8865 43.3305H36.7847V40.0898L36.7879 40.1093ZM37.4361 40.6472V41.3893H37.8638C38.1166 41.3893 38.2754 41.3893 38.3369 41.3893C38.4354 41.3824 38.5283 41.3411 38.5994 41.2727C38.6325 41.2404 38.6583 41.2015 38.675 41.1584C38.6918 41.1154 38.6992 41.0693 38.6967 41.0231C38.7001 40.9344 38.67 40.8476 38.6124 40.7801C38.5473 40.713 38.4595 40.6725 38.3661 40.6667C38.3045 40.6667 38.1166 40.6667 37.812 40.6667L37.4361 40.6472ZM37.4361 41.9273V42.7958H38.042C38.1915 42.7998 38.341 42.7923 38.4893 42.7731C38.5804 42.7598 38.6641 42.7151 38.7258 42.6467C38.789 42.5692 38.8213 42.4711 38.8166 42.3712C38.8203 42.2825 38.7953 42.195 38.7453 42.1217C38.6967 42.0517 38.6259 42.0003 38.5443 41.9759C38.3541 41.9332 38.1589 41.9168 37.9643 41.9273H37.4361Z" fill="black"/>
<path id="Vector_8" fill-rule="evenodd" clip-rule="evenodd" d="M4.44922 22.0617L4.958 20.691C5.02854 20.4851 5.1141 20.2847 5.214 20.0914C5.28402 19.9711 5.37906 19.8672 5.4927 19.7868C5.60908 19.7066 5.74195 19.6534 5.88157 19.6313C6.03202 19.6063 6.18642 19.6219 6.32878 19.6766C6.48796 19.7349 6.62732 19.8372 6.73061 19.9715C6.83478 20.1061 6.8968 20.2685 6.90885 20.4382C7.03303 20.2728 7.20671 20.1514 7.40466 20.0914C7.59862 20.0339 7.80629 20.043 7.99445 20.1174C8.15594 20.1771 8.30129 20.2736 8.41897 20.3993C8.5402 20.5178 8.62748 20.6667 8.67174 20.8303C8.71706 21.0024 8.71706 21.1832 8.67174 21.3553C8.63934 21.4752 8.54536 21.7571 8.38657 22.1978L7.95556 23.3677L4.45246 22.0715L4.44922 22.0617ZM5.28854 21.5821L6.09545 21.8803L6.26396 21.4266C6.36118 21.1576 6.41951 20.9891 6.43572 20.921C6.46581 20.8136 6.45779 20.6991 6.41303 20.597C6.39019 20.5492 6.35765 20.5066 6.31749 20.472C6.27732 20.4374 6.2304 20.4116 6.17971 20.3961C6.13259 20.3748 6.08167 20.3632 6.02998 20.3619C5.97829 20.3607 5.92688 20.3699 5.87881 20.389C5.83074 20.408 5.78699 20.4365 5.75017 20.4728C5.71334 20.5091 5.68419 20.5524 5.66445 20.6002C5.63204 20.6683 5.55427 20.8627 5.43437 21.1868L5.28854 21.5854V21.5821ZM6.67876 22.0941L7.6153 22.4409L7.85187 21.7928C7.9169 21.6364 7.96892 21.4749 8.00741 21.3099C8.02785 21.2058 8.01062 21.0979 7.95881 21.0053C7.89949 20.9065 7.80615 20.8328 7.69632 20.7979C7.60266 20.7603 7.49972 20.7524 7.40142 20.7752C7.30608 20.8001 7.22172 20.8559 7.16161 20.934C7.04227 21.1181 6.94851 21.3176 6.88292 21.527L6.67876 22.0877V22.0941ZM11.5397 16.0245L11.1184 16.6985L10.2305 16.5268L9.45273 17.7712L10.0101 18.4711L9.59532 19.1193L7.18754 15.9435L7.60234 15.2953L11.5397 16.0374V16.0245ZM9.56939 16.3842L8.12732 16.0796L9.03793 17.23L9.56939 16.3842ZM9.81244 12.1714L10.736 11.1992C10.8903 11.0234 11.0681 10.8697 11.2642 10.7423C11.454 10.6322 11.6703 10.5762 11.8897 10.5802C12.1256 10.5841 12.3579 10.6394 12.5702 10.7423C12.8324 10.8797 13.0718 11.0568 13.2799 11.2673C13.4786 11.449 13.647 11.6612 13.779 11.8959C13.9125 12.1217 13.9903 12.3761 14.0058 12.638C14.0051 12.8396 13.9574 13.0382 13.8664 13.2181C13.7647 13.4131 13.6335 13.5912 13.4776 13.7463L12.5281 14.7542L9.81244 12.1941V12.1714ZM10.7846 12.0677L12.5832 13.7625L12.9558 13.3801C13.0611 13.2739 13.1545 13.1565 13.2345 13.0301C13.2918 12.9316 13.323 12.8201 13.3253 12.7061C13.3158 12.5675 13.2712 12.4337 13.1956 12.3172C13.0711 12.1237 12.9207 11.9481 12.7484 11.7955C12.5908 11.6361 12.4106 11.5007 12.2137 11.3936C12.088 11.3304 11.9494 11.2971 11.8087 11.2964C11.6779 11.3046 11.5521 11.3496 11.4457 11.426C11.2883 11.5516 11.1429 11.6915 11.0115 11.8441L10.7846 12.0839V12.0677ZM18.7241 9.41362L18.076 9.87054L17.3307 9.35205L16.1154 10.2076L16.352 11.0793L15.7039 11.5265L14.7317 7.63776L15.3798 7.19056L18.7176 9.42982L18.7241 9.41362ZM16.7798 8.97289L15.5483 8.14654L15.934 9.56269L16.7538 8.9891L16.7798 8.97289ZM20.1565 8.64883L20.7787 8.3669L19.7611 6.1568L22.1203 7.77711L22.7943 7.47249L21.2453 4.07308L20.6231 4.35178L21.6536 6.62021L19.2524 4.95777L18.6042 5.25267L20.1403 8.65531L20.1565 8.64883ZM27.4965 6.28642L27.1951 2.59212L27.908 2.54027L29.5964 4.91888L29.4084 2.42685L30.089 2.375L30.3741 6.09523L29.6353 6.1568L27.9728 3.82356L28.1576 6.27022L27.477 6.32207L27.4965 6.28642ZM35.6531 6.51327L34.8656 6.40309L34.668 5.5184L33.2194 5.31424L32.7981 6.11467L32.0236 6.00449L33.9291 2.52731L34.7004 2.63425L35.6337 6.52299L35.6531 6.51327ZM34.5189 4.86055L34.1948 3.42172L33.5143 4.71797L34.5059 4.85731L34.5189 4.86055ZM37.4354 5.65774L38.1387 5.81977C38.0958 6.02126 38.1221 6.2313 38.2132 6.41605C38.3188 6.57535 38.479 6.69059 38.6636 6.74011C38.8314 6.8228 39.0223 6.84567 39.2048 6.80492C39.2704 6.78228 39.3301 6.7452 39.3795 6.6964C39.4288 6.6476 39.4666 6.58834 39.49 6.52299C39.5207 6.44599 39.5207 6.36018 39.49 6.28318C39.4461 6.18828 39.3779 6.10667 39.2923 6.04662C39.221 5.98829 39.0525 5.87487 38.7868 5.70311C38.5202 5.55123 38.2928 5.3393 38.1225 5.08415C38.0508 4.96127 38.007 4.82416 37.9941 4.6825C37.9812 4.54083 37.9996 4.39807 38.0479 4.26428C38.1088 4.08347 38.2215 3.92457 38.372 3.80735C38.5294 3.68179 38.7219 3.60818 38.9229 3.59671C39.1686 3.58132 39.4148 3.61775 39.6455 3.70365C40.0047 3.79628 40.3166 4.01922 40.5205 4.32909C40.5961 4.46592 40.6422 4.61712 40.6556 4.77289C40.669 4.92865 40.6494 5.08549 40.5983 5.23322L39.8886 5.01934C39.9267 4.86542 39.9071 4.70286 39.8335 4.56242C39.7356 4.4295 39.5948 4.33448 39.4349 4.29344C39.2714 4.22627 39.0903 4.21488 38.9196 4.26104C38.8759 4.27363 38.8359 4.29675 38.8031 4.32839C38.7703 4.36002 38.7458 4.39921 38.7317 4.44251C38.7186 4.48395 38.7147 4.52776 38.7203 4.57086C38.7259 4.61397 38.7408 4.65532 38.7641 4.69204C38.9196 4.87921 39.11 5.03439 39.3247 5.14897C39.5606 5.29168 39.7782 5.46252 39.9729 5.65774C40.103 5.79365 40.1927 5.96308 40.2321 6.14708C40.2699 6.35112 40.252 6.56159 40.1802 6.75631C40.1109 6.95742 39.9862 7.13488 39.8205 7.26833C39.6507 7.40847 39.4408 7.49128 39.221 7.5049C38.9496 7.51538 38.6787 7.47244 38.4238 7.37851C38.0535 7.27992 37.732 7.04943 37.5197 6.73039C37.3509 6.40954 37.3104 6.03653 37.4063 5.68691L37.4354 5.65774ZM41.4733 8.53865L43.2135 5.23646L43.8616 5.57997L42.1214 8.88216L41.4733 8.53865ZM44.7139 8.21459C44.8919 7.94009 45.1233 7.70424 45.3944 7.5211C45.5706 7.41123 45.7647 7.33334 45.968 7.29101C46.1583 7.25226 46.3545 7.25226 46.5448 7.29101C46.8095 7.34786 47.0598 7.45813 47.2804 7.61508C47.4834 7.74204 47.6574 7.91043 47.7908 8.10923C47.9243 8.30803 48.0143 8.53276 48.0549 8.76874C48.1125 9.28733 47.9661 9.80798 47.6466 10.2205C47.3765 10.6628 46.9456 10.9833 46.4444 11.1149C45.9699 11.1861 45.4861 11.0745 45.0909 10.8025C44.6956 10.5306 44.4184 10.1187 44.3153 9.65018C44.2569 9.14007 44.3999 8.62731 44.7139 8.22107V8.21459ZM45.362 8.62615C45.1418 8.89507 45.0267 9.23475 45.0379 9.58213C45.0545 9.71879 45.1 9.85037 45.1712 9.96815C45.2425 10.0859 45.338 10.1872 45.4513 10.2654C45.5647 10.3435 45.6933 10.3966 45.8288 10.4213C45.9642 10.446 46.1033 10.4416 46.237 10.4085C46.5687 10.2954 46.8477 10.0649 47.0212 9.76036C47.2399 9.49442 47.355 9.15831 47.3452 8.8141C47.3246 8.67792 47.2761 8.54745 47.2028 8.4308C47.1296 8.31414 47.0331 8.2138 46.9195 8.13599C46.8058 8.05819 46.6774 8.0046 46.5421 7.97853C46.4069 7.95247 46.2677 7.95451 46.1333 7.98451C45.8032 8.0976 45.5263 8.32833 45.3555 8.63263L45.362 8.62615ZM47.8378 13.0528L48.3012 13.5584L50.1127 11.9057L49.2993 14.6537L49.7952 15.1981L52.5529 12.6834L52.0928 12.1779L50.2456 13.863L51.0784 11.0663L50.5956 10.5381L47.8378 13.0528ZM52.5821 19.6864L52.1932 18.9929L52.783 18.3026L52.0668 17.0064L51.1757 17.1554L50.7965 16.4717L54.7598 15.9143L55.1422 16.5948L52.5983 19.6929L52.5821 19.6864ZM53.214 17.7841L54.1862 16.6661L52.7409 16.9092L53.227 17.7841H53.214ZM53.2334 21.1803L56.7463 20.0137L56.9796 20.7136L54.063 21.6858L54.6399 23.426L54.0436 23.6237L53.2334 21.1803Z" fill="white"/>
<path id="Vector_9" fill-rule="evenodd" clip-rule="evenodd" d="M3.20898 28.5785L7.34077 28.4943L7.36994 29.8456C7.39015 30.181 7.37603 30.5176 7.32781 30.8502C7.27072 31.0922 7.13231 31.3072 6.93569 31.4594C6.70669 31.6354 6.42396 31.727 6.13526 31.7187C5.91235 31.7321 5.6896 31.6898 5.48714 31.5955C5.32349 31.5142 5.18137 31.3954 5.07234 31.2488C4.9758 31.1192 4.90636 30.9715 4.86818 30.8145C4.81434 30.5271 4.7883 30.2352 4.79041 29.9428V29.3919L3.23491 29.4276V28.5785H3.20898ZM6.66024 29.353L5.4839 29.379V29.8391C5.47721 30.0578 5.50343 30.2763 5.56167 30.4872C5.60373 30.5932 5.67725 30.6836 5.77231 30.7465C5.86851 30.8089 5.98186 30.8395 6.09637 30.834C6.2343 30.8421 6.37006 30.7969 6.47553 30.7076C6.57186 30.6177 6.63472 30.4977 6.65376 30.3673C6.67409 30.166 6.6795 29.9635 6.66996 29.7613V29.353H6.66024ZM3.34185 32.5936L7.44771 32.046L7.84955 35.1181L7.15605 35.2088L6.8644 32.9793L5.95379 33.0959L6.226 35.1699L5.53251 35.2607L5.26029 33.1867L4.14876 33.3325L4.45338 35.6463L3.75989 35.737L3.34833 32.5839L3.34185 32.5936ZM3.98997 36.5472L4.20709 37.299L6.81903 36.5472L4.67698 38.929L4.91031 39.7424L8.8833 38.5953L8.66618 37.8434L6.00564 38.6115L8.18981 36.1907L7.96297 35.4033L3.98997 36.5375V36.5472ZM7.01023 44.0363L6.58895 43.2261L7.25651 42.4516L6.47553 40.9739L5.48066 41.1003L5.06586 40.3063L9.48282 39.8364L9.89437 40.6304L7.00375 44.0265L7.01023 44.0363ZM7.74909 41.9072L8.83793 40.6855L7.21763 40.8896L7.74585 41.9072H7.74909ZM7.28244 44.5321L7.73288 45.1802L9.95271 43.6117L8.71155 46.5639L9.20088 47.2542L12.5776 44.8691L12.1239 44.221L9.85549 45.8186L11.1258 42.8145L10.6592 42.1275L7.28244 44.5126V44.5321ZM12.2859 48.3819L12.7915 47.8991L14.0424 49.218L12.8466 50.3522C12.5481 50.3265 12.2575 50.2429 11.9911 50.1059C11.6759 49.9565 11.3904 49.7512 11.1485 49.4999C10.8675 49.2172 10.6644 48.8667 10.5587 48.4824C10.4682 48.1279 10.4909 47.754 10.6235 47.413C10.7575 47.0562 10.9727 46.7355 11.2522 46.4764C11.5374 46.1947 11.8899 45.9906 12.2762 45.8834C12.643 45.786 13.0308 45.803 13.3878 45.932C13.7095 46.0578 13.9971 46.2576 14.2271 46.5153C14.5429 46.8149 14.7542 47.2079 14.8298 47.6366C14.8734 47.9998 14.7798 48.3661 14.5673 48.6639L13.8739 48.1583C13.979 47.9879 14.0224 47.7866 13.997 47.588C13.9626 47.3737 13.8604 47.176 13.7053 47.0241C13.5991 46.9011 13.4679 46.8021 13.3203 46.7339C13.1728 46.6658 13.0124 46.6299 12.8498 46.6287C12.4767 46.6547 12.1283 46.8243 11.8776 47.1019C11.5693 47.352 11.3649 47.7077 11.304 48.1C11.29 48.2622 11.3117 48.4255 11.3677 48.5784C11.4237 48.7312 11.5126 48.8699 11.6281 48.9847C11.755 49.1176 11.9041 49.2273 12.0688 49.3087C12.2259 49.3845 12.3928 49.438 12.5646 49.4675L12.9568 49.0787L12.3086 48.3819H12.2859ZM15.5849 51.2239L16.3724 51.7813L16.0677 52.2091C15.8928 52.2146 15.718 52.1938 15.5493 52.1475C15.3732 52.1024 15.2065 52.0267 15.0567 51.9239C14.9235 51.8332 14.8116 51.7147 14.7288 51.5765C14.646 51.4383 14.5942 51.2837 14.5771 51.1235C14.5623 50.725 14.695 50.335 14.9497 50.0282C15.1444 49.7106 15.4526 49.4789 15.8117 49.38C15.972 49.3508 16.1366 49.3559 16.2946 49.395C16.4527 49.4341 16.6007 49.5063 16.7288 49.6069C16.9088 49.725 17.0462 49.8976 17.1209 50.0995C17.1874 50.2893 17.1874 50.4961 17.1209 50.686L17.8955 51.0457C18.0465 50.7133 18.0673 50.3363 17.9538 49.9893C17.797 49.5875 17.5153 49.2466 17.1501 49.0171C16.8705 48.8055 16.5434 48.6653 16.1974 48.6088C15.8229 48.5483 15.4389 48.6061 15.0988 48.774C14.7412 48.9543 14.4347 49.2218 14.2076 49.5518C13.9852 49.8623 13.8357 50.219 13.7702 50.5953C13.7112 50.9564 13.7667 51.3269 13.9289 51.6549C14.1058 52.0122 14.3727 52.3171 14.7035 52.5396C14.9887 52.7399 15.3084 52.886 15.6465 52.9706C15.9344 53.055 16.2362 53.0815 16.5344 53.0484L17.4871 51.7036L16.0062 50.6536L15.6011 51.2239H15.5849ZM18.8579 50.2971L19.6097 50.686L18.5825 52.6757C18.4711 52.8784 18.3736 53.0885 18.2908 53.3044C18.2446 53.4637 18.2585 53.6343 18.3297 53.784C18.4231 53.9576 18.5712 54.0954 18.751 54.1761C18.9147 54.2737 19.106 54.3147 19.2954 54.2928C19.4369 54.2669 19.5639 54.1895 19.6519 54.0757C19.7853 53.8826 19.9044 53.6801 20.0083 53.4697L21.0583 51.4346L21.8101 51.8235L20.812 53.7678C20.6605 54.0862 20.4781 54.3891 20.2676 54.672C20.145 54.8249 19.9855 54.9443 19.8042 55.0187C19.616 55.0889 19.4141 55.1144 19.2144 55.0932C18.9446 55.0568 18.6841 54.97 18.4464 54.8372C18.1661 54.7083 17.914 54.5255 17.7043 54.2993C17.5723 54.1432 17.48 53.9576 17.4353 53.7581C17.3947 53.5888 17.3947 53.4122 17.4353 53.2428C17.5367 52.9053 17.6736 52.5794 17.8436 52.2707L18.8579 50.3263V50.2971ZM20.8801 55.858L23.667 56.8108L23.8938 56.1626L21.9073 55.4854L23.0027 52.2512L22.2022 51.979L20.8768 55.8677L20.8801 55.858ZM28.071 57.6404L27.1733 57.4848L26.9789 56.4932L25.3262 56.208L24.8239 57.0733L23.9392 56.9209L26.2433 53.1262L27.1247 53.2817L28.0645 57.6404H28.071ZM26.8298 55.7608L26.5058 54.1405L25.6859 55.5502L26.8169 55.7478L26.8298 55.7608ZM28.6381 57.6825L28.7256 53.5475L29.5455 53.5669L31.2079 56.3862L31.2662 53.6155H32.0505L31.963 57.7473H31.1172L29.4839 54.9798L29.4223 57.6825H28.6381ZM34.7013 55.9455L34.6106 55.252L36.4123 55.0155L36.6262 56.652C36.43 56.8781 36.191 57.0631 35.923 57.1964C35.6223 57.3647 35.2924 57.4747 34.9508 57.5205C34.5582 57.5834 34.1558 57.5421 33.7842 57.4006C33.4377 57.2648 33.1429 57.0233 32.9416 56.7103C32.735 56.3894 32.6032 56.0261 32.556 55.6474C32.497 55.2514 32.5382 54.847 32.6759 54.471C32.8122 54.1161 33.0557 53.8125 33.3726 53.6026C33.6661 53.4184 33.9995 53.3073 34.3448 53.2785C34.7674 53.1996 35.2041 53.2563 35.5925 53.4405C35.9111 53.6192 36.1515 53.9104 36.2665 54.2572L35.4531 54.5197C35.3763 54.3341 35.2378 54.1807 35.061 54.0854C34.868 53.9878 34.6487 53.9548 34.4356 53.9914C34.273 54.0036 34.115 54.0507 33.9724 54.1295C33.8298 54.2084 33.7059 54.3172 33.6092 54.4484C33.4132 54.7657 33.346 55.146 33.4212 55.5113C33.4426 55.9092 33.6099 56.2853 33.8911 56.5677C34.015 56.6731 34.1603 56.7504 34.317 56.794C34.4737 56.8377 34.638 56.8467 34.7985 56.8205C34.9781 56.7943 35.1515 56.7362 35.3105 56.6487C35.4663 56.5623 35.6083 56.453 35.7318 56.3247L35.6638 55.8029L34.6916 55.9293L34.7013 55.9455ZM41.1825 55.9228L40.3076 56.1756L39.7016 55.3687L38.0813 55.8321L38.0067 56.8335L37.1447 57.0797L37.566 52.6563L38.428 52.41L41.176 55.9228H41.1825ZM39.2382 54.7724L38.266 53.4762L38.1461 55.0965L39.2479 54.7724H39.2382ZM41.6978 55.6765L42.3945 55.3136L41.1501 52.8993L43.9111 54.5197L44.6597 54.1308L42.751 50.4624L42.0575 50.8253L43.3537 53.2817L40.5474 51.6193L39.8182 51.9985L41.7269 55.6668L41.6978 55.6765ZM44.3421 49.4837L45.6611 48.4565C45.8538 48.3006 46.0574 48.1588 46.2703 48.0319C46.4096 47.957 46.563 47.9117 46.7207 47.8991C46.8788 47.8889 47.0372 47.9143 47.1841 47.9736C47.3421 48.0357 47.48 48.1399 47.5827 48.275C47.6999 48.4242 47.7709 48.6044 47.7869 48.7935C47.8026 48.9835 47.762 49.174 47.6702 49.3411C47.8888 49.2467 48.132 49.2251 48.3637 49.2796C48.5822 49.3349 48.7746 49.4643 48.9082 49.6458C49.0256 49.7966 49.1055 49.9732 49.1415 50.161C49.1818 50.347 49.1729 50.5402 49.1156 50.7216C49.0515 50.9137 48.9401 51.0865 48.7915 51.2239C48.6878 51.3212 48.4253 51.548 48.004 51.8721L46.8795 52.747L44.3421 49.4837ZM45.431 49.5064L46.0175 50.2582L46.4518 49.918C46.711 49.7171 46.8698 49.5874 46.9281 49.5291C47.0229 49.4447 47.0858 49.3303 47.1064 49.205C47.1124 49.147 47.1066 49.0884 47.0894 49.0327C47.0721 48.977 47.0437 48.9254 47.0059 48.881C46.9402 48.7886 46.8417 48.7248 46.7305 48.7027C46.6109 48.6863 46.4895 48.7152 46.3902 48.7838C46.3189 48.8259 46.1277 48.9717 45.8134 49.2148L45.431 49.5129V49.5064ZM46.4388 50.8027L47.1193 51.6776L47.7383 51.198C47.8934 51.0827 48.0407 50.9571 48.179 50.8221C48.2617 50.7335 48.3109 50.619 48.3184 50.498C48.3238 50.3699 48.2797 50.2446 48.1952 50.1481C48.1319 50.0556 48.0391 49.9873 47.932 49.9544C47.8249 49.9214 47.7098 49.9257 47.6054 49.9666C47.379 50.0775 47.1678 50.2169 46.9767 50.3814L46.4388 50.7994V50.8027ZM50.2174 49.9925L52.4048 47.6884L51.8992 47.2056L50.2789 48.8972L49.4688 48.1259L50.9076 46.6093L50.4021 46.1265L48.9859 47.6366L48.3184 47.0047L49.8674 45.3844L49.3618 44.9015L47.2295 47.1473L50.2271 49.9958L50.2174 49.9925ZM52.8974 47.0111L49.5271 44.6196L50.0002 43.952L53.2409 44.1497L50.9724 42.5456L51.4261 41.8974L54.7996 44.2923L54.307 44.9825L51.1118 44.7913L53.3284 46.363L52.8747 47.0111H52.8974ZM55.0491 40.3549C55.2632 40.4977 55.4257 40.7057 55.5125 40.948C55.5742 41.152 55.5568 41.3718 55.4639 41.5637C55.4091 41.6932 55.3259 41.8088 55.2205 41.9019C55.115 41.995 54.99 42.0633 54.8547 42.1016C54.4644 42.1665 54.0636 42.0944 53.7205 41.8974C53.3607 41.7721 53.0581 41.5213 52.8682 41.191C52.8067 41.0625 52.7747 40.9219 52.7747 40.7794C52.7747 40.637 52.8067 40.4964 52.8682 40.3679C52.9468 40.1769 53.0902 40.0197 53.2733 39.9239C53.4554 39.8316 53.6642 39.8063 53.8631 39.8526L54.0316 39.0101C53.7397 38.9545 53.4381 38.9803 53.1598 39.0846C52.7382 39.2672 52.4053 39.6082 52.233 40.0341C52.1141 40.2691 52.0465 40.5268 52.0347 40.7899C52.023 41.0531 52.0674 41.3157 52.165 41.5604C52.4127 42.0915 52.8563 42.5061 53.4029 42.7173C53.9027 42.9772 54.4844 43.0307 55.0232 42.8664C55.2643 42.7827 55.485 42.6491 55.6709 42.4743C55.8569 42.2996 56.0039 42.0875 56.1023 41.8521C56.2829 41.4973 56.3389 41.0921 56.2611 40.7017C56.1566 40.3157 55.9291 39.9744 55.613 39.7295L55.0459 40.3776L55.0491 40.3549ZM58.1471 35.844L57.8944 36.7222L56.8898 36.8064L56.4231 38.4268L57.2333 39.023L56.9838 39.885L53.4645 37.1597L53.714 36.3009L58.1504 35.8375L58.1471 35.844ZM56.1412 36.8777L54.5209 37.0106L55.8333 37.9828L56.1574 36.8842L56.1412 36.8777ZM58.2379 35.2834L54.1385 34.7454L54.2454 33.932L57.2171 32.5872L54.4691 32.2275L54.5728 31.4497L58.6689 31.9876L58.5587 32.827L55.6422 34.1524L58.3351 34.5088L58.2346 35.2834H58.2379ZM58.6494 27.2207V28.1346L57.7161 28.5137L57.7518 30.1923L58.7013 30.5164L58.7207 31.4108L54.5663 29.8618L54.5468 28.9674L58.6494 27.2207ZM57.0291 28.8021L55.5093 29.4178L57.0518 29.9493L57.0291 28.8021Z" fill="#FF0000"/>
</g>
<defs>
<clipPath id="clip0_184_8817">
<rect width="60" height="60" fill="white" transform="translate(0.96582)"/>
</clipPath>
</defs>
</svg>
