<svg width="61" height="60" viewBox="0 0 61 60" fill="none" xmlns="http://www.w3.org/2000/svg">
<g id="Frame" clip-path="url(#clip0_184_8847)">
<g id="surface1">
<path id="Vector" d="M51.8589 50.8453H50.787C50.5839 50.8453 50.4894 50.5609 50.6519 50.4249L50.9636 50.1538C51.2214 49.9234 51.5605 49.8007 51.8862 49.8007H52.9573C53.1605 49.8007 53.2558 50.0726 53.0933 50.2218L52.7808 50.4929C52.523 50.7234 52.198 50.8453 51.8589 50.8453Z" fill="#DC0D15"/>
<path id="Vector_2" d="M53.269 49.3398L52.1979 49.4211C51.994 49.4352 51.8862 49.1633 52.0354 49.0148L52.3198 48.7297C52.5643 48.4852 52.8893 48.3367 53.2151 48.3227L54.2862 48.2414C54.4901 48.2281 54.5987 48.4992 54.4495 48.6484L54.1643 48.9328C53.9205 49.1633 53.608 49.3125 53.269 49.3398Z" fill="#DC0D15"/>
<path id="Vector_3" d="M54.5566 47.7256L53.4855 47.8748C53.2824 47.9021 53.1597 47.6443 53.2957 47.4818L53.5667 47.1701C53.7972 46.9123 54.1097 46.7357 54.4347 46.6951L55.4925 46.5459C55.6964 46.5186 55.8183 46.7764 55.6824 46.9389L55.4113 47.2514C55.1941 47.5225 54.8957 47.685 54.5566 47.7256Z" fill="#DC0D15"/>
<path id="Vector_4" d="M55.7374 46.0441L54.6796 46.2605C54.4757 46.3019 54.3265 46.0574 54.4624 45.8808L54.7062 45.5558C54.9101 45.2847 55.2085 45.0949 55.5335 45.0128L56.5781 44.7964C56.7812 44.7558 56.9304 44.9995 56.7953 45.1761L56.5507 45.5011C56.3609 45.7863 56.0624 45.9761 55.7374 46.0441Z" fill="#DC0D15"/>
<path id="Vector_5" d="M56.7955 44.2816L55.7642 44.58C55.5611 44.6339 55.3986 44.3902 55.5205 44.2136L55.751 43.8745C55.9408 43.5902 56.226 43.373 56.551 43.2777L57.5822 42.9792C57.7853 42.9253 57.9478 43.1691 57.826 43.3456L57.6088 43.6847C57.4057 43.9699 57.1205 44.1863 56.7955 44.2816Z" fill="#DC0D15"/>
<path id="Vector_6" d="M57.7315 42.4369L56.7276 42.8033C56.5378 42.8713 56.3479 42.64 56.4565 42.4642L56.6597 42.1111C56.8362 41.8127 57.094 41.5822 57.4058 41.4603L58.4097 41.0939C58.5995 41.0267 58.7894 41.2572 58.6808 41.433L58.4769 41.7861C58.3144 42.0978 58.0565 42.3283 57.7315 42.4369Z" fill="#DC0D15"/>
<path id="Vector_7" d="M58.5306 40.5387L57.5541 40.9723C57.3642 41.0535 57.1744 40.8371 57.2556 40.6465L57.4322 40.2808C57.5814 39.9683 57.8252 39.7246 58.1369 39.5754L59.1134 39.1418C59.3033 39.0598 59.4931 39.2769 59.4119 39.4668L59.2361 39.8332C59.0869 40.159 58.8423 40.4027 58.5306 40.5387Z" fill="#DC0D15"/>
<path id="Vector_8" d="M59.209 38.5985L58.2598 39.1001C58.0832 39.1954 57.866 38.9922 57.9473 38.8024L58.0965 38.4219C58.2191 38.0969 58.4496 37.8391 58.748 37.6766L59.6973 37.1743C59.8738 37.0797 60.0902 37.2829 60.009 37.4727L59.8598 37.8524C59.7379 38.1782 59.5074 38.436 59.209 38.5985Z" fill="#DC0D15"/>
<path id="Vector_9" d="M59.7387 36.6044L58.8301 37.174C58.6535 37.2826 58.4363 37.0927 58.491 36.8896L58.6129 36.4958C58.7215 36.1708 58.9246 35.8857 59.2098 35.7091L60.1184 35.1396C60.2949 35.0318 60.5113 35.2216 60.4574 35.4247L60.3356 35.8177C60.2402 36.1568 60.0231 36.4286 59.7387 36.6044Z" fill="#DC0D15"/>
<g id="Clip path group">
<mask id="mask0_184_8847" style="mask-type:luminance" maskUnits="userSpaceOnUse" x="58" y="33" width="3" height="3">
<g id="clip1">
<path id="Vector_10" d="M58.7656 33H60.9586V35.4H58.7656V33Z" fill="white"/>
</g>
</mask>
<g mask="url(#mask0_184_8847)">
<g id="Group">
<path id="Vector_11" d="M60.1313 34.5844L59.2633 35.2219C59.1008 35.3438 58.857 35.1672 58.911 34.9641L59.0063 34.5703C59.0875 34.2313 59.2774 33.9328 59.5485 33.743L60.4164 33.1055C60.5789 32.9836 60.8235 33.1602 60.7688 33.3633L60.6742 33.757C60.593 34.0961 60.4031 34.3805 60.1313 34.5844Z" fill="#DC0D15"/>
</g>
</g>
</g>
<g id="Clip path group_2">
<mask id="mask1_184_8847" style="mask-type:luminance" maskUnits="userSpaceOnUse" x="59" y="30" width="2" height="4">
<g id="clip2">
<path id="Vector_12" d="M59.166 30.7997H60.959V33.3997H59.166V30.7997Z" fill="white"/>
</g>
</mask>
<g mask="url(#mask1_184_8847)">
<g id="Group_2">
<path id="Vector_13" d="M60.3765 32.5355L59.5625 33.2277C59.4 33.3628 59.1554 33.2003 59.1828 32.9972L59.2507 32.5902C59.3046 32.2511 59.4812 31.9386 59.739 31.7222L60.5664 31.03C60.7289 30.8948 60.9734 31.0573 60.9328 31.2605L60.8648 31.6675C60.8101 32.0206 60.6343 32.3191 60.3765 32.5355Z" fill="#DC0D15"/>
</g>
</g>
</g>
<g id="Clip path group_3">
<mask id="mask2_184_8847" style="mask-type:luminance" maskUnits="userSpaceOnUse" x="59" y="28" width="2" height="4">
<g id="clip3">
<path id="Vector_14" d="M59.166 28.7997H60.959V31.3997H59.166V28.7997Z" fill="white"/>
</g>
</mask>
<g mask="url(#mask2_184_8847)">
<g id="Group_3">
<path id="Vector_15" d="M60.4843 30.4878L59.7109 31.2339C59.5617 31.3831 59.3039 31.2472 59.3179 31.03L59.3586 30.6237C59.3859 30.2706 59.5351 29.9589 59.7789 29.7284L60.5523 28.9823C60.7007 28.8331 60.9586 28.9823 60.9453 29.1855L60.9047 29.5925C60.8773 29.9316 60.7281 30.2433 60.4843 30.4878Z" fill="#DC0D15"/>
</g>
</g>
</g>
<g id="Clip path group_4">
<mask id="mask3_184_8847" style="mask-type:luminance" maskUnits="userSpaceOnUse" x="59" y="26" width="2" height="4">
<g id="clip4">
<path id="Vector_16" d="M59.166 26.7997H60.959V29.3997H59.166V26.7997Z" fill="white"/>
</g>
</mask>
<g mask="url(#mask3_184_8847)">
<g id="Group_4">
<path id="Vector_17" d="M60.4441 28.4259L59.7254 29.2259C59.5895 29.3751 59.3184 29.2673 59.3184 29.0501V28.6431C59.3316 28.2908 59.4535 27.965 59.684 27.7212L60.4035 26.9204C60.5387 26.7712 60.8098 26.8798 60.8098 27.097L60.7965 27.504C60.7965 27.8431 60.6746 28.1681 60.4441 28.4259Z" fill="#DC0D15"/>
</g>
</g>
</g>
<path id="Vector_18" d="M60.2678 26.3793L59.6029 27.22C59.481 27.3832 59.1967 27.2879 59.1967 27.0707L59.1693 26.6637C59.1553 26.3246 59.2506 25.9856 59.4678 25.7145L60.1318 24.8739C60.2545 24.7114 60.5389 24.8059 60.5389 25.0231L60.5529 25.4301C60.5795 25.7692 60.4709 26.1082 60.2678 26.3793Z" fill="#DC0D15"/>
<path id="Vector_19" d="M59.9417 24.3447L59.3448 25.24C59.2229 25.4158 58.9518 25.3345 58.9245 25.1173L58.8706 24.7111C58.8299 24.372 58.9112 24.0189 59.101 23.7478L59.6979 22.8525C59.8065 22.6767 60.0909 22.7579 60.1182 22.9751L60.1721 23.3814C60.2135 23.7204 60.1315 24.0595 59.9417 24.3447Z" fill="#DC0D15"/>
<path id="Vector_20" d="M59.4673 22.3375L58.9384 23.2593C58.8298 23.4359 58.5447 23.3812 58.5041 23.1648L58.4228 22.7578C58.3548 22.4187 58.4095 22.0656 58.5853 21.7812L59.1142 20.8586C59.2228 20.6828 59.508 20.7367 59.5486 20.9539L59.6298 21.3468C59.6978 21.7 59.6431 22.039 59.4673 22.3375Z" fill="#DC0D15"/>
<path id="Vector_21" d="M58.8703 20.357L58.3953 21.3203C58.3008 21.4961 58.0156 21.4695 57.9617 21.2656L57.8531 20.8726C57.7578 20.5336 57.7984 20.1945 57.9477 19.8828L58.4227 18.9195C58.518 18.7297 58.8023 18.7703 58.857 18.9734L58.9648 19.3672C59.0469 19.7062 59.0195 20.0586 58.8703 20.357Z" fill="#DC0D15"/>
<path id="Vector_22" d="M58.1242 18.445L57.7172 19.4356C57.6359 19.6254 57.3516 19.6114 57.2836 19.4083L57.1477 19.0286C57.0391 18.7028 57.0391 18.3504 57.175 18.0387L57.582 17.0481C57.6633 16.8583 57.9477 16.8723 58.0156 17.0754L58.1516 17.4551C58.2602 17.7809 58.2602 18.1333 58.1242 18.445Z" fill="#DC0D15"/>
<path id="Vector_23" d="M57.2563 16.5734L56.9172 17.5906C56.8492 17.7805 56.5649 17.7938 56.4836 17.5906L56.3203 17.2109C56.1852 16.8852 56.1711 16.5461 56.2664 16.2203L56.5914 15.2031C56.6594 15.0133 56.9446 15 57.0258 15.2031L57.1883 15.5828C57.3375 15.9086 57.3649 16.2477 57.2563 16.5734Z" fill="#DC0D15"/>
<path id="Vector_24" d="M56.2527 14.7699L55.9957 15.8144C55.941 16.0175 55.6566 16.0308 55.5613 15.841L55.3714 15.4753C55.2089 15.1628 55.1816 14.8238 55.2496 14.4847L55.5074 13.441C55.5613 13.2371 55.8464 13.2238 55.941 13.4136L56.1308 13.78C56.2941 14.105 56.3347 14.4441 56.2527 14.7699Z" fill="#DC0D15"/>
<path id="Vector_25" d="M55.1274 13.0469L54.9376 14.1047C54.8962 14.3086 54.6118 14.3492 54.5032 14.1726L54.3001 13.8203C54.1235 13.5219 54.0556 13.1828 54.1102 12.8437L54.3001 11.7859C54.3407 11.582 54.6251 11.5414 54.7337 11.718L54.9509 12.0703C55.1274 12.3687 55.1813 12.7219 55.1274 13.0469Z" fill="#DC0D15"/>
<path id="Vector_26" d="M53.8936 11.4067L53.785 12.4778C53.7717 12.6809 53.4732 12.7489 53.3506 12.5731L53.1201 12.234C52.917 11.9489 52.8357 11.6098 52.8623 11.2707L52.9709 10.1996C52.9982 9.99574 53.2834 9.92777 53.4053 10.1043L53.6357 10.4434C53.8389 10.7285 53.9209 11.0676 53.8936 11.4067Z" fill="#DC0D15"/>
<path id="Vector_27" d="M52.5367 9.84576L52.4961 10.9176C52.482 11.1208 52.2109 11.202 52.0758 11.0395L51.818 10.7278C51.6008 10.4559 51.4922 10.1309 51.4922 9.79185L51.5328 8.71998C51.5469 8.51685 51.818 8.4356 51.9531 8.5981L52.2109 8.90982C52.4281 9.1817 52.55 9.52076 52.5367 9.84576Z" fill="#DC0D15"/>
<path id="Vector_28" d="M51.0715 8.39555L51.1121 9.46664C51.1254 9.67055 50.841 9.77836 50.7051 9.61586L50.434 9.31743C50.2035 9.05961 50.0676 8.73461 50.0543 8.40883L50.0137 7.33774C50.0137 7.13383 50.2848 7.02524 50.434 7.18852L50.7051 7.48696C50.9223 7.74399 51.0582 8.05649 51.0715 8.39555Z" fill="#DC0D15"/>
<path id="Vector_29" d="M49.5257 7.05193L49.6343 8.12381C49.6617 8.32693 49.3898 8.44881 49.2406 8.29959L48.9422 8.01521C48.6851 7.78474 48.5359 7.45896 48.4953 7.13318L48.3867 6.06209C48.3593 5.85818 48.6304 5.73631 48.7797 5.88553L49.0781 6.17068C49.3226 6.40115 49.4851 6.71287 49.5257 7.05193Z" fill="#DC0D15"/>
<path id="Vector_30" d="M47.8715 5.80507L48.0613 6.86288C48.1019 7.066 47.8441 7.20194 47.6683 7.066L47.3558 6.80897C47.0847 6.59178 46.909 6.29335 46.8543 5.95428L46.6644 4.89647C46.6238 4.69335 46.8816 4.55741 47.0441 4.69335L47.3558 4.95038C47.641 5.18085 47.8176 5.47928 47.8715 5.80507Z" fill="#DC0D15"/>
<path id="Vector_31" d="M46.1483 4.69299L46.4061 5.73674C46.4608 5.94065 46.203 6.08987 46.0397 5.96721L45.7147 5.73674C45.4295 5.53362 45.2264 5.24846 45.1452 4.92346L44.8874 3.87893C44.8327 3.67581 45.0905 3.52659 45.2538 3.64846L45.5788 3.87893C45.8639 4.08206 46.067 4.36721 46.1483 4.69299Z" fill="#DC0D15"/>
<path id="Vector_32" d="M44.3444 3.68904L44.6702 4.70622C44.7382 4.89607 44.4937 5.07263 44.3179 4.96404L43.9648 4.74685C43.6671 4.57029 43.4499 4.29919 43.3413 3.97341L43.0155 2.95622C42.9476 2.76638 43.1921 2.5906 43.3687 2.69919L43.721 2.9156C44.0194 3.10544 44.2366 3.37732 44.3444 3.68904Z" fill="#DC0D15"/>
<path id="Vector_33" d="M42.4736 2.82071L42.8806 3.81056C42.9619 4.0004 42.7314 4.19024 42.5416 4.09571L42.1752 3.90587C41.8634 3.74259 41.633 3.48477 41.497 3.17306L41.09 2.18321C41.0088 1.99337 41.2392 1.80352 41.4291 1.89806L41.7955 2.0879C42.1072 2.25118 42.3517 2.50899 42.4736 2.82071Z" fill="#DC0D15"/>
<path id="Vector_34" d="M40.5481 2.08845L41.0223 3.05173C41.1176 3.24158 40.9004 3.4447 40.7106 3.36345L40.3309 3.20095C40.0051 3.06501 39.7613 2.82126 39.6121 2.52282L39.1371 1.55954C39.0426 1.3697 39.2598 1.16657 39.4496 1.24782L39.8293 1.41032C40.141 1.54626 40.3988 1.79079 40.5481 2.08845Z" fill="#DC0D15"/>
<path id="Vector_35" d="M38.5814 1.4922L39.1236 2.42736C39.2322 2.60392 39.0283 2.82111 38.8251 2.75314L38.4454 2.6172C38.1197 2.50939 37.8486 2.27814 37.672 1.99376L37.1298 1.07111C37.0212 0.895325 37.2251 0.678138 37.4283 0.746107L37.8079 0.881263C38.1337 0.976575 38.4048 1.19376 38.5814 1.4922Z" fill="#DC0D15"/>
<path id="Vector_36" d="M36.5737 1.03077L37.1706 1.92608C37.2925 2.10265 37.1026 2.33311 36.8995 2.27843L36.5065 2.17061C36.1675 2.0753 35.8823 1.87218 35.6925 1.6003L35.0956 0.70577C34.987 0.529207 35.1636 0.298739 35.3667 0.352645L35.7604 0.461239C36.0995 0.542489 36.3839 0.746395 36.5737 1.03077Z" fill="#DC0D15"/>
<path id="Vector_37" d="M34.5396 0.705802L35.2044 1.54643C35.3263 1.70893 35.1638 1.95346 34.9599 1.91283L34.5669 1.83158C34.2279 1.76361 33.9294 1.58705 33.7122 1.31596L33.0482 0.475333C32.9255 0.312052 33.0888 0.0683019 33.2919 0.108927L33.6857 0.190177C34.0247 0.258145 34.3232 0.447989 34.5396 0.705802Z" fill="#DC0D15"/>
<path id="Vector_38" d="M32.4777 0.528904L33.1964 1.3289C33.3316 1.47812 33.1824 1.73594 32.9793 1.70859L32.5722 1.65469C32.2199 1.61406 31.9214 1.45156 31.691 1.19375L30.9722 0.407029C30.8363 0.25781 30.9855 -1.99676e-06 31.1886 0.0273418L31.5957 0.081248C31.9488 0.121873 32.2605 0.285154 32.4777 0.528904Z" fill="#DC0D15"/>
<path id="Vector_39" d="M30.4161 0.501777L31.1887 1.24787C31.3379 1.38381 31.2028 1.6549 30.9989 1.64162L30.5926 1.61428C30.2395 1.60021 29.9278 1.45178 29.6832 1.22053L28.9106 0.475214C28.7614 0.339277 28.8832 0.0681831 29.1004 0.0814643L29.5075 0.108808C29.8598 0.122089 30.1715 0.258027 30.4161 0.501777Z" fill="#DC0D15"/>
<path id="Vector_40" d="M28.3684 0.610215L29.1957 1.3024C29.3582 1.43756 29.2496 1.70865 29.0324 1.70865H28.6254C28.273 1.72272 27.9473 1.60006 27.6902 1.38365L26.8629 0.691465C26.6996 0.556309 26.8082 0.285215 27.0254 0.285215H27.4324C27.7715 0.271153 28.1105 0.393028 28.3684 0.610215Z" fill="#DC0D15"/>
<path id="Vector_41" d="M26.3197 0.867539L27.1877 1.49176C27.351 1.61363 27.269 1.88473 27.0526 1.91207L26.6455 1.9527C26.3065 1.98004 25.9674 1.88473 25.6822 1.69488L24.8143 1.05738C24.6518 0.935508 24.733 0.650352 24.9502 0.63707L25.3572 0.609727C25.7096 0.569102 26.0487 0.664414 26.3197 0.867539Z" fill="#DC0D15"/>
<path id="Vector_42" d="M24.2999 1.26094L25.2085 1.83125C25.3842 1.93907 25.3171 2.22422 25.0999 2.26485L24.6928 2.33282C24.3538 2.38672 24.0014 2.31953 23.7163 2.14297L22.8077 1.57344C22.6311 1.46485 22.6991 1.17969 22.9163 1.13907L23.3233 1.0711C23.6624 1.00391 24.0147 1.0711 24.2999 1.26094Z" fill="#DC0D15"/>
<path id="Vector_43" d="M22.3057 1.79014L23.2549 2.29171C23.4315 2.38624 23.3908 2.67139 23.1736 2.7253L22.7799 2.82061C22.4408 2.90186 22.0885 2.84796 21.8033 2.69874L20.8541 2.19639C20.6783 2.10186 20.719 1.81671 20.9354 1.7628L21.3291 1.66749C21.6682 1.58624 22.0072 1.62686 22.3057 1.79014Z" fill="#DC0D15"/>
<path id="Vector_44" d="M20.3531 2.46798L21.3297 2.90236C21.5196 2.98361 21.4922 3.28205 21.2891 3.33673L20.8953 3.45861C20.5703 3.55314 20.2172 3.53986 19.9055 3.40392L18.9289 2.97033C18.7391 2.88908 18.7664 2.59064 18.9696 2.53595L19.3633 2.41408C19.7024 2.30548 20.0547 2.31955 20.3531 2.46798Z" fill="#DC0D15"/>
<path id="Vector_45" d="M18.4676 3.26827L19.4715 3.6339C19.6614 3.70187 19.6614 4.0003 19.4575 4.06827L19.0778 4.21749C18.752 4.33937 18.3997 4.35343 18.0879 4.23077L17.084 3.86515C16.8942 3.79718 16.8942 3.49874 17.0981 3.43077L17.4778 3.28155C17.7895 3.15968 18.1418 3.15968 18.4676 3.26827Z" fill="#DC0D15"/>
<path id="Vector_46" d="M16.624 4.20495L17.6544 4.5026C17.8583 4.55729 17.8583 4.85573 17.6685 4.93698L17.3021 5.11354C16.9904 5.26276 16.6372 5.28932 16.3122 5.19479L15.281 4.89635C15.0779 4.84167 15.0779 4.54401 15.2677 4.46198L15.6341 4.2862C15.9591 4.13698 16.3122 4.10963 16.624 4.20495Z" fill="#DC0D15"/>
<path id="Vector_47" d="M14.8596 5.26204L15.9042 5.47845C16.1073 5.51907 16.1346 5.81751 15.9448 5.91282L15.5924 6.11595C15.294 6.27923 14.9409 6.33314 14.6159 6.26517L13.5714 6.04798C13.3682 6.00736 13.3409 5.70892 13.5174 5.61439L13.8698 5.41126C14.1956 5.24798 14.5346 5.19407 14.8596 5.26204Z" fill="#DC0D15"/>
<path id="Vector_48" d="M13.179 6.45573L14.2368 6.60495C14.4399 6.6323 14.4938 6.91745 14.318 7.03933L13.979 7.25652C13.6938 7.44636 13.3415 7.52761 13.0157 7.47292L11.9446 7.3237C11.7407 7.29714 11.6868 7.01198 11.8633 6.89011L12.2024 6.67292C12.5008 6.48308 12.8399 6.40183 13.179 6.45573Z" fill="#DC0D15"/>
<path id="Vector_49" d="M11.5785 7.74334L12.6504 7.82537C12.8535 7.83865 12.9215 8.12381 12.7582 8.24569L12.4332 8.48944C12.1621 8.69334 11.823 8.80194 11.484 8.77459L10.4121 8.70662C10.209 8.69334 10.1277 8.40819 10.3035 8.28631L10.6293 8.04178C10.9004 7.82537 11.2394 7.73006 11.5785 7.74334Z" fill="#DC0D15"/>
<path id="Vector_50" d="M10.0725 9.15424H11.1444C11.3475 9.15424 11.4421 9.43861 11.2796 9.57455L10.9679 9.84564C10.71 10.0761 10.3843 10.1988 10.0452 10.1988H8.97411C8.77098 10.1988 8.67567 9.91361 8.83817 9.77767L9.15067 9.50658C9.40848 9.27611 9.73348 9.15424 10.0725 9.15424Z" fill="#DC0D15"/>
<path id="Vector_51" d="M8.66293 10.6602L9.73403 10.5922C9.93793 10.5789 10.0457 10.85 9.89653 10.9992L9.61215 11.2836C9.36762 11.5281 9.04262 11.6774 8.71684 11.7047L7.64574 11.786C7.44184 11.7992 7.33324 11.5281 7.48246 11.3789L7.76762 11.0938C8.01137 10.8367 8.33715 10.6875 8.66293 10.6602Z" fill="#DC0D15"/>
<path id="Vector_52" d="M7.37493 12.2604L8.43274 12.1112C8.63586 12.0847 8.75774 12.3417 8.62258 12.505L8.35071 12.8167C8.12024 13.0745 7.80852 13.2511 7.48274 13.2917L6.42493 13.4409C6.2218 13.4675 6.08586 13.2097 6.23508 13.0472L6.50696 12.7354C6.73743 12.4776 7.03586 12.3151 7.37493 12.2604Z" fill="#DC0D15"/>
<path id="Vector_53" d="M6.19363 13.9555L7.23816 13.7391C7.44128 13.6977 7.5905 13.9422 7.45534 14.1188L7.21081 14.4438C7.00769 14.7149 6.70925 14.9047 6.37019 14.9727L5.32566 15.1899C5.12253 15.2305 4.97331 14.9867 5.10847 14.8102L5.353 14.4844C5.57019 14.2133 5.86863 14.0235 6.19363 13.9555Z" fill="#DC0D15"/>
<path id="Vector_54" d="M5.13593 15.7191L6.16718 15.4206C6.3703 15.3667 6.5328 15.6105 6.41093 15.787L6.18046 16.1261C5.99061 16.4245 5.70546 16.6277 5.38046 16.723L4.34921 17.0214C4.14608 17.0753 3.98358 16.8316 4.10546 16.655L4.32264 16.316C4.52577 16.0175 4.81093 15.8144 5.13593 15.7191Z" fill="#DC0D15"/>
<path id="Vector_55" d="M4.1997 17.5504L5.20361 17.184C5.39345 17.116 5.5833 17.3465 5.4747 17.5231L5.27158 17.8754C5.09502 18.1738 4.8372 18.4043 4.52549 18.527L3.52158 18.8926C3.33174 18.9606 3.14189 18.7301 3.25049 18.5535L3.45439 18.2012C3.61689 17.9028 3.88799 17.6723 4.1997 17.5504Z" fill="#DC0D15"/>
<path id="Vector_56" d="M3.39957 19.4484L4.37613 19.0148C4.56598 18.9328 4.75582 19.15 4.67457 19.3398L4.49801 19.7062C4.34879 20.018 4.10504 20.2625 3.79332 20.3976L2.81676 20.832C2.62691 20.9133 2.43707 20.6961 2.51832 20.5062L2.6941 20.1398C2.84332 19.8414 3.08785 19.5844 3.39957 19.4484Z" fill="#DC0D15"/>
<path id="Vector_57" d="M2.72191 21.4016L3.67113 20.9C3.84769 20.8047 4.06488 21.0078 3.98363 21.1977L3.83441 21.5781C3.71175 21.9031 3.48128 22.161 3.18284 22.3235L2.23363 22.8258C2.05706 22.9203 1.84066 22.7172 1.92191 22.5274L2.07113 22.1477C2.20628 21.8219 2.43753 21.5641 2.72191 21.4016Z" fill="#DC0D15"/>
<path id="Vector_58" d="M2.19297 23.395L3.10156 22.8255C3.27813 22.7169 3.49531 22.9068 3.44063 23.1099L3.31875 23.5036C3.21016 23.8286 3.00703 24.1138 2.72188 24.2904L1.81328 24.8599C1.63672 24.9677 1.42031 24.7779 1.47422 24.5747L1.5961 24.1818C1.70469 23.8427 1.9086 23.5708 2.19297 23.395Z" fill="#DC0D15"/>
<g id="Clip path group_5">
<mask id="mask4_184_8847" style="mask-type:luminance" maskUnits="userSpaceOnUse" x="0" y="24" width="4" height="3">
<g id="clip5">
<path id="Vector_59" d="M0.972656 24.5995H3.16563V26.9995H0.972656V24.5995Z" fill="white"/>
</g>
</mask>
<g mask="url(#mask4_184_8847)">
<g id="Group_5">
<path id="Vector_60" d="M1.79961 25.4148L2.66758 24.7773C2.83008 24.6554 3.07383 24.832 3.01993 25.0351L2.92461 25.4288C2.84336 25.7679 2.65352 26.0663 2.38243 26.2562L1.51446 26.8796C1.35196 27.0015 1.10743 26.8257 1.16211 26.6218L1.25664 26.2288C1.33789 25.9031 1.52774 25.6046 1.79961 25.4148Z" fill="#DC0D15"/>
</g>
</g>
</g>
<g id="Clip path group_6">
<mask id="mask5_184_8847" style="mask-type:luminance" maskUnits="userSpaceOnUse" x="0" y="26" width="3" height="4">
<g id="clip6">
<path id="Vector_61" d="M0.972656 26.5995H2.76562V29.1995H0.972656V26.5995Z" fill="white"/>
</g>
</mask>
<g mask="url(#mask5_184_8847)">
<g id="Group_6">
<path id="Vector_62" d="M1.55547 27.4636L2.38282 26.7715C2.54532 26.6363 2.78985 26.7988 2.74922 27.0019L2.68125 27.409C2.62735 27.748 2.45079 28.0605 2.19297 28.2769L1.37891 28.955C1.21641 29.091 0.97266 28.9285 1.01329 28.7246L1.08125 28.3175C1.12188 27.9785 1.29766 27.68 1.55547 27.4636Z" fill="#DC0D15"/>
</g>
</g>
</g>
<g id="Clip path group_7">
<mask id="mask6_184_8847" style="mask-type:luminance" maskUnits="userSpaceOnUse" x="0" y="28" width="3" height="4">
<g id="clip7">
<path id="Vector_63" d="M0.972656 28.5995H2.76562V31.1995H0.972656V28.5995Z" fill="white"/>
</g>
</mask>
<g mask="url(#mask6_184_8847)">
<g id="Group_7">
<path id="Vector_64" d="M1.44678 29.5113L2.22022 28.7652C2.36944 28.63 2.62725 28.7652 2.61319 28.9691L2.57256 29.3754C2.54522 29.7144 2.396 30.0402 2.15225 30.2707L1.37881 31.0168C1.23038 31.1527 0.972564 31.0168 0.985845 30.8136L1.02647 30.4066C1.05381 30.0675 1.20303 29.7558 1.44678 29.5113Z" fill="#DC0D15"/>
</g>
</g>
</g>
<g id="Clip path group_8">
<mask id="mask7_184_8847" style="mask-type:luminance" maskUnits="userSpaceOnUse" x="0" y="30" width="3" height="4">
<g id="clip8">
<path id="Vector_65" d="M0.972656 30.5995H2.76562V33.1995H0.972656V30.5995Z" fill="white"/>
</g>
</mask>
<g mask="url(#mask7_184_8847)">
<g id="Group_8">
<path id="Vector_66" d="M1.48711 31.5732L2.20586 30.7732C2.3418 30.624 2.61289 30.7318 2.61289 30.949L2.59961 31.356C2.59961 31.7083 2.46367 32.0341 2.2332 32.2779L1.51445 33.0786C1.37852 33.2279 1.10742 33.1052 1.10742 32.9021L1.12148 32.495C1.13477 32.156 1.25664 31.831 1.48711 31.5732Z" fill="#DC0D15"/>
</g>
</g>
</g>
<path id="Vector_67" d="M1.67758 33.6211L2.34243 32.7805C2.4643 32.6172 2.74946 32.7125 2.74946 32.9297L2.7768 33.3367C2.79008 33.6758 2.69477 34.0148 2.47836 34.2859L1.81352 35.1266C1.69165 35.2891 1.40649 35.1945 1.40649 34.9773L1.37915 34.5703C1.36586 34.2312 1.46118 33.8922 1.67758 33.6211Z" fill="#DC0D15"/>
<path id="Vector_68" d="M2.00241 35.655L2.59928 34.7597C2.70788 34.5839 2.99225 34.6652 3.01959 34.8824L3.0735 35.2886C3.11491 35.6277 3.03288 35.9667 2.84303 36.2519L2.24694 37.1472C2.13834 37.323 1.85319 37.2417 1.82584 37.0245L1.77194 36.6183C1.73131 36.2792 1.81256 35.9402 2.00241 35.655Z" fill="#DC0D15"/>
<path id="Vector_69" d="M2.46422 37.6629L3.00719 36.727C3.11578 36.5512 3.40016 36.6051 3.44078 36.8223L3.52203 37.2153C3.59 37.5543 3.53609 37.9074 3.35953 38.1918L2.81734 39.1278C2.70875 39.3043 2.42359 39.2496 2.38297 39.0332L2.30172 38.6262C2.23375 38.3004 2.28844 37.9613 2.46422 37.6629Z" fill="#DC0D15"/>
<path id="Vector_70" d="M3.06093 39.6293L3.53593 38.6668C3.63046 38.4902 3.91562 38.5176 3.96953 38.7207L4.07812 39.1145C4.17343 39.4535 4.13281 39.7926 3.98359 40.1043L3.50859 41.0676C3.41328 41.2574 3.1289 41.2168 3.07421 41.0129L2.9664 40.6199C2.88437 40.2809 2.91171 39.9418 3.06093 39.6293Z" fill="#DC0D15"/>
<path id="Vector_71" d="M3.80685 41.5555L4.21388 40.5648C4.29513 40.375 4.5795 40.389 4.64747 40.5922L4.78341 40.9719C4.892 41.2976 4.892 41.65 4.75607 41.9617L4.34904 42.9523C4.26779 43.1422 3.98341 43.1281 3.91544 42.925L3.7795 42.5453C3.67091 42.2195 3.68497 41.8672 3.80685 41.5555Z" fill="#DC0D15"/>
<path id="Vector_72" d="M4.67464 43.4263L5.00042 42.4091C5.06761 42.206 5.35276 42.206 5.43401 42.4091L5.59651 42.7888C5.73245 43.1013 5.74573 43.4536 5.6512 43.7794L5.32542 44.7966C5.25745 44.9865 4.97308 44.9865 4.89183 44.7966L4.72854 44.4169C4.59339 44.0911 4.57933 43.7388 4.67464 43.4263Z" fill="#DC0D15"/>
<path id="Vector_73" d="M5.67884 45.2176L5.93587 44.1731C5.99056 43.97 6.27494 43.9559 6.37025 44.1458L6.56009 44.5122C6.70931 44.8239 6.74994 45.1629 6.68197 45.502L6.42415 46.5465C6.37025 46.7497 6.08509 46.7637 5.99056 46.5739L5.80072 46.2075C5.63744 45.8958 5.59681 45.5567 5.67884 45.2176Z" fill="#DC0D15"/>
<path id="Vector_74" d="M6.80417 46.9531L6.99401 45.8953C7.03542 45.6914 7.3198 45.6508 7.42839 45.8273L7.63151 46.1797C7.80808 46.4781 7.87605 46.8172 7.82136 47.1562L7.63151 48.2141C7.59089 48.418 7.30651 48.4586 7.19792 48.282L6.99401 47.9297C6.81823 47.6312 6.75026 47.2781 6.80417 46.9531Z" fill="#DC0D15"/>
<path id="Vector_75" d="M8.03781 48.5934L8.14641 47.5223C8.17375 47.3192 8.45813 47.2512 8.58078 47.427L8.81125 47.7661C9.01438 48.0512 9.09563 48.3903 9.06906 48.7294L8.96047 49.8004C8.93313 50.0044 8.64797 50.0723 8.5261 49.8958L8.29563 49.5567C8.10578 49.2715 8.01047 48.9325 8.03781 48.5934Z" fill="#DC0D15"/>
<path id="Vector_76" d="M9.39453 50.1542L9.43516 49.0823C9.44922 48.8792 9.72031 48.7979 9.85547 48.9604L10.1133 49.2721C10.3305 49.544 10.4391 49.869 10.425 50.2081L10.3844 51.2799C10.3844 51.4831 10.1 51.5643 9.96406 51.4018L9.70625 51.0901C9.50313 50.8182 9.39453 50.4792 9.39453 50.1542Z" fill="#DC0D15"/>
<path id="Vector_77" d="M10.859 51.6048L10.8184 50.5337C10.8184 50.3298 11.0895 50.222 11.2254 50.3845L11.4965 50.6829C11.727 50.9407 11.8629 51.2657 11.8762 51.5915L11.9168 52.6626C11.9301 52.8665 11.6457 52.9751 11.5098 52.8118L11.2387 52.5134C11.0082 52.2563 10.8723 51.9438 10.859 51.6048Z" fill="#DC0D15"/>
<path id="Vector_78" d="M12.4183 52.9477L12.3105 51.8758C12.2832 51.6727 12.5543 51.5508 12.7035 51.7L13.0019 51.9844C13.2597 52.2148 13.409 52.5406 13.4496 52.8664L13.5582 53.9375C13.5847 54.1414 13.3136 54.2633 13.1644 54.1141L12.866 53.8289C12.6082 53.5984 12.4457 53.2867 12.4183 52.9477Z" fill="#DC0D15"/>
<path id="Vector_79" d="M14.0603 54.182L13.8705 53.1242C13.8299 52.9203 14.0877 52.7852 14.2635 52.9203L14.576 53.1781C14.847 53.3953 15.0228 53.6938 15.0775 54.0328L15.2674 55.0906C15.308 55.2938 15.0502 55.4297 14.8877 55.2938L14.576 55.0359C14.3041 54.8195 14.1142 54.5211 14.0603 54.182Z" fill="#DC0D15"/>
<path id="Vector_80" d="M15.7963 55.3068L15.5385 54.2631C15.4846 54.0592 15.7424 53.91 15.9049 54.0326L16.244 54.2631C16.5284 54.4662 16.7323 54.7514 16.8135 55.0764L17.0713 56.1209C17.1252 56.324 16.8674 56.4733 16.7049 56.3514L16.3659 56.1209C16.0674 55.9178 15.8776 55.6326 15.7963 55.3068Z" fill="#DC0D15"/>
<path id="Vector_81" d="M17.6001 56.3109L17.2743 55.2937C17.2064 55.1039 17.4509 54.9273 17.6275 55.0359L17.9798 55.2531C18.2782 55.4297 18.4954 55.7008 18.6032 56.0265L18.929 57.0437C18.997 57.2336 18.7525 57.4094 18.5767 57.3008L18.2235 57.0844C17.9118 56.8945 17.6946 56.6226 17.6001 56.3109Z" fill="#DC0D15"/>
<path id="Vector_82" d="M19.458 57.1656L19.0509 56.1758C18.9697 55.9852 19.2002 55.7953 19.39 55.8906L19.7564 56.0805C20.0681 56.243 20.2986 56.5008 20.4345 56.8125L20.8416 57.8031C20.9228 57.993 20.6924 58.1828 20.5025 58.0875L20.1361 57.8977C19.8244 57.7484 19.5939 57.4906 19.458 57.1656Z" fill="#DC0D15"/>
<path id="Vector_83" d="M21.3831 57.9115L20.9089 56.9482C20.8136 56.7584 21.0308 56.5552 21.2206 56.6365L21.6003 56.799C21.9261 56.9349 22.1699 57.1787 22.3191 57.4771L22.7941 58.4404C22.8886 58.6302 22.6714 58.8334 22.4816 58.7388L22.1019 58.5756C21.7902 58.4537 21.5324 58.2092 21.3831 57.9115Z" fill="#DC0D15"/>
<path id="Vector_84" d="M23.3639 58.5078L22.8209 57.5726C22.7131 57.3961 22.9162 57.1789 23.1194 57.2469L23.4991 57.3828C23.8248 57.4906 24.0959 57.7219 24.2725 58.0062L24.8147 58.9422C24.9233 59.1187 24.7201 59.3351 24.5162 59.268L24.1366 59.132C23.7975 59.0234 23.5264 58.8062 23.3639 58.5078Z" fill="#DC0D15"/>
<path id="Vector_85" d="M25.3712 58.969L24.7743 58.087C24.6657 57.9112 24.8423 57.68 25.0454 57.7347L25.4391 57.8433C25.7782 57.9378 26.0626 58.1417 26.2524 58.4128L26.8493 59.3081C26.972 59.4839 26.7813 59.7144 26.5782 59.6605L26.1852 59.5519C25.8321 59.4573 25.5477 59.2534 25.3712 58.969Z" fill="#DC0D15"/>
<path id="Vector_86" d="M27.4051 59.2945L26.7402 58.4538C26.6183 58.2913 26.7808 58.0468 26.9847 58.0874L27.3777 58.1687C27.7168 58.2366 28.0152 58.4132 28.2324 58.6843L28.8972 59.5249C29.0191 59.6882 28.8566 59.932 28.6527 59.8913L28.2597 59.8101C27.9066 59.7421 27.6082 59.5523 27.4051 59.2945Z" fill="#DC0D15"/>
<path id="Vector_87" d="M29.4532 59.4707L28.7344 58.6707C28.5993 58.5215 28.7485 58.2637 28.9516 58.291L29.3587 58.3449C29.6977 58.3855 30.0094 58.548 30.2399 58.8059L30.9587 59.6066C31.0946 59.7559 30.9454 60.0129 30.7423 59.9863L30.3352 59.9316C29.9962 59.8777 29.6837 59.7145 29.4532 59.4707Z" fill="#DC0D15"/>
<path id="Vector_88" d="M31.5153 59.4987L30.7426 58.7526C30.5934 58.6166 30.7153 58.3455 30.9325 58.3588L31.3387 58.3862C31.6918 58.4002 32.0036 58.5487 32.2481 58.7799L33.0207 59.5252C33.17 59.6612 33.0481 59.9322 32.8309 59.919L32.4239 59.8916C32.0715 59.8783 31.7598 59.7424 31.5153 59.4987Z" fill="#DC0D15"/>
<path id="Vector_89" d="M33.5766 59.3894L32.7493 58.6972C32.5868 58.562 32.6946 58.291 32.9118 58.291H33.3188C33.6711 58.291 33.9969 58.3995 34.2547 58.616L35.0821 59.3081C35.2446 59.4433 35.136 59.7144 34.9188 59.7144H34.5125C34.1594 59.7285 33.8344 59.6066 33.5766 59.3894Z" fill="#DC0D15"/>
<path id="Vector_90" d="M35.6104 59.1456L34.7424 58.5222C34.5791 58.4003 34.6611 58.1151 34.8776 58.1018L35.2846 58.0612C35.6236 58.0339 35.9627 58.1284 36.2338 58.3183L37.1018 58.9425C37.2651 59.0643 37.183 59.3354 36.9666 59.3628L36.5596 59.4034C36.2205 59.4308 35.8815 59.3354 35.6104 59.1456Z" fill="#DC0D15"/>
<path id="Vector_91" d="M37.632 58.7387L36.7234 58.1684C36.5476 58.0605 36.6148 57.7754 36.832 57.748L37.239 57.6801C37.578 57.6262 37.9304 57.6941 38.2155 57.8707L39.1241 58.4402C39.3007 58.548 39.2327 58.8332 39.0155 58.8605L38.6085 58.9285C38.2695 58.9957 37.9304 58.9285 37.632 58.7387Z" fill="#DC0D15"/>
<path id="Vector_92" d="M39.6252 58.2098L38.676 57.7082C38.4995 57.6137 38.5401 57.3286 38.744 57.2746L39.137 57.1793C39.476 57.0981 39.8292 57.152 40.1276 57.3012L41.0768 57.8036C41.2526 57.8981 41.212 58.1832 41.0088 58.2371L40.6159 58.3325C40.2768 58.4137 39.9237 58.3731 39.6252 58.2098Z" fill="#DC0D15"/>
<path id="Vector_93" d="M41.5783 57.532L40.6018 57.0977C40.4119 57.0164 40.4393 56.718 40.6424 56.6633L41.0362 56.5414C41.3612 56.4469 41.7143 56.4602 42.026 56.5961L43.0026 57.0297C43.1924 57.1109 43.1651 57.4094 42.9619 57.4641L42.5682 57.5859C42.2291 57.6945 41.8768 57.6672 41.5783 57.532Z" fill="#DC0D15"/>
<path id="Vector_94" d="M43.4759 56.7308L42.4728 56.3651C42.283 56.2972 42.283 55.9987 42.4861 55.9308L42.8658 55.7816C43.1915 55.6597 43.5439 55.6597 43.8564 55.7683L44.8595 56.1339C45.0494 56.2019 45.0494 56.5003 44.8462 56.5683L44.4665 56.7175C44.1408 56.8394 43.7884 56.8394 43.4759 56.7308Z" fill="#DC0D15"/>
<path id="Vector_95" d="M45.3083 55.795L44.2778 55.4974C44.0739 55.4427 44.0739 55.1443 44.2637 55.063L44.6301 54.8864C44.9418 54.7372 45.295 54.7107 45.62 54.8052L46.6512 55.1036C46.8543 55.1583 46.8543 55.456 46.6645 55.538L46.2981 55.7138C45.9731 55.863 45.634 55.8903 45.3083 55.795Z" fill="#DC0D15"/>
<path id="Vector_96" d="M47.0707 54.7245L46.0262 54.5074C45.8231 54.4667 45.7957 54.1683 45.9856 54.0738L46.3379 53.8839C46.6364 53.7206 46.9895 53.6667 47.3145 53.7347L48.359 53.9519C48.5621 53.9925 48.5895 54.291 48.4129 54.3855L48.0606 54.5753C47.7489 54.7519 47.3957 54.7925 47.0707 54.7245Z" fill="#DC0D15"/>
<path id="Vector_97" d="M48.7527 53.5446L47.6817 53.3954C47.4785 53.368 47.4238 53.0829 47.6004 52.961L47.9395 52.7438C48.2238 52.554 48.577 52.4727 48.902 52.5274L49.9598 52.6766C50.1637 52.7032 50.2176 52.9883 50.0418 53.1102L49.7027 53.3274C49.4309 53.5173 49.0918 53.5985 48.7527 53.5446Z" fill="#DC0D15"/>
<path id="Vector_98" d="M50.353 52.2562L49.2811 52.1742C49.078 52.1609 49.01 51.8758 49.1733 51.7539L49.4983 51.5101C49.7694 51.3062 50.1084 51.1976 50.4475 51.225L51.5194 51.293C51.7225 51.3062 51.8037 51.5914 51.628 51.7133L51.3022 51.9578C51.0311 52.1742 50.692 52.2695 50.353 52.2562Z" fill="#DC0D15"/>
<path id="Vector_99" fill-rule="evenodd" clip-rule="evenodd" d="M28.4355 6.34681L29.9957 5.22181L29.3988 3.36322L30.9582 4.51635L32.5316 3.36322L31.9215 5.19447L33.4949 6.33353H31.5691L30.9723 8.17806L30.3754 6.34681H28.4355Z" fill="#DC0D15"/>
<path id="Vector_100" fill-rule="evenodd" clip-rule="evenodd" d="M19.5793 9.11361L20.5965 7.4722L19.3223 5.99408L21.1934 6.45502L22.2105 4.78705L22.3598 6.71283L24.2449 7.17377L22.4684 7.90658L22.6176 9.84564L21.3699 8.36752L19.5793 9.11361Z" fill="#DC0D15"/>
<path id="Vector_101" fill-rule="evenodd" clip-rule="evenodd" d="M12.4457 15.0681L12.7574 13.1556L11.0215 12.2744L12.934 11.9892L13.2324 10.0634L14.1004 11.7861L16.0262 11.4736L14.6566 12.8439L15.5379 14.5658L13.8293 13.6845L12.4457 15.0681Z" fill="#DC0D15"/>
<path id="Vector_102" fill-rule="evenodd" clip-rule="evenodd" d="M8.14648 23.2867L7.69883 21.4015L5.75977 21.2656L7.41445 20.2624L6.95273 18.3632L8.41758 19.6249L10.0723 18.6078L9.32617 20.3843L10.8051 21.6453L8.89258 21.4828L8.14648 23.2867Z" fill="#DC0D15"/>
<path id="Vector_103" fill-rule="evenodd" clip-rule="evenodd" d="M7.31953 32.5357L6.18047 30.963L4.33594 31.5732L5.475 30.013L4.33594 28.4404L6.16719 29.0505L7.30625 27.4638L7.29219 29.4029L9.15078 29.9997L7.30625 30.5826L7.31953 32.5357Z" fill="#DC0D15"/>
<path id="Vector_104" fill-rule="evenodd" clip-rule="evenodd" d="M10.0863 41.3917L8.44492 40.3745L6.9668 41.6363L7.42773 39.7644L5.75977 38.7472L7.68555 38.612L8.1332 36.7128L8.86523 38.5035L10.8051 38.3402L9.34023 39.5878L10.0863 41.3917Z" fill="#DC0D15"/>
<path id="Vector_105" fill-rule="evenodd" clip-rule="evenodd" d="M16.0268 48.5125L14.1283 48.2008L13.2463 49.9367L12.9479 48.0383L11.0361 47.7258L12.758 46.8578L12.4463 44.9461L13.8025 46.3156L15.5385 45.4203L14.6572 47.143L16.0268 48.5125Z" fill="#DC0D15"/>
<path id="Vector_106" fill-rule="evenodd" clip-rule="evenodd" d="M24.2594 52.8261L22.3742 53.2597L22.225 55.1995L21.2211 53.5581L19.3359 54.0058L20.5969 52.5542L19.5664 50.8863L21.357 51.6456L22.618 50.1542L22.4555 52.08L24.2594 52.8261Z" fill="#DC0D15"/>
<path id="Vector_107" fill-rule="evenodd" clip-rule="evenodd" d="M33.4949 53.6535L31.9348 54.7785L32.5316 56.637L30.9855 55.4839L29.4121 56.637L30.009 54.8058L28.4355 53.6667H30.3613L30.9582 51.8222L31.5551 53.6535H33.4949Z" fill="#DC0D15"/>
<path id="Vector_108" fill-rule="evenodd" clip-rule="evenodd" d="M42.3512 50.8863L41.334 52.5277L42.6082 54.0058L40.7371 53.5449L39.7199 55.1995L39.5707 53.2738L37.6855 52.8261L39.4754 52.0933L39.3129 50.1542L40.5605 51.6324L42.3512 50.8863Z" fill="#DC0D15"/>
<path id="Vector_109" fill-rule="evenodd" clip-rule="evenodd" d="M49.4848 44.9316L49.173 46.8441L50.909 47.7253L48.9965 48.0105L48.698 49.9363L47.8301 48.2136L45.9043 48.5261L47.2738 47.1558L46.3926 45.4339L48.1012 46.3152L49.4848 44.9316Z" fill="#DC0D15"/>
<path id="Vector_110" fill-rule="evenodd" clip-rule="evenodd" d="M53.7846 36.7128L54.2322 38.598L56.1713 38.7339L54.5166 39.737L54.9783 41.6363L53.5135 40.3745L51.8588 41.3917L52.6049 39.6152L51.126 38.3542L53.0525 38.5167L53.7846 36.7128Z" fill="#DC0D15"/>
<path id="Vector_111" fill-rule="evenodd" clip-rule="evenodd" d="M54.6248 27.4638L55.7506 29.0365L57.5951 28.4263L56.4561 29.9865L57.6084 31.5591L55.7639 30.949L54.6248 32.5357L54.6389 30.5966L52.7803 29.9997L54.6248 29.4169V27.4638Z" fill="#DC0D15"/>
<path id="Vector_112" fill-rule="evenodd" clip-rule="evenodd" d="M51.8447 18.6078L53.4861 19.625L54.9643 18.3633L54.5033 20.2352L56.1713 21.2523L54.2455 21.3875L53.7979 23.2867L53.0658 21.4961L51.126 21.6594L52.6049 20.4117L51.8447 18.6078Z" fill="#DC0D15"/>
<path id="Vector_113" fill-rule="evenodd" clip-rule="evenodd" d="M45.9043 11.4876L47.8027 11.7994L48.6848 10.0634L48.9832 11.9619L50.909 12.2603L49.173 13.1423L49.4848 15.054L48.1285 13.6845L46.3926 14.5798L47.2879 12.8572L45.9043 11.4876Z" fill="#DC0D15"/>
<path id="Vector_114" fill-rule="evenodd" clip-rule="evenodd" d="M37.6719 7.17422L39.557 6.74063L39.7063 4.80078L40.7102 6.44219L42.5953 5.98125L41.3344 7.44609L42.3648 9.11406L40.5742 8.35469L39.3133 9.84609L39.4758 7.92031L37.6719 7.17422Z" fill="#DC0D15"/>
<path id="Vector_115" d="M30.973 45.2706C22.5504 45.2706 15.7012 38.4214 15.7012 29.9995C15.7012 21.5777 22.5504 14.7285 30.973 14.7285C39.3949 14.7285 46.2441 21.5777 46.2441 29.9995C46.2441 38.4214 39.3816 45.2706 30.973 45.2706ZM30.973 15.1761C22.7949 15.1761 16.1488 21.8214 16.1488 29.9995C16.1488 38.1777 22.7949 44.823 30.973 44.823C39.1512 44.823 45.7965 38.1777 45.7965 29.9995C45.7965 21.8214 39.1371 15.1761 30.973 15.1761Z" fill="#DC0D15"/>
<path id="Vector_116" d="M30.973 50.5613C19.6348 50.5613 10.4121 41.3386 10.4121 30.0003C10.4121 18.662 19.6348 9.43939 30.973 9.43939C42.3113 9.43939 51.5332 18.662 51.5332 30.0003C51.5332 41.3386 42.3113 50.5613 30.973 50.5613ZM30.973 9.90111C19.8785 9.90111 10.873 18.9199 10.873 30.0003C10.873 41.0808 19.8926 50.0996 30.973 50.0996C42.0535 50.0996 51.0723 41.0808 51.0723 30.0003C51.0723 18.9199 42.0535 9.90111 30.973 9.90111Z" fill="#DC0D15"/>
<path id="Vector_117" d="M26.4293 47.6449L27.0395 47.8074L26.9176 48.2691L25.1816 47.7941L25.3035 47.3331L25.9277 47.4956L26.4566 45.5292L26.9723 45.6785L26.4293 47.6449Z" fill="#DC0D15"/>
<path id="Vector_118" d="M23.8254 47.278L24.409 45.9491C24.5848 45.5561 24.5309 45.285 24.2863 45.1764C24.0285 45.0678 23.8121 45.1897 23.6355 45.5968L23.0527 46.9257L22.5645 46.7085L23.134 45.4202C23.4457 44.7147 23.934 44.5249 24.4902 44.7694C25.0324 45.0132 25.209 45.4749 24.8832 46.2069L24.3137 47.4952L23.8254 47.278ZM23.134 47.4139C23.0793 47.5499 22.9441 47.6038 22.8082 47.5499C22.6863 47.4952 22.6457 47.36 22.6996 47.2241C22.7543 47.1022 22.8895 47.0343 23.0113 47.0882C23.1473 47.1428 23.2012 47.278 23.134 47.4139ZM23.798 47.6991C23.7441 47.8343 23.5949 47.8889 23.473 47.8343C23.3504 47.7803 23.3098 47.6444 23.3645 47.5093C23.4184 47.3866 23.5543 47.3194 23.6762 47.3733C23.8121 47.4272 23.8527 47.5764 23.798 47.6991Z" fill="#DC0D15"/>
<path id="Vector_119" d="M21.5733 46.1394C21.4108 46.0714 21.1936 45.9495 20.9499 45.8003C20.6514 45.6105 20.4889 45.4347 20.421 45.2308C20.3663 45.0542 20.3936 44.8644 20.5296 44.6745C20.7053 44.4035 21.0038 44.3355 21.2077 44.3761V44.3628C21.1124 44.2136 21.1257 44.0238 21.1936 43.7933C21.2889 43.5081 21.3975 43.1964 21.4108 43.0878L21.8717 43.3863C21.8717 43.4675 21.8038 43.6714 21.696 43.9699C21.5733 44.2683 21.6139 44.3902 21.7905 44.512L21.9264 44.5933L22.4553 43.766L22.903 44.0511L21.5733 46.1394ZM21.7225 44.9464L21.5467 44.8378C21.3296 44.6886 21.1124 44.7292 20.9905 44.9191C20.8686 45.1089 20.9225 45.2855 21.1257 45.4206C21.2342 45.4886 21.3022 45.516 21.3428 45.5292L21.7225 44.9464Z" fill="#DC0D15"/>
<path id="Vector_120" d="M19.2957 44.6068L18.902 44.2677L19.6348 43.4263L19.6207 43.413C19.5129 43.4537 19.4176 43.481 19.323 43.5216L18.373 43.806L17.8848 43.3857L19.1738 43.0872L19.5129 41.4599L19.9738 41.8669L19.6887 43.0607L20.0145 42.9927L20.5566 42.3685L20.9504 42.7076L19.2957 44.6068Z" fill="#DC0D15"/>
<path id="Vector_121" d="M16.9759 42.9789C16.8674 43.0742 16.7181 43.0742 16.6236 42.9656C16.5424 42.8711 16.5556 42.7219 16.6642 42.6266C16.7595 42.532 16.922 42.532 17.0033 42.6266C17.0845 42.7219 17.0713 42.8844 16.9759 42.9789ZM16.9353 42.3281L18.7939 40.6328L19.1463 41.0266L17.2884 42.7219L16.9353 42.3281Z" fill="#DC0D15"/>
<path id="Vector_122" d="M17.9797 39.643L17.1391 40.2398L16.3656 41.7047L16.0266 41.2297L16.3789 40.6875C16.4875 40.5242 16.5695 40.4023 16.6641 40.2531C16.5016 40.307 16.3523 40.3484 16.1758 40.3891L15.5523 40.5516L15.1992 40.0633L16.8406 39.8328L17.6945 39.2227L17.9797 39.643Z" fill="#DC0D15"/>
<path id="Vector_123" d="M15.3617 37.3503L15.7555 38.1238L16.2844 37.8386L15.8367 36.9839L16.257 36.7675L16.9492 38.0964L14.7109 39.2628L14.0469 37.9878L14.4531 37.7706L14.8875 38.5706L15.3484 38.3269L14.9414 37.5675L15.3617 37.3503Z" fill="#DC0D15"/>
<path id="Vector_124" d="M15.1181 33.7021C15.1994 33.7833 15.308 33.9732 15.3892 34.2451C15.6197 35.0177 15.2134 35.574 14.5212 35.7771C13.6939 36.0216 13.0837 35.6013 12.8806 34.9232C12.7986 34.6654 12.7986 34.4482 12.8259 34.3396L13.2869 34.3122C13.2736 34.4349 13.2736 34.5841 13.3283 34.7599C13.4501 35.1669 13.8025 35.3974 14.3314 35.2482C14.8197 35.113 15.0369 34.7466 14.915 34.299C14.8744 34.1497 14.779 33.9872 14.7111 33.906L15.1181 33.7021Z" fill="#DC0D15"/>
<path id="Vector_125" d="M12.5008 32.889L13.9383 32.6992C14.3719 32.6445 14.5617 32.4547 14.5352 32.1969C14.4938 31.9258 14.2633 31.8039 13.8297 31.8578L12.3922 32.0476L12.3242 31.5187L13.7211 31.3289C14.4938 31.2203 14.9008 31.5328 14.982 32.143C15.0641 32.7258 14.7656 33.1195 13.9648 33.2281L12.568 33.418L12.5008 32.889Z" fill="#DC0D15"/>
<path id="Vector_126" d="M13.8699 28.4408C13.5715 28.4408 13.2051 28.4267 12.8395 28.4134V28.4267C13.1512 28.5079 13.5176 28.6306 13.802 28.7251L14.7652 29.0509L14.7512 29.4579L13.7613 29.6611C13.4629 29.729 13.0965 29.7829 12.7715 29.8236V29.8376C13.1105 29.8642 13.5035 29.8915 13.8152 29.9189L14.7652 30.0001L14.7379 30.4884L12.2285 30.2579L12.2559 29.5525L13.1105 29.3626C13.409 29.3087 13.7207 29.2408 14.0191 29.2001V29.1861C13.734 29.1048 13.409 29.0103 13.1238 28.929L12.2965 28.6439L12.3238 27.9525L14.8465 27.9384L14.8191 28.454L13.8699 28.4408Z" fill="#DC0D15"/>
<path id="Vector_127" d="M12.65 26.1755L13.5852 26.3919L13.7891 25.5513L12.8398 25.3341L12.9617 24.8193L15.4164 25.3747L15.2945 25.8904L14.2773 25.6599L14.0734 26.5146L15.1047 26.7451L14.982 27.2599L12.5273 26.6904L12.65 26.1755Z" fill="#DC0D15"/>
<path id="Vector_128" d="M13.5316 23.2183L14.8746 23.7745C15.2809 23.937 15.5387 23.8831 15.634 23.6386C15.7426 23.3808 15.6066 23.1644 15.1996 22.9878L13.8574 22.4316L14.0605 21.9433L15.3621 22.4863C16.0816 22.7847 16.2848 23.2589 16.0402 23.8285C15.8098 24.3714 15.3621 24.5613 14.6168 24.2488L13.3145 23.7066L13.5316 23.2183Z" fill="#DC0D15"/>
<path id="Vector_129" d="M14.6025 20.9536C14.6705 20.7911 14.7791 20.5606 14.9283 20.3294C15.1049 20.0317 15.2807 19.8552 15.4846 19.7872C15.6604 19.7333 15.8502 19.7599 16.04 19.8825C16.3119 20.045 16.3932 20.3435 16.3525 20.5606H16.3658C16.515 20.452 16.7049 20.4653 16.9354 20.5333C17.2205 20.6145 17.5322 20.7231 17.6408 20.7364L17.3557 21.1974C17.2744 21.1974 17.0713 21.1302 16.7729 21.0349C16.4744 20.9263 16.3525 20.9669 16.2307 21.1435L16.1486 21.2794L16.99 21.7942L16.7182 22.2419L14.6025 20.9536ZM15.8096 21.0622L15.9182 20.8856C16.0541 20.6552 16.0135 20.452 15.8236 20.3435C15.6197 20.2216 15.4572 20.2888 15.3213 20.4927C15.2541 20.6013 15.2268 20.6685 15.2135 20.7091L15.8096 21.0622Z" fill="#DC0D15"/>
<path id="Vector_130" d="M15.7561 18.4317C15.6475 18.3371 15.6202 18.1879 15.7014 18.0793C15.7835 17.9707 15.9327 17.9707 16.0546 18.052C16.1632 18.1332 16.1897 18.2824 16.1085 18.391C16.0272 18.4996 15.8647 18.5129 15.7561 18.4317ZM16.3796 18.2692L18.36 19.8153L18.0342 20.2356L16.0546 18.6895L16.3796 18.2692Z" fill="#DC0D15"/>
<path id="Vector_131" d="M19.2141 18.8511L18.4813 18.1324L16.8945 17.6167L17.3148 17.1831L17.9117 17.441C18.0883 17.5222 18.2234 17.5761 18.3867 17.6441C18.3055 17.4949 18.2508 17.3597 18.1695 17.1831L17.8984 16.5863L18.3188 16.166L18.8344 17.7394L19.5797 18.4714L19.2141 18.8511Z" fill="#DC0D15"/>
<path id="Vector_132" d="M21.0035 15.8808L20.3254 16.3964L20.6918 16.8714L21.4512 16.2878L21.7363 16.6542L20.5559 17.5628L19.0098 15.5824L20.1629 14.7011L20.4473 15.0675L19.7285 15.6238L20.041 16.03L20.7191 15.5152L21.0035 15.8808Z" fill="#DC0D15"/>
<path id="Vector_133" d="M21.6686 14.2945L21.1256 14.6203L20.8818 14.2L22.4412 13.3047L22.6857 13.7117L22.1295 14.0367L23.1467 15.8L22.6857 16.0711L21.6686 14.2945Z" fill="#DC0D15"/>
<path id="Vector_134" d="M23.0795 12.573C23.0256 12.437 23.0795 12.2878 23.2014 12.2339C23.324 12.1792 23.4592 12.2472 23.5139 12.3691C23.5678 12.4909 23.5271 12.6402 23.4053 12.6949C23.2834 12.7628 23.1342 12.6949 23.0795 12.573ZM23.7037 12.7355L24.7068 15.0409L24.2185 15.2581L23.2154 12.9527L23.7037 12.7355Z" fill="#DC0D15"/>
<path id="Vector_135" d="M26.2389 12.3691L25.6287 12.5324L25.5068 12.0574L27.2561 11.623L27.3646 12.0847L26.7545 12.2472L27.2428 14.2136L26.7271 14.3495L26.2389 12.3691Z" fill="#DC0D15"/>
<path id="Vector_136" d="M28.7078 13.2914L28.6125 13.9555L28.0703 14.0102L28.4906 11.4328L29.182 11.3516L30.1859 13.7656L29.6164 13.8336L29.3586 13.2094L28.7078 13.2914ZM29.25 12.8031L29.0469 12.2875C28.9922 12.1383 28.9242 11.9617 28.8703 11.8125C28.857 11.9617 28.843 12.1516 28.8156 12.3008L28.7344 12.8437L29.25 12.8031Z" fill="#DC0D15"/>
<path id="Vector_137" d="M30.8645 11.284C31.0402 11.2574 31.2848 11.2434 31.5699 11.2574C31.9223 11.2707 32.1527 11.3387 32.3152 11.4879C32.4512 11.6098 32.5191 11.7863 32.5051 12.0168C32.4918 12.3418 32.2746 12.5457 32.0715 12.627V12.6403C32.234 12.7223 32.3152 12.8848 32.3699 13.1153C32.4379 13.4004 32.4918 13.7395 32.5324 13.834L31.9902 13.8207C31.9496 13.7528 31.909 13.5356 31.8543 13.2238C31.8004 12.9121 31.7051 12.8168 31.4879 12.8035H31.3254L31.2848 13.7934L30.7559 13.7801L30.8645 11.284ZM31.3527 12.3965L31.5559 12.4098C31.8137 12.4238 31.9762 12.2879 31.9902 12.0574C32.0035 11.827 31.8543 11.7051 31.6105 11.691C31.4879 11.691 31.4066 11.691 31.366 11.7051L31.3527 12.3965Z" fill="#DC0D15"/>
<g id="Clip path group_9">
<mask id="mask8_184_8847" style="mask-type:luminance" maskUnits="userSpaceOnUse" x="32" y="11" width="3" height="4">
<g id="clip9">
<path id="Vector_138" d="M32.9658 11.4003H34.1658V14.2003H32.9658V11.4003Z" fill="white"/>
</g>
</mask>
<g mask="url(#mask8_184_8847)">
<g id="Group_9">
<g id="Clip path group_10">
<mask id="mask9_184_8847" style="mask-type:luminance" maskUnits="userSpaceOnUse" x="16" y="-17" width="69" height="70">
<g id="clip10">
<path id="Vector_139" d="M16.123 43.0703L25.1324 -16.2383L84.4551 -7.22662L75.4449 52.082L16.123 43.0703Z" fill="white"/>
</g>
</mask>
<g mask="url(#mask9_184_8847)">
<g id="Group_10">
<path id="Vector_140" d="M33.1445 13.9251L33.5234 11.4306L34.0461 11.5103L33.6672 14.004L33.1445 13.9251Z" fill="#DC0D15"/>
</g>
</g>
</g>
</g>
</g>
</g>
<path id="Vector_141" d="M36.6012 13.7521C36.6824 13.4536 36.7777 13.1013 36.8723 12.7482H36.859C36.6965 13.0333 36.5066 13.3451 36.3301 13.6029L35.7738 14.4576L35.3809 14.3349L35.4215 13.3318C35.4348 13.0193 35.4621 12.6536 35.5027 12.3279C35.3941 12.6536 35.2723 13.0193 35.1637 13.3177L34.852 14.2263L34.377 14.0912L35.2449 11.7177L35.923 11.9208L35.8957 12.7888C35.8824 13.0872 35.8551 13.413 35.8285 13.7115H35.8418C35.991 13.4536 36.1676 13.1552 36.316 12.9115L36.791 12.1786L37.4559 12.3826L36.859 14.8372L36.3574 14.688L36.6012 13.7521Z" fill="#DC0D15"/>
<path id="Vector_142" d="M38.7842 15.7867L39.3943 13.2234L39.8959 13.5078L39.6115 14.5797C39.5303 14.8781 39.449 15.1625 39.3404 15.4609H39.3537C39.5568 15.2305 39.774 15 39.9779 14.7969L40.7779 14.0102L41.2662 14.2945L39.3264 16.0852L38.7842 15.7867Z" fill="#DC0D15"/>
<path id="Vector_143" d="M42.1887 16.8449L41.5105 16.3027L41.1449 16.7769L41.8902 17.3738L41.6059 17.7402L40.4395 16.8175L41.9855 14.8378L43.1246 15.7324L42.8402 16.0988L42.1207 15.5292L41.7957 15.9495L42.4738 16.4785L42.1887 16.8449Z" fill="#DC0D15"/>
<path id="Vector_144" d="M45.118 19.6383C44.4805 20.1672 43.8023 20.1266 43.3687 19.611C42.9211 19.082 43.0969 18.4039 43.6398 17.943C44.2226 17.4547 44.9414 17.4414 45.3758 17.9703C45.8367 18.5125 45.6469 19.1906 45.118 19.6383ZM44.0062 18.3633C43.6258 18.6758 43.5039 19.0688 43.7344 19.3399C43.9648 19.611 44.3719 19.5297 44.7516 19.218C45.1047 18.9328 45.2672 18.5266 45.0367 18.2414C44.7922 17.9703 44.3719 18.0383 44.0062 18.3633Z" fill="#DC0D15"/>
<path id="Vector_145" d="M46.6102 19.7195C46.718 19.8555 46.8672 20.0586 47.0164 20.3031C47.193 20.6016 47.2742 20.8453 47.2336 21.0484C47.2062 21.225 47.0844 21.3875 46.8945 21.5102C46.6234 21.6727 46.325 21.6047 46.1484 21.4695H46.1352C46.1625 21.6453 46.0539 21.8086 45.8914 21.9844C45.6875 22.1883 45.4438 22.4188 45.3758 22.5133L45.0906 22.0524C45.1313 21.9844 45.2805 21.8352 45.5109 21.6047C45.7422 21.3875 45.7688 21.2656 45.6602 21.0758L45.5789 20.9406L44.725 21.4422L44.4531 20.9945L46.6102 19.7195ZM45.9453 20.7234L46.0539 20.9C46.1891 21.1305 46.393 21.1844 46.5828 21.0758C46.7859 20.9539 46.8 20.7774 46.6914 20.5609C46.6234 20.4524 46.5828 20.3977 46.5555 20.3711L45.9453 20.7234Z" fill="#DC0D15"/>
<path id="Vector_146" d="M47.2611 24.5211C47.5455 24.3984 47.8713 24.2633 48.2236 24.1273V24.1141C47.8986 24.1547 47.5322 24.1953 47.2205 24.2227L46.2033 24.3039L46.0541 23.9242L46.8674 23.3406C47.1119 23.1648 47.4236 22.9609 47.7088 22.7984C47.383 22.907 47.0166 23.0422 46.7182 23.1375L45.8096 23.4359L45.6338 22.975L48.0338 22.2148L48.2916 22.8797L47.5869 23.3953C47.3424 23.5711 47.0713 23.7477 46.8135 23.8969V23.9102C47.1119 23.8695 47.451 23.8289 47.7354 23.7883L48.6033 23.7203L48.8479 24.3719L46.5424 25.3891L46.3525 24.9008L47.2611 24.5211Z" fill="#DC0D15"/>
<path id="Vector_147" d="M47.4512 26.4734L46.7863 26.4328L46.6777 25.8906L49.2816 26.121L49.4176 26.7992L47.0848 27.9788L46.9762 27.4234L47.573 27.1249L47.4512 26.4734ZM47.9801 26.9757L48.4816 26.7312C48.6176 26.6632 48.7941 26.582 48.9426 26.5281C48.7941 26.5281 48.5902 26.5281 48.441 26.5148L47.8848 26.4734L47.9801 26.9757Z" fill="#DC0D15"/>
<path id="Vector_148" d="M47.1387 28.5486L49.6613 28.4814L49.6746 29.1048L48.766 29.6204C48.5082 29.7697 48.1965 29.9189 47.9113 30.0275V30.0408C48.2371 30.0001 48.5762 29.9728 48.9559 29.9595L49.6879 29.9322L49.702 30.4204L47.1926 30.4884L47.1793 29.9322L48.1418 29.4033C48.4129 29.254 48.7254 29.0915 49.0238 28.9697V28.9556C48.698 28.9829 48.3316 28.9962 47.9246 29.0103L47.1652 29.0369L47.1387 28.5486Z" fill="#DC0D15"/>
<path id="Vector_149" d="M49.499 32.6035C49.499 32.7394 49.4724 33.0238 49.431 33.2816C49.3771 33.5933 49.3091 33.7831 49.1599 33.9324C49.038 34.0816 48.8482 34.1628 48.6177 34.1222C48.4005 34.0816 48.2107 33.9191 48.1568 33.648H48.1427C48.0208 33.8917 47.763 34.055 47.4513 33.987C47.2208 33.9464 47.0716 33.8105 46.9763 33.648C46.8677 33.4581 46.8412 33.1597 46.9224 32.6988C46.963 32.441 47.0169 32.2511 47.0576 32.1425L49.499 32.6035ZM47.356 32.7394C47.3427 32.7933 47.3294 32.848 47.3154 32.9425C47.2747 33.173 47.3294 33.4035 47.5872 33.4581C47.831 33.4988 47.9802 33.3089 48.0208 33.0511L48.0482 32.8745L47.356 32.7394ZM48.4552 32.9425L48.4279 33.1191C48.3732 33.3902 48.4685 33.5667 48.6583 33.5933C48.8482 33.6339 48.9701 33.512 49.0107 33.2816C49.038 33.173 49.038 33.105 49.038 33.0511L48.4552 32.9425Z" fill="#DC0D15"/>
<path id="Vector_150" d="M47.0031 35.1672L46.4469 34.8008L46.6234 34.2859L48.7664 35.7914L48.5359 36.4422L45.918 36.293L46.1078 35.7508L46.7727 35.7914L47.0031 35.1672ZM47.2203 35.8727L47.7766 35.9133C47.925 35.9266 48.1156 35.9406 48.2781 35.9672C48.1422 35.8859 47.9797 35.7914 47.8578 35.7094L47.3961 35.3977L47.2203 35.8727Z" fill="#DC0D15"/>
<path id="Vector_151" d="M47.9115 37.9886L47.6678 38.4495L46.6771 37.9347V37.948C46.7451 38.0425 46.7857 38.1245 46.8404 38.2191L47.3287 39.0738L47.0303 39.6433L46.4467 38.4636L44.792 38.5042L45.0771 37.9613H46.3115L46.1756 37.6628L45.4436 37.2831L45.6873 36.8222L47.9115 37.9886Z" fill="#DC0D15"/>
<path id="Vector_152" d="M44.6426 39.8191L44.2223 39.3035L44.548 38.8691L46.1215 40.9581L45.7004 41.5144L43.2598 40.5785L43.5988 40.1167L44.2223 40.3613L44.6426 39.8191ZM44.6293 40.5511L45.1449 40.7542C45.2941 40.8089 45.4566 40.8902 45.6059 40.9581C45.5105 40.8363 45.3754 40.7003 45.2801 40.5785L44.941 40.1441L44.6293 40.5511Z" fill="#DC0D15"/>
<path id="Vector_153" d="M42.8939 40.9852L44.6432 42.8031L44.1963 43.2367L43.2057 42.9117C42.9213 42.8164 42.6088 42.6805 42.3377 42.5586L42.3244 42.5727C42.5822 42.7891 42.826 43.0195 43.0838 43.2914L43.5994 43.8203L43.2463 44.1594L41.4971 42.3414L41.9041 41.9484L42.9346 42.3008C43.2197 42.3961 43.5588 42.532 43.8432 42.6539V42.6399C43.5994 42.4094 43.3549 42.1656 43.0705 41.8672L42.5416 41.3242L42.8939 40.9852Z" fill="#DC0D15"/>
<path id="Vector_154" d="M42.3646 44.8503L41.9303 45.1488L40.7373 43.4941L39.9779 44.0363L39.7061 43.6433L40.8998 42.8027L42.3646 44.8503Z" fill="#DC0D15"/>
<g id="Clip path group_11">
<mask id="mask10_184_8847" style="mask-type:luminance" maskUnits="userSpaceOnUse" x="38" y="43" width="3" height="4">
<g id="clip11">
<path id="Vector_155" d="M38.5654 43.7997H40.5654V46.3997H38.5654V43.7997Z" fill="white"/>
</g>
</mask>
<g mask="url(#mask10_184_8847)">
<g id="Group_11">
<g id="Clip path group_12">
<mask id="mask11_184_8847" style="mask-type:luminance" maskUnits="userSpaceOnUse" x="-17" y="-5" width="83" height="83">
<g id="clip12">
<path id="Vector_156" d="M-16.2734 24.8861L35.9273 -4.67487L65.4953 47.5369L13.2945 77.0986L-16.2734 24.8861Z" fill="white"/>
</g>
</mask>
<g mask="url(#mask11_184_8847)">
<g id="Group_12">
<path id="Vector_157" d="M38.7324 44.2072L39.1934 43.9462L40.4293 46.1298L39.9691 46.39L38.7324 44.2072Z" fill="#DC0D15"/>
</g>
</g>
</g>
</g>
</g>
</g>
<path id="Vector_158" d="M36.2891 45.434C36.4109 45.3113 36.6688 45.1215 36.9531 44.9996C37.3469 44.8371 37.6719 44.823 37.957 44.9457C38.2422 45.0676 38.4727 45.3254 38.6078 45.6644C38.9203 46.4371 38.5813 47.1019 37.8758 47.3863C37.5906 47.4949 37.3602 47.5355 37.225 47.5223L37.157 47.0613C37.2922 47.0613 37.4688 47.0473 37.6992 46.9527C38.1063 46.7902 38.3094 46.4098 38.1063 45.9082C37.9031 45.434 37.5094 45.2574 37.1164 45.434C37.0078 45.4746 36.9125 45.5285 36.8859 45.5691L37.0891 46.0574L37.4281 45.9215L37.6047 46.3285L36.8039 46.6543L36.2891 45.434ZM38.432 47.8207C38.3914 47.7527 38.3094 47.6848 38.1742 47.7394C38.0383 47.7934 38.025 47.8887 38.0383 47.9832L37.7945 48.0918C37.6992 47.834 37.7539 47.6035 38.0656 47.4676C38.3773 47.3324 38.5813 47.4676 38.6891 47.7121L38.432 47.8207Z" fill="#DC0D15"/>
<g id="Clip path group_13">
<mask id="mask12_184_8847" style="mask-type:luminance" maskUnits="userSpaceOnUse" x="34" y="45" width="3" height="4">
<g id="clip13">
<path id="Vector_159" d="M34.9658 45.4003H36.3658V48.2003H34.9658V45.4003Z" fill="white"/>
</g>
</mask>
<g mask="url(#mask12_184_8847)">
<g id="Group_13">
<g id="Clip path group_14">
<mask id="mask13_184_8847" style="mask-type:luminance" maskUnits="userSpaceOnUse" x="-11" y="-6" width="75" height="75">
<g id="clip14">
<path id="Vector_160" d="M-10.1846 10.8394L47.6607 -5.04498L63.549 52.8136L5.70371 68.698L-10.1846 10.8394Z" fill="white"/>
</g>
</mask>
<g mask="url(#mask13_184_8847)">
<g id="Group_14">
<path id="Vector_161" d="M35.0195 45.6691L35.5297 45.5292L36.1937 47.9488L35.6836 48.0886L35.0195 45.6691Z" fill="#DC0D15"/>
</g>
</g>
</g>
</g>
</g>
</g>
<path id="Vector_162" d="M30.9727 46.9531C30.5789 46.9531 30.2539 47.2781 30.2539 47.6719C30.2539 48.0648 30.5789 48.3906 30.9727 48.3906C31.3656 48.3906 31.6914 48.0648 31.6914 47.6719C31.6914 47.2781 31.3656 46.9531 30.9727 46.9531Z" fill="#DC0D15"/>
<path id="Vector_163" d="M34.2953 36.6047L34.6203 37.0656L35.5703 36.7539L34.9867 37.5539L35.1359 37.7711L35.5703 38.3547L34.6203 38.0563L34.0375 38.8563V37.8664L33.1016 37.5539L34.0375 37.2422V36.2656L34.2953 36.6047Z" fill="#DC0D15"/>
<path id="Vector_164" d="M29.1543 39.6023C28.5848 39.0999 28.2324 38.3679 28.2324 37.5538C28.2324 37.0249 28.3816 36.5367 28.6395 36.1163C28.9238 35.6687 29.3309 35.3031 29.8191 35.0726C29.9277 35.0179 30.0363 34.9773 30.1449 34.9499C30.4027 34.8687 30.6738 34.8281 30.9582 34.8281C31.9215 34.8281 32.7762 35.3296 33.2637 36.0898C32.8707 35.6421 32.2879 35.371 31.6504 35.371C31.3246 35.371 31.0262 35.4382 30.7418 35.5609C30.6465 35.6015 30.5379 35.6554 30.4566 35.7234C30.009 36.0078 29.6699 36.4695 29.5348 36.9984C29.4934 37.1742 29.4668 37.3507 29.4668 37.5406C29.4668 38.0288 29.6293 38.4765 29.9004 38.8429C30.2941 39.3718 30.9316 39.7109 31.6363 39.7109C31.7855 39.7109 31.9215 39.6968 32.0566 39.6703C32.5316 39.5749 32.952 39.3312 33.2637 38.9921C33.0199 39.3851 32.6809 39.6968 32.2879 39.914C31.9348 40.1171 31.5418 40.2257 31.1074 40.2531C31.0668 40.2531 31.0129 40.2531 30.9723 40.2531C30.2535 40.2804 29.6293 40.0226 29.1543 39.6023Z" fill="#DC0D15"/>
<path id="Vector_165" d="M31.1217 31.6C30.2264 30.2305 29.0873 29.0641 27.7576 28.1016C30.1178 25.4836 33.4951 23.9922 37.0209 23.9922C39.2178 23.9922 41.3748 24.575 43.2732 25.6734C42.9068 25.6461 42.5545 25.6328 42.2021 25.6328C37.7131 25.6328 33.5896 27.8711 31.1217 31.6ZM27.2287 27.7484C25.9271 26.9078 24.5162 26.3109 23.0107 25.9719C25.3436 22.5406 29.1959 20.493 33.3459 20.493C36.899 20.493 40.6154 22.1477 42.9748 24.7922C41.2256 23.9648 38.9334 23.3812 37.0076 23.3812C33.2779 23.368 29.7107 24.968 27.2287 27.7484ZM22.3326 25.8367C21.56 25.7008 20.7865 25.6328 20.0412 25.6328C19.5936 25.6328 19.1326 25.6602 18.6709 25.7008C20.4342 20.3031 25.4248 16.668 31.1217 16.668C36.099 16.668 40.6287 19.4891 42.8396 23.9242C40.3709 21.3203 36.9396 19.8414 33.3459 19.8414C28.9381 19.8414 24.8553 22.0391 22.4146 25.7141L22.3326 25.8367Z" fill="#DC0D15"/>
</g>
</g>
<defs>
<clipPath id="clip0_184_8847">
<rect width="60" height="60" fill="white" transform="translate(0.96582)"/>
</clipPath>
</defs>
</svg>
