<svg width="61" height="60" viewBox="0 0 61 60" fill="none" xmlns="http://www.w3.org/2000/svg">
<g id="wfp" clip-path="url(#clip0_184_8779)">
<path id="Vector" d="M35.0107 17.7795C35.2966 17.122 35.6396 16.4932 36.0398 15.8929C36.2399 15.607 36.44 15.4069 36.6401 15.1211C36.5258 15.1211 36.44 15.1497 36.3542 15.2068C36.1542 15.3498 36.0684 15.5785 35.9255 15.6928C35.5824 15.9786 35.5824 16.2359 35.3824 16.3503C35.2394 16.436 35.1251 16.5789 35.0393 16.7219C34.9536 16.8648 34.8678 17.0077 34.8392 17.1792C34.8107 17.265 34.7535 17.1792 34.6106 17.3793C34.439 17.6366 34.3247 17.9224 34.2675 18.2083C34.239 18.294 34.0674 18.3512 33.9531 18.5513C33.8102 18.8371 33.6958 19.1516 33.6387 19.4946C33.6101 19.5804 33.4672 19.6661 33.3528 19.9234C33.2671 20.0949 33.1813 20.295 33.1527 20.4951C33.1241 20.6952 33.0098 20.7238 32.8955 21.0382C32.8383 21.2955 32.7811 21.5527 32.7811 21.81C32.7239 21.9243 32.6668 22.0387 32.581 22.153C32.4667 22.4103 32.4095 22.6675 32.3809 22.9248C32.2666 23.1535 32.1808 23.3822 32.1237 23.6394C32.0665 23.9253 32.0665 24.2111 32.0951 24.5256C31.9807 25.0115 31.9521 25.4975 31.9807 26.012C32.0093 26.2693 32.0379 26.4979 32.0379 26.7552C31.9807 27.4984 31.9521 28.1273 31.9521 28.9848C31.9521 29.528 31.9807 30.0711 32.0665 30.6142C32.1522 31.1859 32.2666 31.6432 32.2666 31.6432H34.1818C34.1532 30.9 34.1532 30.1282 34.2104 29.385C34.2675 28.7276 34.4105 28.0701 34.582 27.4412C34.7535 26.8124 34.9822 26.1835 35.2394 25.5546C35.2394 25.526 35.2394 25.4403 35.1537 25.526C34.9536 25.669 34.7821 25.8691 34.6391 26.0692C34.439 26.4122 34.239 26.7552 34.0674 27.0982C33.8388 27.527 33.7244 27.8986 33.4672 28.4417C33.4672 28.0701 33.4957 27.6985 33.5815 27.3555C33.753 26.4979 34.0674 25.669 34.5534 24.8972C34.7535 24.6113 34.9536 24.3541 35.2108 24.1254C35.4967 23.8681 35.754 23.6394 36.0684 23.3822C35.754 23.2107 35.3252 23.5537 35.2394 23.5823C34.7821 23.668 34.6106 24.0968 34.4676 24.1254C34.2961 24.2111 34.1532 24.3255 34.0389 24.497C33.9245 24.6113 33.8959 24.8114 33.7816 24.8686C33.5815 25.0115 33.4386 25.183 33.3528 25.3831C33.2956 25.4689 33.1527 25.9548 33.0098 25.8977C33.2671 24.3255 33.8388 22.8391 34.7249 21.5241C35.268 20.6666 35.9826 19.9234 36.8116 19.3231C36.9259 19.2373 36.9545 19.2088 36.783 19.2088C35.9255 19.3231 35.8969 19.6947 35.754 19.7233C35.611 19.7805 35.4681 19.8948 35.3538 20.0091C35.1537 20.2092 35.1823 20.3522 35.0965 20.4093C34.9536 20.5237 34.8107 20.638 34.7249 20.8095C34.6677 20.8953 34.582 21.124 34.4962 21.1811C34.2675 21.2955 34.096 21.467 33.9531 21.6957C33.8959 21.8386 33.8102 22.0101 33.753 22.153C33.6387 22.2959 33.4957 22.4103 33.3528 22.5246C33.4957 21.7814 33.7244 21.0668 33.9817 20.3807C34.2675 19.5232 34.6106 18.6371 35.0107 17.7795Z" fill="#5289C3"/>
<path id="Vector_2" d="M36.9541 23.2399C37.6401 21.7248 38.4405 20.2956 39.4124 18.9807C39.5267 18.7806 39.6696 18.6091 39.7554 18.4376C39.8126 18.3518 40.0412 18.0088 40.0984 17.923C40.4128 17.4085 40.5558 17.2656 40.8988 16.7796C40.9845 16.6653 41.0703 16.551 41.0989 16.408C41.1561 16.1222 40.9274 15.9507 40.8702 15.6648C40.813 15.4075 40.8416 15.1217 40.9846 14.8644C41.0703 14.7501 41.1561 14.6072 41.2132 14.4642C41.3562 14.0926 41.299 13.2923 41.4991 13.2637C41.4419 13.6639 41.4419 14.0641 41.4991 14.4357C41.5563 14.8644 41.8421 15.1217 41.9279 15.5791C42.2137 15.5219 42.4996 15.5219 42.7854 15.5505C43.0713 15.5505 43.3285 15.5219 43.5858 15.4075C43.9288 15.2932 44.1861 15.0931 44.5577 15.0074C44.2718 15.2932 43.8431 15.379 43.5 15.6076C43.3571 15.6934 43.2428 15.8077 43.1856 15.9221C43.0427 16.1508 42.9283 16.3509 42.7282 16.4366C42.328 16.6081 42.0136 16.5224 41.5563 16.6081C40.8416 17.3799 40.2413 18.2375 39.7268 19.1522C38.2976 21.5819 37.097 24.126 36.3824 26.6986C36.6396 26.2413 36.8397 25.8125 37.1256 25.3837C37.4114 24.8978 37.7544 24.4404 38.0975 23.9831C38.9264 22.8968 39.7554 21.9249 40.6701 20.9245C41.3847 20.1241 42.2137 19.438 43.1284 18.8663C44.329 18.1231 45.8154 17.58 47.1017 17.8659C47.2733 17.8944 47.4162 17.9516 47.5591 18.0374C46.0727 17.8373 44.5577 18.2946 43.3857 19.2379C42.5281 19.924 41.7563 20.6672 41.0703 21.5247C40.6987 21.9535 40.3557 22.4395 40.0127 22.8968C39.6696 23.3542 39.3266 23.8973 39.0408 24.4118C38.0117 26.1269 37.1827 27.985 36.611 29.9002C36.5825 29.9573 36.5825 30.0145 36.5825 30.0717C36.611 30.0431 36.6396 29.9859 36.6682 29.9287C37.4686 28.6424 38.4119 27.4133 39.6125 26.5557C39.7268 26.47 39.8126 26.3556 39.8697 26.2413C40.0127 25.7268 39.6125 25.4981 40.1556 24.7834C40.2699 24.6119 40.4414 24.5548 40.5558 24.4118C40.7845 24.0688 40.956 23.4685 41.1275 23.297C40.9846 23.6972 40.8702 24.0974 40.7559 24.5262C40.7559 24.955 40.7845 25.3837 40.8416 25.8125C41.1275 25.8697 41.3847 25.9554 41.6706 26.0698C41.985 26.1555 42.328 26.1841 42.6711 26.1269C42.8712 26.0698 43.0998 26.0412 43.2999 26.0412C42.9283 26.2413 42.4138 26.2127 42.0422 26.3842C41.7849 26.5271 41.6992 26.7272 41.3276 26.7844C41.0417 26.8416 40.7559 26.813 40.4986 26.6986C40.3843 26.6129 40.2128 26.5843 40.0698 26.6415C39.6982 26.8416 39.3552 27.0988 39.0979 27.4133C38.3261 28.1851 37.6973 29.0998 37.1827 30.0717C37.0398 30.3575 36.8969 30.6434 36.7826 30.9292C36.7254 31.0722 36.5539 31.4723 36.5539 31.4723H34.6387C34.6387 31.4723 34.6387 30.9292 34.6387 30.7005C34.6673 30.3289 34.7244 29.9573 34.8102 29.5857C34.9245 28.9854 35.0389 28.4709 35.1818 27.8992C35.3247 27.3275 35.4962 26.813 35.6963 26.2699C36.0679 25.3551 36.4967 24.2689 36.9541 23.2399Z" fill="#5289C3"/>
<path id="Vector_3" d="M18.2877 38.275C18.8879 37.789 19.5454 37.3317 20.2028 36.9601C20.4887 36.7885 20.9175 36.5884 21.2605 36.4455C22.6326 35.8452 24.119 35.5022 25.6054 35.4736H37.0109C37.3539 35.4736 37.6969 35.588 37.9542 35.8167C38.1828 36.0453 38.2972 36.3598 38.3544 36.6742C38.3829 36.9315 38.3829 37.2173 38.3258 37.4746C38.2972 37.6747 38.2114 37.8748 38.0971 38.0463C38.0113 38.1606 37.9256 38.275 37.8112 38.3607C37.6397 38.4751 37.411 38.5322 37.211 38.5322H37.1252H23.8903H23.776C22.8898 38.5322 22.0037 38.5894 21.1462 38.7037C20.4887 38.7895 19.8312 38.9038 19.2024 39.0468C18.402 39.2754 17.6302 39.5327 16.8584 39.8471C17.2586 39.2183 17.7445 38.7323 18.2877 38.275Z" fill="#5289C3"/>
<path id="Vector_4" d="M22.2328 33.7591C22.9474 33.2732 23.7192 32.873 24.5196 32.5586C24.9484 32.4156 25.3771 32.2727 25.8059 32.1584C26.2919 32.044 26.8064 31.9583 27.2923 31.9297H37.0398C37.0398 31.9297 37.2399 31.9297 37.3257 31.9583C37.4686 31.9869 37.583 32.044 37.7259 32.1012C37.8974 32.2155 38.0403 32.387 38.1547 32.5586C38.3833 32.9588 38.4691 33.4447 38.3833 33.9021C38.2976 34.4452 37.8974 35.0455 37.3257 35.0455C37.2399 35.0455 37.0398 35.0455 37.0398 35.0455H26.5205L25.6344 35.074C25.1199 35.1026 24.6054 35.1312 24.0908 35.217C23.7192 35.2741 23.319 35.3599 22.9474 35.4456C21.6611 35.7887 20.5177 36.4461 19.3457 36.9607C20.0603 35.7029 21.0608 34.6167 22.2328 33.7591Z" fill="#5289C3"/>
<path id="Vector_5" d="M16.8023 40.3621C18.4888 39.3617 20.5184 38.9615 22.3764 38.9043H22.5193H37.212C38.0982 38.9043 38.4126 39.7904 38.4126 40.4765C38.4126 40.6766 38.384 40.9052 38.2983 41.1053C38.2125 41.3054 38.1267 41.4769 37.9838 41.6485C37.8981 41.7342 37.7837 41.82 37.6408 41.8771C37.4979 41.9057 37.3549 41.9343 37.1834 41.9057H26.3783C26.3783 41.9057 25.8066 41.8771 25.4064 41.8486C25.1205 41.82 24.8919 41.7914 24.5774 41.7342C23.8914 41.5627 23.2339 41.3912 22.5765 41.1339C22.1477 40.991 21.6903 40.9052 21.233 40.8195C20.3468 40.6766 19.4321 40.6194 18.546 40.7052C17.4598 40.7909 16.4021 40.991 15.373 41.334C15.5446 41.0768 16.2878 40.6766 16.8023 40.3621Z" fill="#5289C3"/>
<path id="Vector_6" d="M24.6339 44.907C24.1194 44.7355 23.6621 44.5068 23.2047 44.221C22.633 43.8493 22.3471 43.5349 21.6325 43.2205C20.9751 42.8775 20.3176 42.5916 19.6316 42.3343C19.0884 42.1342 18.5167 41.9913 17.945 41.877C17.1161 41.7341 16.2871 41.6769 16.2871 41.6769C16.3729 41.6197 16.4872 41.5625 16.573 41.534C17.3733 41.2767 18.2023 41.1338 19.0599 41.0766C19.8031 41.0194 20.5749 41.0766 21.2895 41.2195C21.6611 41.2767 22.0327 41.3624 22.3757 41.4768C23.5191 41.8198 24.8626 42.3343 26.0346 42.3343C26.0918 42.3343 26.0918 42.3343 26.0918 42.3343H36.9255C37.2399 42.3343 37.8688 42.4487 38.0975 42.8775C38.4119 43.392 38.4405 44.0209 38.2404 44.564C38.1547 44.7927 38.0403 44.9927 37.8688 45.1643C37.7259 45.2786 37.5258 45.3644 37.3257 45.3929H27.7211C26.6921 45.3929 25.6344 45.2214 24.6339 44.907Z" fill="#5289C3"/>
<path id="Vector_7" d="M28.9218 48.2804C28.6645 47.9945 28.2929 47.5944 27.9499 47.1942C27.5783 46.7654 27.2638 46.2794 27.0352 45.7363H33.3239C33.3239 46.2509 33.2667 46.794 33.1809 47.3085C33.038 48.0803 32.8093 48.8235 32.4377 49.5096C32.4377 50.1098 32.695 50.6815 32.7236 51.2818C32.1805 51.5963 31.6659 51.9393 31.18 52.3681C31.1514 52.3966 31.0942 52.3966 31.0942 52.3109C30.837 51.3676 30.7226 50.5386 30.5225 49.6239C29.9508 49.2237 29.4363 48.7663 28.9218 48.2804Z" fill="#5289C3"/>
<path id="Vector_8" d="M35.4396 47.7659C35.2966 47.4228 35.1251 47.0798 34.925 46.7368C34.8964 46.9655 34.925 47.1084 34.8964 47.3371C34.8679 47.5658 34.7249 47.4514 34.6964 47.3657C34.6106 47.1084 34.5248 46.794 34.4391 46.5367C34.3533 46.2794 34.2962 45.9936 34.2676 45.7363H35.3252C35.3252 45.7363 35.3538 45.7363 35.3824 45.8507C35.4396 46.1079 35.411 46.3652 35.4967 46.6796C35.5825 47.0512 35.7254 47.4228 35.8683 47.7945C35.9827 48.1089 36.1542 48.4519 36.2971 48.7663C36.3257 48.8235 36.3257 48.8807 36.2971 48.9379C36.2685 48.9664 36.2114 48.995 36.1828 48.9664C36.1828 48.9664 36.1828 48.9664 36.1542 48.9379C35.8112 48.5662 35.6111 48.1661 35.4396 47.7659Z" fill="#5289C3"/>
<path id="Vector_9" d="M37.0394 48.5091C36.8679 48.1375 36.6106 47.7087 36.6392 47.2799C36.7536 47.4228 36.8107 47.5372 36.9537 47.6229C37.0394 47.6515 37.1823 47.6229 37.1538 47.5086C37.0966 47.2799 36.9823 47.0798 36.8679 46.7368C36.725 46.2509 36.5821 45.7363 36.5821 45.7363H35.5244C35.5816 46.1079 35.6959 46.4795 35.8388 46.8511C36.0961 47.5086 36.382 48.1375 36.7536 48.7378C37.0108 49.2237 37.2967 49.6811 37.6397 50.1098C37.754 50.2242 38.0399 50.1384 37.9256 49.9383C37.554 49.481 37.2681 48.995 37.0394 48.5091Z" fill="#5289C3"/>
<path id="Vector_10" d="M43.9859 12.3776C43.7573 12.4633 43.5572 12.6348 43.4428 12.8349C43.3571 13.0064 43.2999 13.2351 43.4714 13.378C43.7573 13.6067 44.1003 13.378 44.2146 13.1208C44.329 12.8349 44.3575 12.5205 44.329 12.2061C44.329 12.2061 44.1289 12.2918 43.9859 12.3776Z" fill="#5289C3"/>
<path id="Vector_11" d="M44.2149 13.8634C44.3578 13.6347 44.5579 13.4346 44.7866 13.3203C45.0724 13.1488 45.3583 12.9773 45.5298 12.8629C45.7013 12.7486 45.7585 12.6628 45.7585 12.6628C45.6727 12.6914 45.5869 12.72 45.5012 12.7772C45.0152 13.063 44.4721 13.406 44.272 13.4918C43.9576 13.6061 43.6146 13.6633 43.3001 13.6919C43.2144 13.3775 43.1572 13.0344 43.1286 12.72C43.1286 12.5199 43.1572 12.3484 43.2144 12.1483C43.3287 11.6052 43.3287 11.3193 43.3287 11.3193C43.243 11.4051 43.2144 11.5194 43.2144 11.6338C43.1858 11.8625 43.1572 11.9196 43.1 12.1769C43.0715 12.4342 42.9857 12.6914 42.8142 12.9201C42.5569 13.1774 42.3282 13.6633 42.5283 14.0063C42.6427 14.2064 42.8428 14.1778 42.8999 14.235C42.9571 14.2922 42.9857 14.4065 43.1858 14.4637C43.586 14.6066 44.0148 14.235 44.2149 13.8634Z" fill="#5289C3"/>
<path id="Vector_12" d="M43.7291 14.9785C43.8434 14.7784 44.015 14.6069 44.215 14.4926C44.5581 14.2925 44.8153 14.1496 45.044 14.0352C45.1298 14.0066 45.2155 13.9209 45.2441 13.8351C44.9583 13.9495 44.701 14.0924 44.4437 14.2353C44.1293 14.4354 43.8149 14.5498 43.4718 14.5783C43.3861 14.5783 43.2717 14.5783 43.186 14.5498C43.0431 14.5498 42.8716 14.5498 42.7286 14.5783C42.7 14.4068 42.6429 14.2639 42.5857 14.0924C42.5285 13.9781 42.4714 13.8351 42.4428 13.6922C42.4142 13.5493 42.4142 13.4064 42.4142 13.2634C42.4714 12.9204 42.4999 12.5774 42.5285 12.2344C42.2998 12.6917 42.4142 13.2634 42.1283 13.6065C42.014 13.7494 41.9282 13.8923 41.8425 14.0638C41.6996 14.3497 41.7281 14.7213 41.8997 14.9785C42.014 15.1501 42.2427 15.15 42.2999 15.1786C42.357 15.2072 42.4142 15.4073 42.6429 15.4645C43.0431 15.5502 43.4718 15.3501 43.7291 14.9785Z" fill="#5289C3"/>
<path id="Vector_13" d="M43.8432 23.8974C43.929 23.6973 44.0147 23.4686 44.1291 23.2686C43.8432 23.2971 43.8146 23.3257 43.4144 23.3829C43.3001 23.4115 43.1857 23.4687 43.1 23.5258C42.9285 23.6687 42.8141 23.8688 42.8713 24.0975C42.8999 24.1833 42.9571 24.269 43.0428 24.2976C43.3573 24.3834 43.7003 24.2119 43.8432 23.8974Z" fill="#5289C3"/>
<path id="Vector_14" d="M44.1577 24.4116C44.5293 24.3259 44.9581 24.1544 45.1296 24.2115C44.758 24.383 44.3578 24.4974 43.9576 24.5831C43.6718 24.6975 43.4145 24.869 43.1858 25.0977C42.9571 25.2978 42.6141 25.3549 42.3283 25.212C42.2139 25.1548 42.1568 25.0405 42.1282 24.9262C42.1282 24.869 41.9852 24.7832 41.8995 24.7261C41.8423 24.6403 41.7852 24.5545 41.7852 24.4688C41.7852 23.9543 42.1568 23.7256 42.557 23.4397C42.8428 23.211 43.2144 22.2392 43.4431 22.0391C43.4145 22.3535 42.9857 22.9538 42.8142 23.4111C42.6713 23.7828 42.7285 24.0686 42.6427 24.4402C42.9 24.4688 43.2144 24.526 43.5003 24.526C43.7004 24.4974 43.929 24.4688 44.1577 24.4116Z" fill="#5289C3"/>
<path id="Vector_15" d="M43.786 25.1837C43.5859 25.2123 43.3287 25.2981 43.1572 25.3266C42.5569 25.441 42.271 25.1551 41.7565 25.1551C41.7851 24.5834 41.6136 24.3548 41.7565 23.9831C41.8994 23.6115 42.0423 23.3257 42.1567 23.0398C42.2138 22.9255 42.271 22.7826 42.271 22.6396C42.271 22.6396 42.1281 22.8683 41.6993 23.6687C41.5564 23.9546 41.2991 24.0117 41.0704 24.2976C40.8418 24.5834 40.6417 25.2695 41.1562 25.5267C41.2705 25.5839 41.242 25.7554 41.3277 25.8126C41.6421 26.127 42.3282 26.0984 42.7284 25.7268C43.0428 25.4982 43.4144 25.3266 43.8146 25.2695C43.9575 25.2409 44.0719 25.1837 44.1862 25.1265C44.0147 25.1551 43.9004 25.1551 43.786 25.1837Z" fill="#5289C3"/>
<path id="Vector_16" d="M32.181 21.0104C32.3811 20.353 32.4954 19.6955 32.5812 19.038C32.6955 18.009 32.4097 16.9799 31.7808 16.1795C31.838 16.5226 31.9237 16.8084 31.9809 17.1514C32.0095 17.5802 31.9809 18.0376 31.8665 18.4663C31.7808 18.7808 31.6379 19.0952 31.4949 19.4096C31.2948 19.7813 31.0947 20.1243 30.8089 20.4673C30.0943 21.3534 29.008 23.0685 29.008 23.0685H28.8651C28.8651 22.8398 29.3511 22.1252 29.6083 21.6964C30.18 20.8103 30.5802 20.3244 31.0947 19.524C31.4092 19.038 31.6093 18.4663 31.7236 17.8946C31.8665 16.7798 31.2948 15.4649 30.4373 15.0361C30.6374 15.8651 30.6088 17.0371 30.18 17.523C29.4082 18.352 28.7508 19.2953 28.2648 20.3244C28.2362 20.353 28.1219 20.1529 28.0076 20.0957C27.8932 20.0099 27.9504 19.7527 27.8932 19.5812C27.8646 19.4668 27.8075 19.3811 27.7503 19.2953C27.5788 19.0666 27.4073 19.0666 27.3787 19.0095C27.3501 18.8379 27.2929 18.695 27.2072 18.5521C27.1214 18.4378 26.9213 18.3806 26.8642 18.2662C26.807 18.1519 26.7498 17.8375 26.4926 17.6945C26.3782 17.6374 26.321 17.4373 26.2067 17.3515C26.0066 17.18 25.7493 17.0943 25.4635 17.0943C25.292 16.9513 25.1205 16.8656 24.9204 16.8084C24.6345 16.7512 24.463 16.9513 24.3201 16.8942C23.9199 16.6655 23.434 16.7798 23.1767 17.1514C23.0623 17.2944 22.8337 17.1514 22.5764 17.3515C22.3191 17.5516 22.3477 17.6945 22.2334 17.6945C22.0333 17.7517 21.8618 17.8946 21.776 18.0947C21.7189 18.2377 21.6903 18.3806 21.6617 18.5235C21.6045 18.6664 21.5759 18.8379 21.5473 19.0095C21.5473 19.2095 21.6045 19.2953 21.5759 19.3811C21.5473 19.4668 21.4616 19.6097 21.433 19.7241C21.4044 19.8384 21.433 19.9528 21.4616 20.0671C21.5188 20.1814 21.433 20.2958 21.3758 20.4101C21.3187 20.553 21.2901 20.696 21.2901 20.8675C21.3187 21.0676 21.433 21.1247 21.3472 21.2963C21.1186 21.6393 21.1186 22.0681 21.3472 22.4111C21.4044 22.4968 21.2329 22.6683 21.2043 22.9256C21.2329 23.1543 21.2901 23.3544 21.4044 23.5259C21.4044 23.5831 21.3187 23.5545 21.3187 23.6116C20.6326 22.8398 19.8608 22.0966 19.0604 21.4106C18.5459 21.0104 18.0028 20.6388 17.4311 20.353C15.8875 19.524 14.0866 18.9523 12.4287 19.1524C13.0576 19.6383 13.8294 20.0099 14.4582 20.5816C15.0871 21.1533 15.6017 21.5821 16.1448 22.1538C16.9737 23.0399 17.7455 24.0118 18.4316 25.0123C18.6602 25.3267 18.7746 25.5268 19.0033 25.8699C19.232 26.2129 19.432 26.5273 19.6036 26.8703C20.5469 28.4997 21.2901 29.9861 22.0619 31.644C22.2906 32.1014 22.4621 32.5873 22.6622 33.0447C22.7193 33.159 22.8051 33.0733 22.8623 33.0447C23.1481 32.8732 23.434 32.7589 23.7198 32.6159C23.9485 32.5016 24.1772 32.4444 24.3773 32.3587C24.8918 32.1872 25.4063 32.0442 25.9494 31.9299C26.807 31.8156 27.636 31.7584 28.4935 31.787H31.695C31.6664 30.9008 31.4378 30.0433 31.4092 29.1286C31.3806 28.4139 31.3806 27.6993 31.4092 26.9847C31.4663 24.9266 31.7236 22.9256 32.181 21.0104ZM28.5507 22.554C28.6078 22.7255 28.6936 22.8398 28.6078 23.0399C28.5507 23.24 28.322 23.2686 28.1219 23.3544C27.9218 23.4401 27.636 23.4973 27.493 23.3544C27.3501 23.2115 27.2643 22.8113 27.4644 22.6683C27.7503 22.4397 28.4077 22.1538 28.5507 22.554ZM26.321 26.1271C26.1209 26.3558 25.7779 26.3558 25.4349 26.4416C25.292 26.4701 25.1491 26.3844 25.0919 26.2415C24.9775 26.0128 24.8346 25.7269 25.0919 25.4983C25.3491 25.2696 25.5492 25.3267 25.8065 25.2696C25.9209 25.2124 26.0638 25.2124 26.1781 25.2696C26.4354 25.4411 26.5211 25.7841 26.3782 26.0414C26.3496 26.0985 26.3496 26.0985 26.321 26.1271ZM26.7498 26.9847C26.8356 27.2134 26.7498 27.4992 26.5211 27.6136C26.2067 27.7279 25.7779 27.8994 25.5492 27.7279C25.292 27.5564 25.1205 26.9847 25.4635 26.7846C25.8065 26.4987 26.5783 26.3272 26.7498 26.9847ZM22.8051 19.7241C22.8908 19.4954 23.1767 19.4954 23.4054 19.524C23.6055 19.5812 23.7198 19.7813 23.6912 19.9813C23.6912 20.0099 23.6626 20.0385 23.6626 20.0671C23.5197 20.2672 23.2053 20.2386 22.9766 20.21C22.7479 20.1814 22.7193 19.8956 22.8051 19.7241ZM22.7479 18.9237C22.7479 18.8665 22.8051 18.8379 22.8623 18.8094C23.0338 18.7236 23.2624 18.7236 23.434 18.8094C23.5483 18.8951 23.5769 19.0666 23.4625 19.181C23.4625 19.181 23.4625 19.2095 23.434 19.2095C23.2624 19.3525 23.0052 19.3811 22.8051 19.2667C22.7193 19.181 22.6907 19.038 22.7479 18.9237ZM24.5774 19.3239C24.3487 19.4668 24.0628 19.4954 23.8056 19.4096C23.634 19.2953 23.6055 19.0666 23.7198 18.8951C23.9199 18.6664 24.2343 18.5807 24.5202 18.695C24.7203 18.7808 24.7774 19.0095 24.6917 19.2095C24.6631 19.2381 24.6059 19.2953 24.5774 19.3239ZM24.8632 19.6955C25.0633 19.8384 25.1205 20.0957 24.9775 20.3244C24.7203 20.6102 24.2915 20.696 23.9485 20.4959C23.777 20.3815 23.6912 19.867 24.0342 19.7527C24.2915 19.5812 24.5774 19.5812 24.8632 19.6955ZM22.9194 20.5245C23.1767 20.4101 23.6912 20.3244 23.777 20.696C23.8913 21.2105 23.291 21.2963 22.9766 21.2105C22.7193 21.1247 22.6907 20.6102 22.9194 20.5245ZM22.8908 21.6679C23.1195 21.4392 23.4625 21.3248 23.777 21.4392C23.9485 21.4964 24.0342 21.6964 24.0342 21.9537C24.0342 22.0681 23.9485 22.1824 23.8627 22.211C23.634 22.2967 23.4054 22.3539 23.1767 22.3253C22.948 22.2681 22.8051 22.0395 22.8623 21.8108C22.8337 21.7536 22.8623 21.725 22.8908 21.6679ZM23.0338 22.7255C23.291 22.5254 23.6055 22.4682 23.9199 22.5254C24.0914 22.554 24.1772 22.7255 24.2057 22.9256C24.2629 23.4687 23.5483 23.5545 23.2053 23.4401C22.9766 23.2972 22.8908 22.9828 23.0338 22.7541V22.7255ZM24.0914 21.3534C23.9199 20.8103 24.6059 20.6102 25.0061 20.7246C25.292 20.7817 25.3777 21.3248 25.1205 21.4964C24.806 21.6964 24.2343 21.7536 24.0914 21.3534ZM26.8927 21.9823C26.7212 22.2681 26.2067 22.2967 25.978 22.2681C25.8065 22.2396 25.6922 21.9823 25.6922 21.7536C25.6922 21.6679 25.7208 21.5535 25.8065 21.5249C26.0638 21.382 26.3496 21.2963 26.6355 21.3248C26.8927 21.4106 27.0357 21.6679 26.9499 21.8965C26.9213 21.9251 26.8927 21.9537 26.8927 21.9823ZM27.0357 22.554C27.1786 22.7255 27.1786 22.9828 27.0643 23.1543C26.9213 23.3544 26.4068 23.4401 26.1781 23.383C26.0352 23.3544 25.978 23.1829 25.9494 23.0685C25.8923 22.9256 25.9208 22.7541 26.0352 22.6398C26.2353 22.4968 26.4926 22.4111 26.7498 22.4682C26.8356 22.4111 26.9499 22.4682 27.0357 22.554ZM26.6355 20.8675C26.464 21.1533 25.7208 21.3248 25.5492 21.039C25.4349 20.8389 25.3491 20.553 25.5778 20.4101C25.8065 20.2672 26.0924 20.1814 26.3782 20.2386C26.6069 20.2958 26.7498 20.5816 26.6355 20.8675C26.6641 20.8389 26.6355 20.8389 26.6355 20.8675ZM26.1209 19.9242C26.0066 20.0099 25.8351 20.0957 25.6922 20.1243C25.4635 20.1814 25.2634 20.0671 25.1776 19.8384C25.1776 19.8098 25.1776 19.8098 25.1776 19.7812C25.1205 19.3811 25.5492 19.3239 25.8351 19.2667C26.0066 19.2381 26.1781 19.3525 26.2067 19.524C26.2353 19.6955 26.2067 19.8384 26.1209 19.9242ZM24.4058 22.0109C24.7203 21.8394 25.3777 21.6107 25.5207 22.0966C25.5778 22.2967 25.5778 22.554 25.4063 22.6398C25.1491 22.7827 24.7489 22.9256 24.463 22.7255C24.1772 22.5254 24.2057 22.1252 24.4058 22.0109ZM24.6631 23.1543C24.9775 22.9256 25.6064 22.7827 25.7779 23.2686C25.8351 23.383 25.8351 23.5259 25.7779 23.6402C25.6064 23.9261 25.1491 24.0118 24.8632 23.9547C24.6059 23.8689 24.463 23.6116 24.5488 23.3544C24.5488 23.2686 24.6059 23.1829 24.6631 23.1543ZM24.9204 24.2977C25.1776 24.1548 25.5778 24.0118 25.8637 24.1833C26.0352 24.3263 26.0924 24.555 26.0352 24.755C25.8351 25.0981 25.3206 25.1552 25.0061 25.0695C24.7774 24.9551 24.6917 24.6407 24.806 24.412C24.806 24.3549 24.8632 24.2977 24.9204 24.2977ZM26.1781 24.2691C26.1209 24.0976 26.0638 23.8689 26.1781 23.7546C26.4354 23.5545 27.0357 23.3544 27.2643 23.6688C27.4073 23.8975 27.3501 24.1833 27.1214 24.3263C26.8642 24.4692 26.3496 24.6407 26.1781 24.2691ZM28.0076 21.2391C28.1219 21.2391 28.2362 21.382 28.322 21.5535C28.3792 21.725 28.3506 21.8965 28.2648 22.0395C28.1219 22.1538 27.636 22.4397 27.3215 22.2681C27.1786 22.1538 27.0928 22.0109 27.0928 21.8108C27.0357 21.382 27.6645 21.2105 28.0076 21.2391ZM27.8646 20.5245C27.9504 20.6674 27.9504 20.8103 27.8932 20.9532C27.6931 21.1819 27.3787 21.2963 27.0643 21.2105C26.8642 21.0962 26.8356 20.8389 26.9499 20.6388C27.15 20.4101 27.4359 20.3244 27.7217 20.3815C27.7789 20.3815 27.8075 20.4673 27.8646 20.5245ZM27.3215 19.3525C27.5788 19.3811 27.636 19.7527 27.5788 19.8956C27.5216 20.0099 27.4359 20.0957 27.3215 20.1529C27.15 20.2672 26.9213 20.2672 26.7212 20.21C26.5497 20.0957 26.4926 19.867 26.5783 19.6955C26.7498 19.4382 27.0357 19.2953 27.3215 19.3525ZM27.0357 18.8379C27.0928 19.038 26.9499 19.1524 26.7784 19.2381C26.6069 19.3239 26.3782 19.4096 26.2639 19.2953C26.1209 19.181 26.0638 18.9523 26.2067 18.8094L26.2353 18.7808C26.464 18.5521 26.8642 18.3806 27.0357 18.8379ZM26.3496 17.9518C26.464 17.9518 26.5211 18.0376 26.5497 18.1519C26.5783 18.2662 26.5211 18.3806 26.4354 18.4663C26.321 18.5521 26.1781 18.5807 26.0352 18.6093C25.8637 18.6093 25.7493 18.4663 25.7779 18.2948C25.7779 18.2662 25.7779 18.2377 25.8065 18.2091C25.9209 18.009 26.1209 17.9232 26.3496 17.9518ZM25.9209 17.3801C26.0352 17.4087 26.0924 17.4944 26.0638 17.6088V17.6374C26.0066 17.7231 25.9494 17.7803 25.8637 17.8089C25.6922 17.9232 25.5492 17.8661 25.4921 17.7517C25.3777 17.523 25.7208 17.2944 25.9209 17.3801ZM25.6922 18.5235C25.8351 18.6378 25.8637 18.8379 25.7779 18.9809C25.635 19.1238 25.4635 19.2095 25.292 19.2095C25.1491 19.2381 25.0061 19.1524 24.949 19.0095C24.9204 18.8951 24.9204 18.7236 25.0061 18.6378C25.1491 18.4092 25.4349 18.3806 25.6922 18.5235ZM25.4063 17.8375C25.5207 18.009 25.3491 18.1805 25.2634 18.2377C25.0919 18.352 24.8346 18.4092 24.7203 18.2377C24.6345 18.0947 24.6917 17.8946 24.8346 17.8089C24.8632 17.8089 24.8632 17.7803 24.8918 17.7803C25.0347 17.6945 25.2348 17.5802 25.3777 17.8375H25.4063ZM24.4344 17.2658C24.5202 17.0657 24.7774 16.9513 24.9775 17.0371C25.0347 17.0657 25.0919 17.1228 25.1205 17.2086C25.1491 17.3515 25.0919 17.4944 24.9775 17.5516C24.8632 17.666 24.6631 17.6945 24.5202 17.6374C24.3773 17.5802 24.3201 17.4373 24.3773 17.2944V17.2658H24.4344ZM24.5202 18.1233C24.4916 18.2662 24.3487 18.3806 24.2057 18.4092C24.0342 18.4378 23.8056 18.4663 23.6912 18.352C23.5769 18.2662 23.5769 18.1233 23.634 18.009C23.777 17.8089 24.0342 17.7231 24.2915 17.7517C24.4344 17.7803 24.5488 17.9518 24.5202 18.1233ZM23.4625 17.2944C23.5483 17.0657 23.8056 16.9227 24.0342 17.0085C24.1772 17.0943 24.2343 17.2658 24.1486 17.3801C24.12 17.4087 24.12 17.4373 24.0914 17.4659C24.0057 17.5516 23.9199 17.5802 23.8056 17.6088C23.5769 17.666 23.3482 17.5516 23.4625 17.2944ZM23.3196 18.5235C23.1195 18.5807 22.8051 18.6093 22.7479 18.3806C22.6336 18.009 23.0909 17.9518 23.3482 18.0376C23.4625 18.1233 23.5197 18.2662 23.434 18.4092C23.4054 18.4663 23.3482 18.4949 23.3196 18.5235ZM22.7193 17.5802C22.7479 17.523 22.8051 17.4659 22.8623 17.4373C22.9766 17.4087 23.0909 17.4087 23.1767 17.4373C23.3768 17.523 23.3482 17.7517 23.1481 17.8375C23.0623 17.8661 22.948 17.8946 22.8337 17.8661C22.7193 17.8375 22.6336 17.7517 22.6622 17.6088C22.6622 17.5802 22.6622 17.5802 22.6907 17.5516L22.7193 17.5802ZM22.119 18.009C22.262 17.9518 22.4335 17.9804 22.5478 18.0661C22.6907 18.2091 22.5764 18.4378 22.3191 18.4378C22.2334 18.4378 22.1476 18.4092 22.0619 18.3806C21.9761 18.3234 21.9475 18.1805 22.0047 18.0661C22.0333 18.0376 22.0333 18.009 22.0619 18.009H22.119ZM21.9475 18.6664C22.119 18.6093 22.3191 18.6093 22.4621 18.695C22.5478 18.7522 22.605 18.8379 22.5764 18.9523C22.5478 19.0666 22.4049 19.1524 22.2334 19.1524C22.0905 19.1524 21.9189 19.1524 21.8332 19.0095C21.7474 18.8951 21.776 18.7236 21.8904 18.6378L21.9475 18.6664ZM22.5192 19.4668C22.605 19.4954 22.6336 19.5812 22.6622 19.6383C22.6907 19.8384 22.6622 20.0385 22.4621 20.0671C22.1762 20.1243 21.776 20.1243 21.776 19.7527C21.7474 19.3239 22.1762 19.3239 22.5192 19.4668ZM21.7188 20.353C21.9761 20.2386 22.4049 20.21 22.5764 20.4673C22.6907 20.6388 22.6622 20.9532 22.4621 21.0104C22.262 21.0676 21.7188 21.1533 21.5759 20.8389C21.4902 20.6674 21.5473 20.4673 21.7188 20.353ZM21.5473 21.4106C21.776 21.1819 22.0905 21.2963 22.3763 21.3248C22.4335 21.3248 22.4906 21.3534 22.5478 21.4106C22.7193 21.5821 22.7479 21.868 22.5764 22.0395L22.5478 22.0681C22.2906 22.2681 21.9761 22.1252 21.6903 22.1252C21.6045 22.0966 21.5473 22.0395 21.4902 21.9537C21.4044 21.7822 21.433 21.5821 21.5473 21.4106ZM21.5473 22.6683C21.6903 22.3253 22.262 22.3253 22.5478 22.4682C22.7479 22.6112 22.8051 22.9256 22.6622 23.1257C22.6336 23.1543 22.605 23.2115 22.5478 23.24C22.2906 23.3544 22.0047 23.3544 21.7474 23.2972C21.4616 23.24 21.433 22.897 21.5473 22.6683ZM21.7474 24.1262C21.6331 24.0118 21.6617 23.8403 21.776 23.726C21.8046 23.6974 21.8046 23.6974 21.8332 23.6688C22.119 23.5545 22.4335 23.5259 22.7193 23.6116C22.8908 23.6688 22.9766 23.8975 22.948 24.1548C22.948 24.2691 22.9194 24.3834 22.8623 24.412C22.6336 24.5264 22.3763 24.555 22.119 24.4978C21.9189 24.4692 21.8618 24.2405 21.7474 24.1262ZM22.9194 25.5554C22.6907 25.3553 22.5192 25.1267 22.4049 24.8694C22.3477 24.8122 22.4049 24.7836 22.4335 24.7836C22.8623 24.6693 23.1767 24.8694 23.1195 25.3553C23.0909 25.4411 23.0338 25.6412 22.9194 25.5554ZM23.2053 23.9833C23.2339 23.8689 23.3482 23.8117 23.4625 23.7832C23.7484 23.726 24.0628 23.6116 24.3201 23.7832C24.4344 23.8403 24.4344 23.9261 24.4344 24.069C24.463 24.2691 24.4344 24.4406 24.2915 24.5264C24.0342 24.6693 23.7198 24.6979 23.434 24.6407C23.1767 24.555 23.1481 24.2119 23.2053 23.9833ZM23.5483 25.0123C23.8913 24.7836 24.5488 24.6121 24.6631 25.241C24.7203 25.4411 24.6059 25.6698 24.4058 25.7555C24.1486 25.8699 23.8913 25.8984 23.6055 25.8413C23.3768 25.6984 23.291 25.4125 23.434 25.1838C23.4911 25.0981 23.5197 25.0409 23.5483 25.0123ZM23.4625 26.4416C23.434 26.3844 23.4054 26.2701 23.434 26.2129C23.7198 26.0414 24.0628 25.9556 24.4058 26.0128C24.806 26.0414 24.8918 26.413 24.8346 26.7274C24.7489 27.1562 24.12 27.2134 23.9485 27.1562C23.777 27.099 23.6626 26.6988 23.4625 26.4416ZM24.2343 27.6993C24.2057 27.6421 24.12 27.4706 24.1772 27.442C24.6917 27.2705 25.0919 27.2705 25.1776 27.8136C25.2634 28.2138 24.9775 28.5569 24.6059 28.4139C24.4916 28.3568 24.3773 27.9566 24.2343 27.6993ZM25.292 29.6431C25.0061 29.4144 24.9775 29.0142 24.7774 28.7284C24.9775 28.5854 25.292 28.6426 25.4349 28.8427C25.4349 28.8713 25.4635 28.8713 25.4635 28.8999C25.5492 29.1286 25.6064 29.443 25.4063 29.5859C25.3777 29.6145 25.3206 29.6717 25.292 29.6431ZM25.7208 30.6436C25.6064 30.5864 25.6064 30.4149 25.5492 30.3291C25.4921 30.2148 25.4063 30.1005 25.4349 29.9575C25.6636 30.1005 25.7779 30.3863 25.7208 30.6436ZM26.2639 29.8432C26.2353 30.0147 26.1781 30.1576 26.1209 30.3291C26.0924 30.4149 26.0352 30.3005 26.0352 30.3005C25.9208 30.0719 25.8923 29.8146 25.9494 29.5573C26.0352 29.4144 26.1781 29.3001 26.3496 29.3001C26.3496 29.5002 26.321 29.6717 26.2639 29.8432ZM26.7212 28.2138C26.6355 28.4425 26.6069 28.614 26.5211 28.8141C26.4354 29.0142 26.0924 29.0714 25.8923 29.0142C25.6064 28.9285 25.3777 28.2996 25.6922 28.0709C25.9209 27.928 26.2067 27.8136 26.4926 27.8136C26.5783 27.8136 26.6641 27.8136 26.7498 27.8422C26.807 27.9566 26.7784 28.0423 26.7212 28.2138ZM27.15 26.7846C27.0643 26.8989 26.8642 26.4987 26.8356 26.3272C26.7498 25.8127 27.2072 25.6698 27.6074 25.6698C27.5502 26.07 27.3787 26.4701 27.15 26.7846ZM27.7789 25.1838C27.6645 25.4983 27.3215 25.5268 27.0357 25.584C26.9213 25.584 26.8356 25.584 26.7498 25.4983C26.6069 25.3839 26.5211 25.1838 26.5497 25.0123C26.5783 24.8694 26.6641 24.755 26.807 24.6979C27.0357 24.6121 27.3215 24.4406 27.5788 24.5835C27.7503 24.7265 27.836 24.9837 27.7789 25.1838ZM28.7508 23.6688C28.5793 23.9547 28.4077 24.2119 28.2362 24.4692C28.1505 24.555 27.979 24.555 27.8932 24.4692C27.8646 24.4406 27.8646 24.4406 27.8646 24.412C27.7503 24.2405 27.6074 24.0404 27.7217 23.8689C27.979 23.5831 28.3506 23.4401 28.7222 23.4973C28.6936 23.4687 28.8079 23.5545 28.7508 23.6688Z" fill="#5289C3"/>
<path id="Vector_17" d="M10.999 13.6351C10.5131 14.0638 10.1415 14.5784 9.85562 15.1215C9.56977 15.6074 9.39826 16.122 9.3125 16.6651C10.5417 16.1791 11.5707 15.2358 12.4854 14.1496C13.1715 13.3492 13.686 12.3202 14.3721 11.5198C13.1143 11.9771 11.9423 12.6918 10.999 13.6351Z" fill="#5289C3"/>
<path id="Vector_18" d="M7.42638 15.3214C7.91233 14.4925 8.5412 13.7207 9.25582 13.0918C8.94139 13.8064 8.5412 14.521 8.39827 15.3786C8.11242 17.0937 7.88374 18.2943 7.59789 19.8379C8.36969 19.2948 9.19865 18.4086 9.99903 17.8083C10.6279 17.351 11.2854 17.0365 11.9142 16.5792C12.2573 16.2933 12.6003 15.9789 12.8861 15.6359C12.5145 17.2652 11.0853 18.8946 10.0562 19.6664C8.76988 20.6382 8.31252 20.7812 6.25439 22.8679C6.02571 20.3238 6.08288 17.6368 7.42638 15.3214Z" fill="#5289C3"/>
<path id="Vector_19" d="M3.25257 23.8975C3.33833 22.6398 3.50984 21.4106 3.82427 20.1815C4.05295 19.2668 4.5389 17.8947 5.25353 17.3516C5.16777 17.7232 5.1106 18.1234 5.08202 18.5235C4.93909 19.8956 5.19636 21.4964 5.22494 22.8971C5.25353 23.4973 5.22494 24.1262 5.13919 24.7265C5.08202 25.2124 5.08202 25.727 5.1106 26.2129C5.36787 25.9271 5.59655 25.6126 5.79664 25.2696C6.22542 24.5264 6.73995 23.8118 7.31165 23.1829C8.05486 22.4111 8.85524 21.6965 9.74138 21.0962C9.54128 21.6393 9.28402 22.1824 8.96958 22.6684C8.71232 23.1257 8.59798 23.5259 7.99769 24.5264C7.14014 25.9271 6.76853 26.1272 5.82523 27.6422C5.62513 27.9566 4.79617 29.2144 4.59607 29.586C4.1673 28.6712 3.99578 27.8709 3.45267 26.3844C3.22399 25.5841 3.13823 24.7551 3.25257 23.8975Z" fill="#5289C3"/>
<path id="Vector_20" d="M1.93769 30.8719C1.48033 29.6141 1.1659 28.2706 1.02297 26.9271C0.880048 25.9838 0.965803 25.0405 1.25165 24.1258C1.33741 24.3259 1.48033 24.8404 1.50892 24.8976C1.68043 25.5265 1.88052 26.1553 2.13779 26.7556C2.39506 27.2987 2.68091 27.8133 2.99534 28.3278C3.28119 28.8709 3.50987 29.4426 3.73855 30.0143C4.39601 31.6437 4.45318 33.1873 4.71044 33.3588C4.85337 33.0443 4.93912 32.7299 4.96771 32.3869C5.1678 30.5574 5.39648 28.9281 7.68329 26.7842C7.88338 27.4131 7.79763 28.5851 7.6547 29.2139C7.45461 30.3859 7.083 31.5293 6.53989 32.587C6.22545 33.3016 5.79667 34.3307 5.68233 34.6737C5.3679 35.5598 5.28214 36.0172 5.08205 36.5603C4.05299 34.788 2.70949 32.9014 1.93769 30.8719Z" fill="#5289C3"/>
<path id="Vector_21" d="M3.70955 39.1616C3.08068 38.3041 2.56615 37.3894 2.16596 36.4175C1.82294 35.6743 1.53709 34.8739 1.36558 34.0449C1.22265 33.5876 1.19407 33.073 1.25124 32.5871C1.85152 33.6733 2.25172 34.9025 3.0521 35.7886C3.68097 36.5032 4.28125 37.1035 4.7672 37.7324C5.53899 38.6757 6.13928 39.5332 6.85391 40.5051C6.93966 39.9048 6.91108 39.3331 6.82532 38.7329C6.71098 37.7324 6.73957 36.7033 6.96825 35.7028C7.16834 34.5594 7.45419 33.4446 7.85438 32.3584C8.42608 33.4732 8.42608 34.7595 8.56901 35.9315C8.85486 38.2183 8.14023 40.9625 7.99731 42.1059C7.96872 42.5633 7.99731 42.992 8.02589 43.4208C6.99683 42.5918 5.99636 41.7343 5.08163 40.791C4.59569 40.2765 4.13833 39.7333 3.70955 39.1616Z" fill="#5289C3"/>
<path id="Vector_22" d="M7.76892 47.5659C7.28297 47.2229 5.96806 46.2224 5.33919 45.4221C4.42447 44.2787 4.22437 43.7927 3.62409 42.4492C3.39541 41.9919 3.25248 41.5059 3.19531 41.02C5.1391 43.3639 6.91137 43.7356 8.7694 45.6793C9.45544 46.394 10.1415 47.08 10.5131 47.423C10.6846 47.5945 10.9133 47.7089 11.1705 47.766C11.142 47.4802 11.0848 47.1658 10.9419 46.9085C9.7127 44.5359 9.45544 42.049 9.65553 39.3906C10.0843 39.9623 10.4559 40.5912 10.7703 41.2487C11.0562 41.7918 11.3135 42.3349 11.5421 42.9066C12.5998 45.565 12.8856 48.6236 13.5431 50.1672C11.5136 49.4526 9.9128 49.1095 7.76892 47.5659Z" fill="#5289C3"/>
<path id="Vector_23" d="M16.1162 53.7967C15.373 53.8539 14.6584 53.8253 13.9152 53.7395C10.9995 53.2822 8.31251 51.1669 6.94043 48.8515C7.94091 49.509 9.02714 50.0521 10.142 50.4808C11.1138 50.8239 12.0286 50.9096 13.6293 51.367C14.6012 51.6528 15.5731 52.0244 15.8875 52.1674C16.9738 52.5676 17.4311 52.4818 17.4311 52.4818C17.4311 52.4818 17.4311 52.3103 17.031 51.8815C16.2306 50.9954 15.9447 50.7953 15.2587 50.1378C14.8871 49.6805 14.5726 49.1945 14.2868 48.6514C13.5722 47.2221 13.4864 46.1073 12.8575 44.5352C15.2301 45.9358 16.4021 47.851 17.6598 50.2807C18.0314 51.024 18.4888 51.7386 19.0319 52.3675C19.3463 52.6819 19.8037 53.1678 19.8037 53.1678C19.8037 53.1678 19.4607 53.2536 18.4316 53.3965C17.9743 53.4251 17.0024 53.7395 16.1162 53.7967Z" fill="#5289C3"/>
<path id="Vector_24" d="M27.6066 53.9976C28.8072 54.1977 29.9792 54.4836 31.1226 54.9123C31.4942 55.0553 31.8658 55.2268 32.2088 55.4269C32.8949 55.7699 33.5523 56.1415 34.1812 56.5703C35.296 57.3421 36.4966 58.171 37.5828 59.4288C37.6114 59.4574 37.7829 59.6289 37.6686 59.7432C37.4685 59.9147 36.9254 60.1434 36.7538 60.0005C35.7534 59.1143 35.8105 58.8285 34.61 57.7423C34.1812 57.3707 33.7524 57.0276 33.2665 56.6846C32.6948 56.2844 32.0945 55.9128 31.4656 55.5984C30.8653 55.3411 30.2365 55.2268 29.579 55.2554C29.3503 55.2554 28.1212 55.2268 27.8067 55.2554C25.3484 55.4269 25.4628 55.6556 24.0621 56.0272C22.8615 56.3416 21.6324 56.5703 20.4032 56.7418C19.2026 56.9133 18.0021 56.9419 16.8015 56.799C15.1721 56.6274 13.4285 56.1701 12.085 55.3411C13.2855 55.3697 14.5433 55.5984 15.7438 55.5126C16.3727 55.484 17.0016 55.3697 17.6305 55.2268C18.7453 54.8838 19.3741 54.7694 20.5461 54.4264C21.5466 54.1691 22.5757 54.0262 23.6047 53.9405C24.9482 53.7404 26.2917 53.7689 27.6066 53.9976Z" fill="#5289C3"/>
<path id="Vector_25" d="M50.1035 13.6351C50.5894 14.0638 50.9611 14.5784 51.2469 15.1215C51.5328 15.6074 51.7043 16.122 51.79 16.6651C50.5323 16.1791 49.5318 15.2358 48.6171 14.1496C47.931 13.3492 47.4165 12.3202 46.7305 11.5198C47.9882 11.9771 49.1602 12.6918 50.1035 13.6351Z" fill="#5289C3"/>
<path id="Vector_26" d="M53.6765 15.3216C53.1906 14.4926 52.5617 13.7208 51.8471 13.0919C52.1615 13.8637 52.6475 14.8356 52.7046 15.3787C52.8762 17.0938 53.2192 18.2944 53.505 19.838C52.7332 19.2949 51.9043 18.4087 51.1039 17.8085C50.475 17.3511 49.8461 17.0367 49.1887 16.5793C48.8457 16.2934 48.5026 15.979 48.2168 15.636C48.617 17.2653 50.0177 18.8947 51.0467 19.6665C52.333 20.6384 52.7904 20.7813 54.8485 22.868C55.0772 20.3239 55.0486 17.6369 53.6765 15.3216Z" fill="#5289C3"/>
<path id="Vector_27" d="M57.8785 23.8975C57.7927 22.6398 57.6212 21.4106 57.3068 20.1815C57.0781 19.2668 56.5921 17.8947 55.8775 17.3516C55.9633 17.7232 56.0204 18.1234 56.049 18.5235C56.1919 19.8956 55.9347 21.4964 55.8775 22.8971C55.8489 23.4973 55.8775 24.1262 55.9633 24.7265C56.0204 25.2124 56.0204 25.727 55.9918 26.2129C55.7346 25.9271 55.5059 25.6126 55.3058 25.2696C54.5912 24.1262 54.3625 23.8118 53.7908 23.1829C53.0762 22.4111 52.2472 21.6965 51.3896 21.0962C51.5897 21.6393 51.847 22.1824 52.1614 22.6684C52.4187 23.1257 52.5331 23.5259 53.1333 24.5264C53.9909 25.9271 54.3625 26.1272 55.3058 27.6422C55.5059 27.9566 56.3349 29.2144 56.535 29.586C56.9637 28.6712 57.1352 27.8709 57.6784 26.3844C57.8785 25.5841 57.9642 24.7551 57.8785 23.8975Z" fill="#5289C3"/>
<path id="Vector_28" d="M59.1654 30.872C59.6514 29.6143 59.9372 28.2708 60.0801 26.9273C60.1945 25.984 60.1087 25.0407 59.8229 24.126C59.7371 24.3261 59.5656 24.8406 59.5656 24.8978C59.3941 25.5266 59.194 26.1555 58.9367 26.7558C58.6795 27.2989 58.3936 27.8134 58.0792 28.328C57.7933 28.8711 57.5646 29.4428 57.336 30.0145C56.6785 31.6438 56.6213 33.1874 56.3641 33.3589C56.2211 33.0445 56.1354 32.7301 56.1068 32.3871C55.9067 30.5576 55.678 28.9283 53.3912 26.7844C53.1911 27.4133 53.2769 28.5852 53.4198 29.2141C53.6199 30.3861 53.9915 31.5295 54.5346 32.5871C54.8491 33.3018 55.2778 34.3308 55.3922 34.6739C55.7066 35.56 55.7924 36.0174 55.9925 36.5605C57.0501 34.7882 58.3936 32.9016 59.1654 30.872Z" fill="#5289C3"/>
<path id="Vector_29" d="M57.3932 39.1616C58.022 38.3041 58.5366 37.3894 58.9368 36.4175C59.3084 35.6743 59.5656 34.8739 59.7372 34.0449C59.8801 33.5876 59.9087 33.073 59.8515 32.5871C59.2512 33.6733 58.8224 34.9025 58.0506 35.7886C57.4218 36.5032 56.8215 37.1035 56.3355 37.7324C55.5637 38.6757 54.9634 39.5332 54.2488 40.5051C54.1631 39.9048 54.1917 39.3331 54.2774 38.7329C54.3917 37.7324 54.3632 36.7033 54.1345 35.7028C53.9344 34.5594 53.6485 33.4446 53.2483 32.3584C52.6766 33.4732 52.6766 34.7595 52.5337 35.9315C52.2479 38.2183 52.9911 40.9625 53.1054 42.1059C53.134 42.5633 53.1054 42.992 53.0768 43.4208C54.1059 42.5918 55.1064 41.7343 56.0211 40.791C56.507 40.2765 56.9644 39.7333 57.3932 39.1616Z" fill="#5289C3"/>
<path id="Vector_30" d="M53.3337 47.5659C53.8197 47.2229 55.1346 46.2224 55.7635 45.4221C56.6782 44.2787 56.8783 43.7927 57.45 42.4492C57.6787 41.9919 57.8216 41.5059 57.8788 41.02C55.935 43.3639 54.1627 43.7356 52.3047 45.6793C51.6186 46.394 50.9326 47.08 50.561 47.423C50.3895 47.5945 50.1608 47.7089 49.9321 47.766C49.9607 47.4802 50.0179 47.1658 50.1608 46.9085C51.4186 44.5359 51.6472 42.049 51.4471 39.3906C51.0184 39.9623 50.6468 40.5912 50.3323 41.2487C50.0465 41.7918 49.7892 42.3349 49.5605 42.9066C48.5029 45.565 48.217 48.6236 47.5596 50.1672C49.5891 49.4526 51.1899 49.1095 53.3337 47.5659Z" fill="#5289C3"/>
<path id="Vector_31" d="M45.0159 53.7967C45.7591 53.8539 46.4737 53.8253 47.2169 53.7395C50.1326 53.2822 52.8196 51.1669 54.1917 48.8515C53.1912 49.509 52.1049 50.0521 50.9901 50.4808C50.0182 50.8239 49.1035 50.9096 47.5028 51.367C46.5309 51.6528 45.559 52.0244 45.2445 52.1674C44.1583 52.5676 43.7009 52.4818 43.7009 52.4818C43.7009 52.4818 43.7009 52.3103 44.1011 51.8815C44.9015 50.9954 45.1874 50.7953 45.8448 50.1378C46.2164 49.6805 46.5309 49.1945 46.8167 48.6514C47.5313 47.2221 47.6171 46.1073 48.2746 44.5352C45.902 45.9358 44.73 47.851 43.4723 50.2807C43.1007 51.024 42.6433 51.7386 42.0716 52.3675C41.7572 52.6819 41.2998 53.1678 41.2998 53.1678C41.2998 53.1678 41.6428 53.2536 42.6719 53.3965C43.1007 53.4251 44.1011 53.7395 45.0159 53.7967Z" fill="#5289C3"/>
<path id="Vector_32" d="M33.4951 53.9976C32.2945 54.1977 31.1225 54.4836 30.0077 54.9123C29.6361 55.0553 29.2645 55.2268 28.9215 55.4269C28.2354 55.7699 27.578 56.1415 26.9491 56.5703C25.8343 57.3421 24.6337 58.171 23.5475 59.4288C23.5189 59.4574 23.3474 59.6289 23.4617 59.7432C23.6618 59.9147 24.2049 60.1434 24.3764 60.0005C25.3769 59.1143 25.3198 58.8285 26.5203 57.7423C26.9491 57.3707 27.3779 57.0276 27.8638 56.6846C28.4355 56.2844 29.0358 55.9128 29.6647 55.5984C30.265 55.3697 30.8938 55.2268 31.5513 55.2554C31.78 55.2554 33.0091 55.2268 33.295 55.2554C35.7533 55.4269 35.639 55.6556 37.0396 56.0272C38.2402 56.3416 39.4693 56.5703 40.6985 56.7418C41.8991 56.9133 43.0997 56.9419 44.3002 56.799C45.901 56.6274 47.6733 56.1701 48.9882 55.3411C47.7876 55.3697 46.5299 55.5984 45.3293 55.5126C44.7004 55.484 44.0715 55.3697 43.4427 55.2268C42.3279 54.8838 41.699 54.7694 40.527 54.4264C39.5265 54.1691 38.4975 54.0262 37.4684 53.9405C36.1821 53.7404 34.81 53.7689 33.4951 53.9976Z" fill="#5289C3"/>
<path id="Vector_33" d="M29.0936 0L26.8926 8.20391H24.5486L23.0622 2.8585L21.6329 8.20391H19.2889L17.0879 0H19.2889L20.5467 5.65984L22.0617 0H24.177L25.6062 5.65984L26.9211 0H29.0936Z" fill="#5289C3"/>
<path id="Vector_34" d="M36.3543 1.57218H32.5811V3.08718H36.0685V4.65936H32.5811V8.17532H30.4658V0H36.3543V1.57218Z" fill="#5289C3"/>
<path id="Vector_35" d="M44.5869 2.60124C44.5869 2.97284 44.5297 3.34445 44.3868 3.68747C44.2725 4.03049 44.0724 4.31634 43.8437 4.57361C43.5292 4.88804 43.1576 5.14531 42.7574 5.31682C42.2715 5.48833 41.757 5.57408 41.271 5.57408H39.9561V8.23249H37.8408V0H41.3282C41.7856 0 42.2143 0.028585 42.6431 0.142925C42.9861 0.22868 43.3006 0.371606 43.5864 0.543116C43.9009 0.743211 44.1581 1.02906 44.3296 1.37208C44.5297 1.74369 44.6155 2.17246 44.5869 2.60124ZM42.4144 2.62982C42.4144 2.42973 42.3573 2.20105 42.2429 2.02954C42.1286 1.88661 41.9857 1.74369 41.8141 1.68652C41.614 1.60076 41.3854 1.54359 41.1567 1.54359C40.9566 1.54359 40.6707 1.54359 40.3277 1.54359H39.9561V4.00191H40.5564C40.8422 4.00191 41.1567 3.97332 41.4425 3.94474C41.6712 3.91615 41.8713 3.80181 42.0428 3.68747C42.1857 3.57313 42.2715 3.43021 42.3287 3.25869C42.3858 3.03001 42.4144 2.82992 42.4144 2.62982Z" fill="#5289C3"/>
</g>
<defs>
<clipPath id="clip0_184_8779">
<rect width="59.171" height="60" fill="white" transform="translate(0.96582)"/>
</clipPath>
</defs>
</svg>
