<svg width="1627" height="277" viewBox="0 0 1627 277" fill="none" xmlns="http://www.w3.org/2000/svg">
<path d="M33.3181 3.12C35.2381 6.64 37.4248 11.0133 39.8781 16.24C42.4381 21.36 45.0515 26.96 47.7181 33.04C50.4915 39.0133 53.2115 45.1467 55.8781 51.44C58.5448 57.7333 61.0515 63.6533 63.3981 69.2C65.7448 63.6533 68.2515 57.7333 70.9181 51.44C73.5848 45.1467 76.2515 39.0133 78.9181 33.04C81.6915 26.96 84.3048 21.36 86.7581 16.24C89.3181 11.0133 91.5581 6.64 93.4781 3.12H116.198C117.265 10.48 118.225 18.7467 119.078 27.92C120.038 36.9867 120.838 46.48 121.478 56.4C122.225 66.2133 122.865 76.08 123.398 86C124.038 95.92 124.571 105.253 124.998 114H100.678C100.358 103.227 99.9315 91.4933 99.3981 78.8C98.8648 66.1067 98.0648 53.3067 96.9981 40.4C95.0781 44.88 92.9448 49.84 90.5981 55.28C88.2515 60.72 85.9048 66.16 83.5581 71.6C81.3181 77.04 79.1315 82.2667 76.9981 87.28C74.8648 92.1867 73.0515 96.4 71.5581 99.92H54.1181C52.6248 96.4 50.8115 92.1867 48.6781 87.28C46.5448 82.2667 44.3048 77.04 41.9581 71.6C39.7181 66.16 37.4248 60.72 35.0781 55.28C32.7315 49.84 30.5981 44.88 28.6781 40.4C27.6115 53.3067 26.8115 66.1067 26.2781 78.8C25.7448 91.4933 25.3181 103.227 24.9981 114H0.678125C1.10479 105.253 1.58479 95.92 2.11813 86C2.75813 76.08 3.39813 66.2133 4.03813 56.4C4.78479 46.48 5.58479 36.9867 6.43813 27.92C7.39813 18.7467 8.41146 10.48 9.47813 3.12H33.3181ZM147.472 3.12H172.432V114H147.472V3.12ZM189.297 55.44H235.697V77.04H189.297V55.44ZM250.872 26.16C253.965 24.88 257.165 23.44 260.472 21.84C263.885 20.1333 267.192 18.32 270.392 16.4C273.592 14.3733 276.632 12.2933 279.512 10.16C282.499 7.92 285.165 5.57333 287.512 3.12H304.152V114H280.312V34.16C277.112 36.2933 273.539 38.2667 269.592 40.08C265.645 41.7867 261.805 43.28 258.072 44.56L250.872 26.16ZM353.329 114C353.969 106.213 355.303 98.1067 357.329 89.68C359.356 81.2533 361.809 72.9867 364.689 64.88C367.676 56.7733 370.983 49.1467 374.609 42C378.236 34.7467 381.916 28.5067 385.649 23.28H337.489V2.96H415.089V20.24C411.676 23.9733 407.889 29.1467 403.729 35.76C399.676 42.3733 395.783 49.8933 392.049 58.32C388.423 66.64 385.223 75.6 382.449 85.2C379.783 94.8 378.129 104.4 377.489 114H353.329ZM432.747 26.16C435.84 24.88 439.04 23.44 442.347 21.84C445.76 20.1333 449.067 18.32 452.267 16.4C455.467 14.3733 458.507 12.2933 461.387 10.16C464.374 7.92 467.04 5.57333 469.387 3.12H486.027V114H462.187V34.16C458.987 36.2933 455.414 38.2667 451.467 40.08C447.52 41.7867 443.68 43.28 439.947 44.56L432.747 26.16Z" fill="#E61C3E"/>
<path d="M630.602 3.12H655.562V114H630.602V66.96H588.682V114H563.722V3.12H588.682V45.52H630.602V3.12ZM681.222 114V3.12H756.102V24.08H706.182V45.84H750.502V66.32H706.182V93.04H759.782V114H681.222ZM852.333 92.56V114H778.253V3.12H803.213V92.56H852.333ZM868.409 3.12H893.369V114H868.409V3.12ZM969.594 116.24C951.568 116.24 937.808 111.227 928.314 101.2C918.928 91.1733 914.234 76.9333 914.234 58.48C914.234 49.3067 915.674 41.1467 918.554 34C921.434 26.7467 925.381 20.6667 930.394 15.76C935.408 10.7467 941.381 6.96 948.314 4.39999C955.248 1.83999 962.768 0.559992 970.874 0.559992C975.568 0.559992 979.834 0.933327 983.674 1.68C987.514 2.31999 990.874 3.11999 993.754 4.07999C996.634 4.93333 999.034 5.84 1000.95 6.8C1002.87 7.76 1004.26 8.50666 1005.11 9.04L997.914 29.2C994.501 27.3867 990.501 25.84 985.914 24.56C981.434 23.28 976.314 22.64 970.554 22.64C966.714 22.64 962.928 23.28 959.194 24.56C955.568 25.84 952.314 27.92 949.434 30.8C946.661 33.5733 944.421 37.2 942.714 41.68C941.008 46.16 940.154 51.6 940.154 58C940.154 63.12 940.688 67.92 941.754 72.4C942.928 76.7733 944.741 80.56 947.194 83.76C949.754 86.96 953.061 89.52 957.114 91.44C961.168 93.2533 966.074 94.16 971.834 94.16C975.461 94.16 978.714 93.9467 981.594 93.52C984.474 93.0933 987.034 92.6133 989.274 92.08C991.514 91.44 993.488 90.7467 995.194 90C996.901 89.2533 998.448 88.56 999.834 87.92L1006.71 107.92C1003.19 110.053 998.234 111.973 991.834 113.68C985.434 115.387 978.021 116.24 969.594 116.24ZM1039.68 58.48C1039.68 63.92 1040.32 68.8267 1041.6 73.2C1042.99 77.5733 1044.91 81.36 1047.36 84.56C1049.92 87.6533 1053.02 90.0533 1056.64 91.76C1060.27 93.4667 1064.43 94.32 1069.12 94.32C1073.71 94.32 1077.82 93.4667 1081.44 91.76C1085.18 90.0533 1088.27 87.6533 1090.72 84.56C1093.28 81.36 1095.2 77.5733 1096.48 73.2C1097.87 68.8267 1098.56 63.92 1098.56 58.48C1098.56 53.04 1097.87 48.1333 1096.48 43.76C1095.2 39.28 1093.28 35.4933 1090.72 32.4C1088.27 29.2 1085.18 26.7467 1081.44 25.04C1077.82 23.3333 1073.71 22.48 1069.12 22.48C1064.43 22.48 1060.27 23.3867 1056.64 25.2C1053.02 26.9067 1049.92 29.36 1047.36 32.56C1044.91 35.6533 1042.99 39.44 1041.6 43.92C1040.32 48.2933 1039.68 53.1467 1039.68 58.48ZM1124.32 58.48C1124.32 67.9733 1122.88 76.3467 1120 83.6C1117.23 90.7467 1113.39 96.7733 1108.48 101.68C1103.58 106.48 1097.71 110.107 1090.88 112.56C1084.16 115.013 1076.91 116.24 1069.12 116.24C1061.55 116.24 1054.4 115.013 1047.68 112.56C1040.96 110.107 1035.1 106.48 1030.08 101.68C1025.07 96.7733 1021.12 90.7467 1018.24 83.6C1015.36 76.3467 1013.92 67.9733 1013.92 58.48C1013.92 48.9867 1015.42 40.6667 1018.4 33.52C1021.39 26.2667 1025.39 20.1867 1030.4 15.28C1035.52 10.3733 1041.39 6.69333 1048 4.23999C1054.72 1.78666 1061.76 0.559992 1069.12 0.559992C1076.7 0.559992 1083.84 1.78666 1090.56 4.23999C1097.28 6.69333 1103.15 10.3733 1108.16 15.28C1113.18 20.1867 1117.12 26.2667 1120 33.52C1122.88 40.6667 1124.32 48.9867 1124.32 58.48ZM1178.41 1.83999C1194.94 1.83999 1207.63 4.77333 1216.49 10.64C1225.34 16.4 1229.77 25.8933 1229.77 39.12C1229.77 52.4533 1225.29 62.1067 1216.33 68.08C1207.37 73.9467 1194.57 76.88 1177.93 76.88H1170.09V114H1145.13V4.72C1150.57 3.65333 1156.33 2.90666 1162.41 2.48C1168.49 2.05333 1173.82 1.83999 1178.41 1.83999ZM1180.01 23.12C1178.19 23.12 1176.38 23.1733 1174.57 23.28C1172.86 23.3867 1171.37 23.4933 1170.09 23.6V55.6H1177.93C1186.57 55.6 1193.07 54.4267 1197.45 52.08C1201.82 49.7333 1204.01 45.36 1204.01 38.96C1204.01 35.8667 1203.42 33.3067 1202.25 31.28C1201.18 29.2533 1199.58 27.6533 1197.45 26.48C1195.42 25.2 1192.91 24.3467 1189.93 23.92C1186.94 23.3867 1183.63 23.12 1180.01 23.12ZM1332.37 3.12V24.4H1298.93V114H1273.97V24.4H1240.53V3.12H1332.37ZM1348.41 114V3.12H1423.29V24.08H1373.37V45.84H1417.69V66.32H1373.37V93.04H1426.97V114H1348.41ZM1477.92 1.83999C1494.56 1.83999 1507.31 4.82666 1516.16 10.8C1525.01 16.6667 1529.44 25.84 1529.44 38.32C1529.44 46.1067 1527.63 52.4533 1524 57.36C1520.48 62.16 1515.36 65.9467 1508.64 68.72C1510.88 71.4933 1513.23 74.6933 1515.68 78.32C1518.13 81.84 1520.53 85.5733 1522.88 89.52C1525.33 93.36 1527.68 97.4133 1529.92 101.68C1532.16 105.84 1534.24 109.947 1536.16 114H1508.16C1506.13 110.373 1504.05 106.693 1501.92 102.96C1499.89 99.2267 1497.76 95.6 1495.52 92.08C1493.39 88.56 1491.25 85.2533 1489.12 82.16C1486.99 78.96 1484.85 76.08 1482.72 73.52H1470.4V114H1445.44V4.72C1450.88 3.65333 1456.48 2.90666 1462.24 2.48C1468.11 2.05333 1473.33 1.83999 1477.92 1.83999ZM1479.36 23.12C1477.55 23.12 1475.89 23.1733 1474.4 23.28C1473.01 23.3867 1471.68 23.4933 1470.4 23.6V53.68H1477.44C1486.83 53.68 1493.55 52.5067 1497.6 50.16C1501.65 47.8133 1503.68 43.8133 1503.68 38.16C1503.68 32.72 1501.6 28.88 1497.44 26.64C1493.39 24.2933 1487.36 23.12 1479.36 23.12ZM1582.4 94.96C1585.92 94.96 1588.8 94.6933 1591.04 94.16C1593.39 93.52 1595.25 92.72 1596.64 91.76C1598.03 90.6933 1598.99 89.4667 1599.52 88.08C1600.05 86.6933 1600.32 85.1467 1600.32 83.44C1600.32 79.8133 1598.61 76.8267 1595.2 74.48C1591.79 72.0267 1585.92 69.4133 1577.6 66.64C1573.97 65.36 1570.35 63.92 1566.72 62.32C1563.09 60.6133 1559.84 58.5333 1556.96 56.08C1554.08 53.52 1551.73 50.48 1549.92 46.96C1548.11 43.3333 1547.2 38.96 1547.2 33.84C1547.2 28.72 1548.16 24.1333 1550.08 20.08C1552 15.92 1554.72 12.4 1558.24 9.51999C1561.76 6.64 1566.03 4.45333 1571.04 2.96C1576.05 1.35999 1581.71 0.559992 1588 0.559992C1595.47 0.559992 1601.92 1.35999 1607.36 2.96C1612.8 4.56 1617.28 6.32 1620.8 8.24L1613.6 27.92C1610.51 26.32 1607.04 24.9333 1603.2 23.76C1599.47 22.48 1594.93 21.84 1589.6 21.84C1583.63 21.84 1579.31 22.6933 1576.64 24.4C1574.08 26 1572.8 28.5067 1572.8 31.92C1572.8 33.9467 1573.28 35.6533 1574.24 37.04C1575.2 38.4267 1576.53 39.7067 1578.24 40.88C1580.05 41.9467 1582.08 42.96 1584.32 43.92C1586.67 44.7733 1589.23 45.68 1592 46.64C1597.76 48.7733 1602.77 50.9067 1607.04 53.04C1611.31 55.0667 1614.83 57.4667 1617.6 60.24C1620.48 63.0133 1622.61 66.2667 1624 70C1625.39 73.7333 1626.08 78.2667 1626.08 83.6C1626.08 93.9467 1622.45 102 1615.2 107.76C1607.95 113.413 1597.01 116.24 1582.4 116.24C1577.49 116.24 1573.07 115.92 1569.12 115.28C1565.17 114.747 1561.65 114.053 1558.56 113.2C1555.57 112.347 1552.96 111.44 1550.72 110.48C1548.59 109.52 1546.77 108.613 1545.28 107.76L1552.32 87.92C1555.63 89.7333 1559.68 91.3867 1564.48 92.88C1569.39 94.2667 1575.36 94.96 1582.4 94.96ZM363.509 274C362.335 270.16 361.002 266.213 359.509 262.16C358.122 258.107 356.735 254.053 355.349 250H312.149C310.762 254.053 309.322 258.107 307.829 262.16C306.442 266.213 305.162 270.16 303.989 274H278.069C282.229 262.053 286.175 251.013 289.909 240.88C293.642 230.747 297.269 221.2 300.789 212.24C304.415 203.28 307.935 194.8 311.349 186.8C314.869 178.693 318.495 170.8 322.229 163.12H346.069C349.695 170.8 353.269 178.693 356.789 186.8C360.309 194.8 363.829 203.28 367.349 212.24C370.975 221.2 374.655 230.747 378.389 240.88C382.122 251.013 386.069 262.053 390.229 274H363.509ZM333.589 188.24C333.055 189.84 332.255 192.027 331.189 194.8C330.122 197.573 328.895 200.773 327.509 204.4C326.122 208.027 324.575 212.027 322.869 216.4C321.269 220.773 319.615 225.36 317.909 230.16H349.429C347.722 225.36 346.069 220.773 344.469 216.4C342.869 212.027 341.322 208.027 339.829 204.4C338.442 200.773 337.215 197.573 336.149 194.8C335.082 192.027 334.229 189.84 333.589 188.24ZM451.079 276.24C433.052 276.24 419.292 271.227 409.799 261.2C400.412 251.173 395.719 236.933 395.719 218.48C395.719 209.307 397.159 201.147 400.039 194C402.919 186.747 406.865 180.667 411.879 175.76C416.892 170.747 422.865 166.96 429.799 164.4C436.732 161.84 444.252 160.56 452.359 160.56C457.052 160.56 461.319 160.933 465.159 161.68C468.999 162.32 472.359 163.12 475.239 164.08C478.119 164.933 480.519 165.84 482.439 166.8C484.359 167.76 485.745 168.507 486.599 169.04L479.399 189.2C475.985 187.387 471.985 185.84 467.399 184.56C462.919 183.28 457.799 182.64 452.039 182.64C448.199 182.64 444.412 183.28 440.679 184.56C437.052 185.84 433.799 187.92 430.919 190.8C428.145 193.573 425.905 197.2 424.199 201.68C422.492 206.16 421.639 211.6 421.639 218C421.639 223.12 422.172 227.92 423.239 232.4C424.412 236.773 426.225 240.56 428.679 243.76C431.239 246.96 434.545 249.52 438.599 251.44C442.652 253.253 447.559 254.16 453.319 254.16C456.945 254.16 460.199 253.947 463.079 253.52C465.959 253.093 468.519 252.613 470.759 252.08C472.999 251.44 474.972 250.747 476.679 250C478.385 249.253 479.932 248.56 481.319 247.92L488.199 267.92C484.679 270.053 479.719 271.973 473.319 273.68C466.919 275.387 459.505 276.24 451.079 276.24ZM533.709 163.12C535.629 166.64 537.815 171.013 540.269 176.24C542.829 181.36 545.442 186.96 548.109 193.04C550.882 199.013 553.602 205.147 556.269 211.44C558.935 217.733 561.442 223.653 563.789 229.2C566.135 223.653 568.642 217.733 571.309 211.44C573.975 205.147 576.642 199.013 579.309 193.04C582.082 186.96 584.695 181.36 587.149 176.24C589.709 171.013 591.949 166.64 593.869 163.12H616.589C617.655 170.48 618.615 178.747 619.469 187.92C620.429 196.987 621.229 206.48 621.869 216.4C622.615 226.213 623.255 236.08 623.789 246C624.429 255.92 624.962 265.253 625.389 274H601.069C600.749 263.227 600.322 251.493 599.789 238.8C599.255 226.107 598.455 213.307 597.389 200.4C595.469 204.88 593.335 209.84 590.989 215.28C588.642 220.72 586.295 226.16 583.949 231.6C581.709 237.04 579.522 242.267 577.389 247.28C575.255 252.187 573.442 256.4 571.949 259.92H554.509C553.015 256.4 551.202 252.187 549.069 247.28C546.935 242.267 544.695 237.04 542.349 231.6C540.109 226.16 537.815 220.72 535.469 215.28C533.122 209.84 530.989 204.88 529.069 200.4C528.002 213.307 527.202 226.107 526.669 238.8C526.135 251.493 525.709 263.227 525.389 274H501.069C501.495 265.253 501.975 255.92 502.509 246C503.149 236.08 503.789 226.213 504.429 216.4C505.175 206.48 505.975 196.987 506.829 187.92C507.789 178.747 508.802 170.48 509.869 163.12H533.709ZM647.863 163.12H672.823V274H647.863V163.12ZM767.165 254.96C770.685 254.96 773.565 254.693 775.805 254.16C778.152 253.52 780.018 252.72 781.405 251.76C782.792 250.693 783.752 249.467 784.285 248.08C784.818 246.693 785.085 245.147 785.085 243.44C785.085 239.813 783.378 236.827 779.965 234.48C776.552 232.027 770.685 229.413 762.365 226.64C758.738 225.36 755.112 223.92 751.485 222.32C747.858 220.613 744.605 218.533 741.725 216.08C738.845 213.52 736.498 210.48 734.685 206.96C732.872 203.333 731.965 198.96 731.965 193.84C731.965 188.72 732.925 184.133 734.845 180.08C736.765 175.92 739.485 172.4 743.005 169.52C746.525 166.64 750.792 164.453 755.805 162.96C760.818 161.36 766.472 160.56 772.765 160.56C780.232 160.56 786.685 161.36 792.125 162.96C797.565 164.56 802.045 166.32 805.565 168.24L798.365 187.92C795.272 186.32 791.805 184.933 787.965 183.76C784.232 182.48 779.698 181.84 774.365 181.84C768.392 181.84 764.072 182.693 761.405 184.4C758.845 186 757.565 188.507 757.565 191.92C757.565 193.947 758.045 195.653 759.005 197.04C759.965 198.427 761.298 199.707 763.005 200.88C764.818 201.947 766.845 202.96 769.085 203.92C771.432 204.773 773.992 205.68 776.765 206.64C782.525 208.773 787.538 210.907 791.805 213.04C796.072 215.067 799.592 217.467 802.365 220.24C805.245 223.013 807.378 226.267 808.765 230C810.152 233.733 810.845 238.267 810.845 243.6C810.845 253.947 807.218 262 799.965 267.76C792.712 273.413 781.778 276.24 767.165 276.24C762.258 276.24 757.832 275.92 753.885 275.28C749.938 274.747 746.418 274.053 743.325 273.2C740.338 272.347 737.725 271.44 735.485 270.48C733.352 269.52 731.538 268.613 730.045 267.76L737.085 247.92C740.392 249.733 744.445 251.387 749.245 252.88C754.152 254.267 760.125 254.96 767.165 254.96ZM830.05 274V163.12H904.93V184.08H855.01V205.84H899.33V226.32H855.01V253.04H908.61V274H830.05ZM959.561 161.84C976.201 161.84 988.948 164.827 997.801 170.8C1006.65 176.667 1011.08 185.84 1011.08 198.32C1011.08 206.107 1009.27 212.453 1005.64 217.36C1002.12 222.16 997.001 225.947 990.281 228.72C992.521 231.493 994.868 234.693 997.321 238.32C999.775 241.84 1002.17 245.573 1004.52 249.52C1006.97 253.36 1009.32 257.413 1011.56 261.68C1013.8 265.84 1015.88 269.947 1017.8 274H989.801C987.775 270.373 985.695 266.693 983.561 262.96C981.535 259.227 979.401 255.6 977.161 252.08C975.028 248.56 972.895 245.253 970.761 242.16C968.628 238.96 966.495 236.08 964.361 233.52H952.041V274H927.081V164.72C932.521 163.653 938.121 162.907 943.881 162.48C949.748 162.053 954.975 161.84 959.561 161.84ZM961.001 183.12C959.188 183.12 957.535 183.173 956.041 183.28C954.655 183.387 953.321 183.493 952.041 183.6V213.68H959.081C968.468 213.68 975.188 212.507 979.241 210.16C983.295 207.813 985.321 203.813 985.321 198.16C985.321 192.72 983.241 188.88 979.081 186.64C975.028 184.293 969.001 183.12 961.001 183.12ZM1064.42 274C1060.04 264.72 1055.72 255.067 1051.46 245.04C1047.19 235.013 1043.14 225.093 1039.3 215.28C1035.46 205.467 1031.88 196.08 1028.58 187.12C1025.38 178.16 1022.6 170.16 1020.26 163.12H1047.78C1049.91 169.52 1052.2 176.453 1054.66 183.92C1057.22 191.28 1059.78 198.64 1062.34 206C1065 213.36 1067.56 220.4 1070.02 227.12C1072.47 233.84 1074.76 239.653 1076.9 244.56C1078.92 239.653 1081.16 233.84 1083.62 227.12C1086.18 220.4 1088.74 213.36 1091.3 206C1093.96 198.64 1096.52 191.28 1098.98 183.92C1101.54 176.453 1103.88 169.52 1106.02 163.12H1132.58C1130.12 170.16 1127.3 178.16 1124.1 187.12C1120.9 196.08 1117.38 205.467 1113.54 215.28C1109.7 225.093 1105.64 235.013 1101.38 245.04C1097.11 255.067 1092.79 264.72 1088.42 274H1064.42ZM1146.93 163.12H1171.89V274H1146.93V163.12ZM1248.11 276.24C1230.08 276.24 1216.32 271.227 1206.83 261.2C1197.44 251.173 1192.75 236.933 1192.75 218.48C1192.75 209.307 1194.19 201.147 1197.07 194C1199.95 186.747 1203.9 180.667 1208.91 175.76C1213.92 170.747 1219.9 166.96 1226.83 164.4C1233.76 161.84 1241.28 160.56 1249.39 160.56C1254.08 160.56 1258.35 160.933 1262.19 161.68C1266.03 162.32 1269.39 163.12 1272.27 164.08C1275.15 164.933 1277.55 165.84 1279.47 166.8C1281.39 167.76 1282.78 168.507 1283.63 169.04L1276.43 189.2C1273.02 187.387 1269.02 185.84 1264.43 184.56C1259.95 183.28 1254.83 182.64 1249.07 182.64C1245.23 182.64 1241.44 183.28 1237.71 184.56C1234.08 185.84 1230.83 187.92 1227.95 190.8C1225.18 193.573 1222.94 197.2 1221.23 201.68C1219.52 206.16 1218.67 211.6 1218.67 218C1218.67 223.12 1219.2 227.92 1220.27 232.4C1221.44 236.773 1223.26 240.56 1225.71 243.76C1228.27 246.96 1231.58 249.52 1235.63 251.44C1239.68 253.253 1244.59 254.16 1250.35 254.16C1253.98 254.16 1257.23 253.947 1260.11 253.52C1262.99 253.093 1265.55 252.613 1267.79 252.08C1270.03 251.44 1272 250.747 1273.71 250C1275.42 249.253 1276.96 248.56 1278.35 247.92L1285.23 267.92C1281.71 270.053 1276.75 271.973 1270.35 273.68C1263.95 275.387 1256.54 276.24 1248.11 276.24ZM1301.3 274V163.12H1376.18V184.08H1326.26V205.84H1370.58V226.32H1326.26V253.04H1379.86V274H1301.3Z" fill="#F5F6F7"/>
</svg>
