<svg width="62" height="60" viewBox="0 0 62 60" fill="none" xmlns="http://www.w3.org/2000/svg">
<g id="svg2" clip-path="url(#clip0_184_8829)">
<g id="layer1">
<path id="path2178" d="M29.5635 59.9881C26.7007 59.768 24.2181 59.2747 21.6205 58.4096C18.8834 57.4982 16.8683 56.5168 14.44 54.9126C10.8782 52.5595 8.09957 49.7655 5.75017 46.1745C3.19222 42.2647 1.66795 37.9933 1.08349 33.0973C0.925334 31.7723 0.92693 28.3026 1.08632 26.9524C1.41436 24.1738 2.03882 21.6392 3.01049 19.1426C4.22589 16.0198 6.10391 12.9744 8.48077 10.2721C11.4622 6.88247 15.6634 3.91544 19.8095 2.27147C27.9297 -0.948285 36.4769 -0.741418 44.482 2.86861C47.7785 4.35528 51.4524 7.01791 53.9519 9.73201C58.4904 14.6601 61.2217 20.7513 61.8446 27.3337C62.0338 29.3328 61.9526 32.2757 61.6522 34.3091C61.1047 38.0147 59.7033 41.9876 57.8725 45.0239C55.3803 49.1574 52.446 52.2528 48.5632 54.8443C45.4599 56.9156 42.3497 58.2748 38.6693 59.1681C36.2794 59.7482 34.4603 59.9674 31.8193 59.9934C30.7534 60.004 29.7382 60.0016 29.5635 59.9881ZM33.3552 58.0586C35.0587 57.9499 37.2785 57.6142 38.3643 57.3012C38.5915 57.2357 38.9632 57.1327 39.1904 57.0723C40.7696 56.6525 42.7993 55.8805 44.2909 55.1323C48.7564 52.8923 52.6984 49.4442 55.2946 45.5071C55.5019 45.1927 55.7479 44.821 55.8412 44.6812C56.3363 43.9392 57.2754 42.1696 57.6791 41.2181C58.4903 39.306 58.7571 38.5318 59.2118 36.77C59.9417 33.9422 60.1951 30.7835 59.9408 27.6832C59.8183 26.1901 59.7875 25.9953 59.288 23.5528C59.2257 23.2482 58.7022 21.4836 58.5151 20.9475C57.954 19.3402 56.8326 16.9401 56.125 15.8322C55.1349 14.282 54.6922 13.6586 53.5514 12.2078C52.8399 11.3031 50.83 9.34148 49.4528 8.20763C48.4574 7.38815 46.637 6.17103 45.513 5.57353C45.1636 5.38773 44.7346 5.15647 44.5599 5.05961C44.1066 4.80838 42.191 3.96723 41.478 3.70638C40.9242 3.50375 40.427 3.34688 39.0316 2.93447C37.3811 2.44669 35.3225 2.13199 32.5818 1.94847C30.2019 1.78912 26.0987 2.27664 23.6857 3.00547C21.7095 3.60234 19.1774 4.58638 18.4723 5.03152C18.3477 5.11016 18.0614 5.26374 17.8362 5.37282C17.6109 5.48189 17.2503 5.67807 17.0348 5.80879C16.1958 6.31776 15.2545 6.91934 15.0119 7.1016C14.8721 7.20663 14.5217 7.46251 14.2333 7.67023C12.5477 8.88398 10.4324 10.9404 8.959 12.7974C8.40994 13.4894 8.35858 13.5587 7.8755 14.2576C6.18141 16.7089 4.83342 19.5291 4.01719 22.3298C3.16831 25.2425 2.80504 28.3521 2.96358 31.3487C3.1126 34.1653 3.55922 36.4843 4.45437 39.0893C4.96524 40.576 5.89952 42.6079 6.68963 43.9505C9.04729 47.9568 12.2826 51.2927 16.1239 53.6784C16.5259 53.928 16.931 54.1852 17.0242 54.25C17.2793 54.4272 19.3207 55.4572 19.9366 55.7194C22.2724 56.714 24.394 57.3518 26.5414 57.7048C28.7866 58.074 31.173 58.1979 33.3552 58.0586ZM30.1989 56.3607C28.9131 56.3045 26.3537 55.9219 24.893 55.5676C23.6644 55.2696 21.7042 54.6105 20.858 54.2108C20.6133 54.0952 20.1129 53.8616 19.746 53.6917C18.3558 53.0481 16.1978 51.7156 14.9073 50.7038C11.608 48.1173 9.03954 44.9295 7.21322 41.1545C6.98497 40.6827 6.75147 40.1586 6.69435 39.9899C6.63723 39.8212 6.54546 39.596 6.49042 39.4896C6.33395 39.187 5.72915 37.3121 5.51851 36.4767C5.05445 34.636 4.85592 33.3074 4.74351 31.29C4.43989 25.841 5.98689 20.2601 9.08998 15.6098C11.1697 12.4931 14.2668 9.51811 17.3313 7.69344C17.6982 7.47494 18.1233 7.21791 18.2759 7.12225C18.5506 6.95002 19.4448 6.50066 20.4596 6.02491C21.0108 5.76645 22.6035 5.16116 23.4315 4.8954C24.6528 4.50344 27.2492 3.96901 28.6739 3.81633C30.0489 3.66899 32.8608 3.66852 34.2658 3.81542C35.3809 3.932 37.36 4.3085 38.6503 4.64952C40.5181 5.14318 43.0828 6.18112 44.5281 7.02836C46.0492 7.91999 47.5215 8.88056 47.9277 9.2464C48.0326 9.34082 48.247 9.51609 48.4043 9.63588C49.7989 10.6982 52.0229 12.9995 53.1061 14.5011C53.7927 15.4529 54.5789 16.6705 54.9503 17.3573C55.0637 17.567 55.2512 17.9101 55.3669 18.1198C55.801 18.9062 56.5732 20.7331 56.9504 21.866C57.5535 23.6774 57.9422 25.5313 58.1633 27.6514C58.3076 29.0352 58.2593 31.9147 58.0685 33.3069C57.2727 39.1139 54.8061 44.1585 50.7263 48.3231C50.2705 48.7883 49.6545 49.3745 49.3575 49.6256C49.0604 49.8767 48.8023 50.1022 48.7839 50.1266C48.6841 50.2591 47.2888 51.2838 46.4344 51.8518C45.2196 52.6596 43.9123 53.4031 42.9795 53.8167C42.5905 53.9891 42.1007 54.211 41.891 54.3098C41.2726 54.6009 38.7191 55.4322 37.8076 55.6391C35.2383 56.2224 32.6492 56.4679 30.1989 56.3607ZM36.0132 54.1734C36.5036 54.0262 37.0157 53.7026 37.255 53.3889C37.675 52.8383 37.9231 51.5746 37.7946 50.6403C37.6716 49.7459 37.4338 49.1537 36.8529 48.2954C36.2692 47.4329 35.8162 47.0641 35.3406 47.0641C35.0552 47.0641 34.7144 47.4692 34.5641 47.9869C34.0956 49.6017 34.127 50.3315 34.6788 50.6522C34.8797 50.769 34.9916 50.7797 35.8387 50.763L36.7762 50.7447L36.8484 50.9032C36.997 51.2293 36.5928 51.7778 35.6955 52.4677C34.9363 53.0514 34.2975 53.7786 34.2975 54.0592C34.2975 54.1222 34.3619 54.22 34.4405 54.2764C34.623 54.4072 35.4055 54.356 36.0132 54.1734ZM35.3778 49.3675C35.1993 49.2783 35.1513 49.2141 35.1349 49.0422C35.0979 48.6554 35.6182 48.2847 35.9493 48.4619C36.2659 48.6313 36.4334 49.1766 36.2311 49.3789C36.0972 49.5128 35.6568 49.5069 35.3778 49.3675ZM30.9994 51.276C31.0966 51.2186 31.2493 51.0371 31.3388 50.8726C31.5569 50.4719 31.563 49.8569 31.3539 49.3517C31.1278 48.8053 29.6322 46.6817 29.0156 46.0315C28.7135 45.7128 28.6386 45.6661 28.4301 45.6661C28.1107 45.6661 27.9021 45.7833 27.5482 46.1617C27.2142 46.5188 27.1267 46.8035 27.2428 47.1553C27.3345 47.4333 27.475 47.4776 28.085 47.4209C28.4873 47.3835 28.5581 47.395 28.8002 47.5369C28.948 47.6235 29.1126 47.7599 29.166 47.8399C29.2194 47.92 29.5166 48.2751 29.8264 48.6291C30.7547 49.6899 31.104 50.4334 30.7194 50.5299C30.4841 50.5889 29.9437 50.3354 29.0877 49.7644C28.6106 49.4461 28.1959 49.2164 28.0507 49.1898C27.7497 49.1347 27.6786 49.0266 27.4724 48.3095C27.2805 47.6423 27.1662 47.4454 26.9709 47.4454C26.6066 47.4454 26.3934 47.8632 26.3122 48.7359C26.261 49.2874 26.1991 49.3537 25.8042 49.28C25.3741 49.1996 25.3519 49.1541 25.5514 48.76C25.7876 48.2931 25.8318 47.9863 25.686 47.8252C25.468 47.5843 25.2807 47.6858 25.033 48.1787C24.9621 48.3199 24.7872 48.5558 24.6444 48.7029C24.4157 48.9386 24.351 48.9704 24.101 48.9704C23.8762 48.9704 23.772 48.9307 23.6 48.7797C23.4805 48.6748 23.3676 48.5104 23.349 48.4143C23.2993 48.1571 23.4191 47.5969 23.617 47.161C23.7859 46.789 24.1744 46.3651 24.3465 46.3651C24.4929 46.3651 24.7644 46.6213 24.9002 46.8875C25.1394 47.3564 25.5023 47.5732 25.7064 47.3691C25.7483 47.3272 25.7826 47.1612 25.7826 47.0003C25.7826 46.3897 24.9685 45.539 24.3842 45.539C24.1601 45.539 23.74 45.7931 23.3465 46.1666C22.775 46.7089 21.4197 48.2454 21.3805 48.3954C21.3607 48.4712 21.3876 48.5696 21.4434 48.6254C21.555 48.7369 21.7697 48.7068 22.211 48.5176C22.3638 48.4521 22.5104 48.3985 22.5367 48.3985C22.5631 48.3985 22.6314 48.567 22.6887 48.773C22.9078 49.561 23.559 49.9613 24.3535 49.7964C24.7014 49.7241 24.7107 49.7261 25.0379 49.9414C25.4799 50.2323 25.6084 50.2966 25.9608 50.4036C26.3747 50.5291 26.9925 50.517 27.5936 50.3714L28.102 50.2482L28.4063 50.4056C28.5737 50.4921 28.9831 50.7376 29.316 50.9511C29.6489 51.1646 30.0124 51.3622 30.1237 51.3902C30.3894 51.457 30.779 51.4062 30.9994 51.276ZM39.4161 49.4752C39.6439 49.2235 39.6147 48.6676 39.3233 47.7051C38.8256 46.0617 38.1182 44.3182 37.7567 43.8443C37.5471 43.5695 37.3501 43.568 37.1208 43.8392C36.8634 44.1438 36.6997 44.5596 36.6645 44.9984C36.629 45.4396 36.6074 45.3863 37.4274 46.8735C37.7069 47.3802 38.1081 48.1094 38.319 48.4938C38.7279 49.239 38.8919 49.4612 39.0951 49.5452C39.2779 49.6209 39.2858 49.6191 39.4161 49.4752ZM20.9968 48.3191C21.0753 48.1969 21.2686 47.1319 21.2304 47.0322C21.2118 46.9836 20.9827 46.8085 20.7213 46.6429C20.1773 46.2983 19.9683 46.0769 19.8778 45.7495C19.8122 45.5119 19.8976 42.9212 19.9751 42.7957C20.0216 42.7206 20.2561 42.772 20.6038 42.9336C20.9116 43.0767 22.5221 43.6459 22.9311 43.7562C23.2223 43.8347 23.2288 43.833 23.6618 43.565C24.2897 43.1764 24.3129 43.1503 24.1602 43.0038C24.0915 42.9378 23.5205 42.6696 22.8914 42.408C22.2623 42.1463 21.3616 41.7652 20.8897 41.5611C19.6472 41.0236 19.2306 41.0522 18.893 41.6982C18.7773 41.9196 18.7593 42.0881 18.7388 43.1417C18.7187 44.1689 18.701 44.342 18.6112 44.3876C18.4558 44.4665 17.538 44.3569 17.3561 44.2377C17.1428 44.0979 16.9505 43.7689 16.9502 43.543C16.9497 43.1442 17.2042 42.8571 19.2586 40.9386C19.9198 40.3212 20.0001 40.2231 20.0001 40.0331C20.0001 39.9013 19.9492 39.7691 19.8664 39.6864C19.57 39.39 19.2934 39.5995 17.0057 41.8535C15.6423 43.1968 15.4924 43.4078 15.4899 43.9868C15.4867 44.7281 15.8651 45.2506 16.5502 45.4509C16.768 45.5146 17.2684 45.574 17.7761 45.5965L18.6339 45.6344L18.6834 46.3303C18.7197 46.8411 18.7613 47.0577 18.8398 47.1445C18.8986 47.2095 19.2338 47.423 19.5846 47.619C19.9355 47.815 20.3651 48.0706 20.5394 48.187C20.8931 48.4231 20.9242 48.4321 20.9968 48.3191ZM43.9212 47.3197C44.9441 46.8812 47.3287 44.6316 47.8968 43.5692C47.9435 43.4818 47.9982 43.153 48.0183 42.8384C48.0544 42.2729 48.0567 42.2663 48.2286 42.2465C48.3241 42.2355 48.6175 42.2856 48.8806 42.3577C49.5165 42.5322 50.1671 42.5323 50.5086 42.3582C50.9148 42.1509 51.0065 41.8754 51.0082 40.8573C51.0098 39.9203 51.0314 39.866 51.4324 39.7907C51.9879 39.6865 52.4711 39.2755 52.5998 38.7977C52.6385 38.6538 52.666 38.3746 52.6608 38.1773C52.6556 37.98 52.6537 37.7854 52.6565 37.7449C52.6594 37.7045 52.8992 37.5134 53.1895 37.3202C53.8431 36.8853 54.0597 36.5496 54.0597 35.9713C54.0597 35.4992 53.9179 35.207 53.4232 34.6599C52.8963 34.0772 52.376 33.8164 51.7434 33.818C51.4971 33.8186 51.117 33.8438 50.8988 33.8739L50.5021 33.9286L50.36 33.6177C50.2325 33.339 50.2144 33.1753 50.1848 32.035L50.1518 30.7632L49.8717 30.2741C49.2608 29.2071 48.9752 29.0692 48.7924 29.7531C48.6587 30.253 48.5165 31.7924 48.5081 32.8303C48.5003 33.8007 48.5106 33.903 48.6468 34.204C48.8207 34.5881 49.1012 34.8772 49.4528 35.0346C49.6639 35.1291 49.8901 35.1489 50.7872 35.1512C51.9788 35.1542 52.0578 35.1753 52.2928 35.5524C52.4792 35.8518 52.4686 36.2295 52.2681 36.4301C52.1483 36.5499 52.0247 36.5939 51.7445 36.6167C51.4737 36.6387 51.3184 36.6918 51.1511 36.8195C50.9352 36.9842 50.882 36.994 50.0298 37.0244C49.2653 37.0516 49.0919 37.0775 48.8385 37.2022C48.4592 37.3889 48.3157 37.6068 48.3214 37.9873C48.3292 38.4999 48.7482 39.1159 49.3575 39.5103C49.5041 39.6053 49.518 39.6568 49.538 40.1791C49.573 41.0915 49.4041 41.1941 48.3408 40.9068C47.0277 40.552 46.7299 40.4377 46.4531 40.1825C45.9639 39.7317 46.0223 39.2695 46.7388 37.9218C47.1626 37.1244 47.1651 37.1166 47.1565 36.6378C47.1482 36.1746 47.04 35.8209 46.8757 35.7194C46.7294 35.629 46.3156 36.2117 45.7653 37.2828C44.5874 39.5759 44.6234 39.4946 44.6234 39.8559C44.6234 40.1241 44.6613 40.2452 44.8141 40.466C44.9806 40.7067 45.1287 40.8028 45.9861 41.2261C47.3689 41.9089 47.4924 42.0937 46.9656 42.6934C46.126 43.6492 44.6287 45.0248 43.8927 45.5163C43.303 45.9102 43.2482 45.9304 43.0495 45.8273C42.7398 45.6666 42.1104 45.4756 41.8908 45.4756C41.6325 45.4756 41.4138 45.6585 41.4159 45.8727C41.4184 46.1312 41.6446 46.523 41.9999 46.884C42.5973 47.491 43.2017 47.6281 43.9212 47.3197ZM49.9294 38.6069C49.3791 38.4623 49.1668 38.2799 49.1668 37.9519C49.1668 37.5903 49.341 37.4988 50.0028 37.5123C50.917 37.531 51.4544 37.7898 51.4544 38.2113C51.4544 38.4043 51.196 38.6486 50.9372 38.7003C50.6356 38.7606 50.4484 38.7433 49.9294 38.6069ZM12.216 43.7349C13.2788 43.5722 13.905 43.2541 14.5706 42.5387C15.145 41.9213 15.5925 40.8956 15.4244 40.5815C15.307 40.3621 15.149 40.323 14.661 40.3922C13.8578 40.5061 13.7888 40.6007 13.8993 41.436C13.9873 42.1008 13.9163 42.392 13.6186 42.5871C13.1931 42.8659 11.6006 42.5185 10.3828 41.8813C9.76077 41.5558 9.55894 41.5441 9.48736 41.8293C9.38035 42.2557 9.79855 43.1344 10.3265 43.5926C10.5993 43.8293 11.2698 43.8798 12.216 43.7349ZM12.1743 39.7324C13.0347 39.4413 13.3824 38.9574 13.1099 38.4304C12.9592 38.139 12.7561 37.2485 12.7561 36.8792C12.7561 36.4286 12.92 36.1981 13.2405 36.1981C13.8665 36.1981 14.2293 36.7561 14.3214 37.8605C14.3708 38.4526 14.5116 38.6765 14.8343 38.6761C15.0587 38.6758 15.3844 38.4796 15.5304 38.2567C15.6724 38.04 15.8031 37.2857 15.7588 36.9389C15.6542 36.1211 14.7395 35.3659 13.6263 35.1781C13.0179 35.0755 12.1067 35.1309 11.7394 35.2928C10.8497 35.6849 10.6727 36.6075 11.2266 37.9659C11.4837 38.5966 11.4899 38.6279 11.3891 38.7817C11.2599 38.9789 11.1038 38.9521 10.6351 38.6521C9.98956 38.2389 9.66832 37.7099 9.17331 36.245C8.60135 34.5524 8.7062 34.0397 9.77019 33.3265C10.3667 32.9267 10.6592 32.6384 10.6592 32.4502C10.6592 31.9519 9.2766 32.2376 8.33294 32.9308C7.64555 33.4358 7.4185 33.9093 7.42136 34.8319C7.42563 36.2105 8.35187 38.2871 9.35727 39.1721C10.0884 39.8157 11.247 40.0461 12.1743 39.7324ZM26.4816 32.0994C27.0633 32.0473 27.4377 31.9105 27.9651 31.5578C28.8679 30.9539 29.2826 30.0731 29.2808 28.7634C29.278 26.7986 28.4779 25.9127 26.0374 25.1727C24.9632 24.847 24.6378 24.7068 24.3631 24.4513C23.7589 23.8896 23.9489 23.1103 24.7598 22.8242C25.0855 22.7093 25.9231 22.695 26.2338 22.7991C26.7071 22.9575 27.0507 23.3856 27.1613 23.9547C27.1829 24.0657 27.2318 24.1775 27.27 24.2033C27.3395 24.2501 28.6032 24.2078 28.8888 24.1492C29.0331 24.1195 29.0387 24.0996 29.0082 23.7242C28.9645 23.1864 28.704 22.4726 28.4098 22.0847C27.8139 21.2989 27.0596 20.9516 25.8365 20.9C24.6157 20.8485 23.9492 21.0246 23.3151 21.5664C22.8673 21.9489 22.652 22.2526 22.4457 22.7925C22.3077 23.1538 22.2771 23.3418 22.2734 23.8529C22.2684 24.5491 22.3601 24.9335 22.6697 25.5144C23.0901 26.3032 23.7149 26.7198 25.179 27.1875C26.3477 27.5609 27.0261 27.8543 27.2226 28.0716C27.4014 28.2692 27.5198 28.7244 27.4664 29.0089C27.3189 29.7952 26.6453 30.2885 25.7191 30.2885C24.7091 30.2885 24.0743 29.7441 23.7922 28.6364C23.7287 28.3871 23.6687 28.28 23.5832 28.2628C23.3621 28.2186 22.0384 28.395 21.9696 28.4779C21.852 28.6196 22.1392 29.8064 22.4309 30.3838C22.7862 31.0872 23.4344 31.6803 24.1336 31.9418C24.5054 32.0809 25.383 32.1936 25.8144 32.1577C25.9542 32.146 26.2544 32.1198 26.4816 32.0994ZM20.4326 31.3412L19.5871 31.337V26.5076V21.6783L20.3852 21.6706L20.3803 21.0781L16.8306 21.0579L16.8268 21.6706L17.6808 21.6783V26.5076V31.337L16.8229 31.3471L16.8465 31.9905L20.4132 31.9724L20.4326 31.3412ZM31.8746 31.9188C31.9298 31.8523 32.5818 29.7949 32.5818 29.6873C32.5818 29.6734 32.6268 29.6172 32.6817 29.5623C32.7675 29.4765 33.0217 29.4624 34.4912 29.4624C36.1954 29.4624 36.2012 29.4629 36.2902 29.6054C36.3394 29.684 36.5287 30.2202 36.7111 30.7968C36.8934 31.3735 37.0718 31.8811 37.1076 31.9247C37.1539 31.9814 37.4264 32.0042 38.0564 32.0042C38.8182 32.0042 38.9458 31.9897 38.9804 31.8996C39.0202 31.7957 35.5449 21.2309 35.4299 21.1064C35.3704 21.042 33.8732 20.9999 33.6199 21.0555C33.4427 21.0944 33.5833 20.7026 32.1993 25.0143C31.9133 25.9055 31.6128 26.8349 31.5316 27.0795C31.4163 27.4268 30.1095 31.4696 30.009 31.7899C29.9552 31.9614 30.1463 32.0042 30.9664 32.0042C31.5898 32.0042 31.8219 31.9824 31.8746 31.9188ZM33.3026 27.5848C33.2819 27.5307 33.3082 27.3377 33.361 27.1559C33.657 26.1389 34.3675 23.8429 34.3948 23.8156C34.4841 23.7263 34.5072 23.7914 35.2811 26.317C35.4096 26.7364 35.5456 27.1689 35.5832 27.278C35.7197 27.6737 35.6934 27.6832 34.4564 27.6832C33.5075 27.6832 33.3347 27.6685 33.3026 27.5848ZM41.7322 29.7038C41.7522 28.2745 41.7882 27.411 41.8294 27.3698C41.8693 27.33 42.4522 27.2977 43.3227 27.2873L44.7505 27.2702V26.3805V25.4909L43.292 25.4738C42.2224 25.4613 41.8202 25.4358 41.7838 25.3785C41.719 25.2765 41.719 23.1001 41.7838 22.9981C41.8213 22.939 42.3431 22.9189 43.9246 22.9156C45.3158 22.9127 46.0432 22.8884 46.098 22.843C46.2024 22.7564 46.2162 21.1679 46.1131 21.1042C46.0413 21.0597 40.1656 21.0195 40.0324 21.0626C39.9697 21.0828 39.9529 22.2274 39.9529 26.5038C39.9529 29.4824 39.9728 31.9393 39.9971 31.9636C40.0213 31.9878 40.4145 31.9998 40.8708 31.9901L41.7325 31.9724L41.7322 29.7038Z" fill="#008B2E"/>
<path id="path5310" d="M25.2849 20.9143C24.7206 20.9034 24.1399 21.0161 23.6617 21.3225C23.2876 21.568 22.945 21.8825 22.7063 22.2661C22.5408 22.5532 22.4051 22.8639 22.3336 23.1896C22.2758 23.5465 22.2848 23.9111 22.2986 24.2712C22.3147 24.709 22.4727 25.1259 22.6801 25.5064C22.935 26.0126 23.369 26.4088 23.8736 26.6579C24.5514 27.013 25.3031 27.1993 26.0189 27.4686C26.3997 27.615 26.7981 27.7431 27.1289 27.9878C27.3726 28.1722 27.4556 28.4915 27.4826 28.7819C27.5016 29.2762 27.2077 29.7471 26.7979 30.0082C26.3356 30.3003 25.7521 30.3428 25.223 30.2444C24.7334 30.1492 24.3126 29.8144 24.0756 29.38C23.8921 29.0775 23.8244 28.726 23.6987 28.3988C23.6735 28.3163 23.6012 28.251 23.51 28.2644C23.0523 28.2742 22.5954 28.3418 22.1474 28.4295C22.0798 28.4544 21.9602 28.4455 21.9575 28.544C21.936 28.7573 21.999 28.9696 22.0359 29.1774C22.1667 29.7199 22.3313 30.2674 22.6487 30.7308C23.0383 31.2874 23.5889 31.756 24.2423 31.9671C24.6473 32.079 25.0683 32.131 25.4879 32.1511C25.973 32.1439 26.4618 32.1115 26.9381 32.021C27.5134 31.8772 28.0366 31.5573 28.4553 31.1396C28.8697 30.7205 29.1173 30.1603 29.2071 29.5801C29.2831 29.1437 29.2744 28.6974 29.2496 28.2569C29.195 27.6324 29.0087 26.9956 28.5775 26.5272C28.0267 25.9313 27.2636 25.5966 26.5076 25.3367C25.9576 25.1427 25.3882 25.001 24.8512 24.7711C24.4737 24.6019 24.1068 24.3051 24.0196 23.8809C23.9515 23.5525 24.1103 23.2107 24.3792 23.0206C24.668 22.7965 25.0436 22.7341 25.4012 22.7254C25.7273 22.7232 26.0731 22.709 26.3751 22.8505C26.7653 23.0393 27.0366 23.4208 27.1397 23.837C27.1818 23.9558 27.1863 24.1032 27.2797 24.195C27.5094 24.229 27.7495 24.2053 27.9829 24.2039C28.3025 24.1867 28.6277 24.187 28.9417 24.1255C29.0334 24.1015 28.9991 23.9816 29.0074 23.912C28.9899 23.3484 28.8134 22.7932 28.5406 22.3033C28.2238 21.7642 27.7145 21.3392 27.1221 21.1329C26.6449 20.9639 26.1342 20.9055 25.6277 20.9136C25.5135 20.9133 25.3992 20.9131 25.2849 20.9143Z" fill="white"/>
<path id="path5354" d="M34.0011 21.0172C33.8325 21.0398 33.6114 20.9825 33.4806 21.1107C33.1745 21.853 32.9608 22.6315 32.7035 23.3921C31.8014 26.209 30.8715 29.0175 29.9932 31.8418C30.0118 32.0071 30.2491 31.9771 30.3704 31.9952C30.8435 32.0012 31.3218 32.028 31.7921 31.9732C31.9595 31.8913 31.9596 31.6529 32.0377 31.5002C32.256 30.8918 32.4156 30.2634 32.6351 29.6563C32.7564 29.4567 33.0451 29.5279 33.2448 29.5009C34.1962 29.4957 35.1492 29.4761 36.0998 29.5157C36.3149 29.5389 36.3353 29.8198 36.4164 29.9782C36.6543 30.62 36.8166 31.2916 37.1012 31.9151C37.1842 32.0416 37.378 31.9692 37.5046 31.9993C37.9717 31.9971 38.4474 32.0519 38.9093 31.974C39.0707 31.9246 38.9324 31.7305 38.9219 31.6231C38.0751 28.8923 37.1691 26.1801 36.2689 23.4665C35.9936 22.6798 35.7609 21.8739 35.4328 21.1082C35.1863 21.021 34.9015 21.0497 34.6403 21.0246C34.4274 21.0175 34.2141 21.013 34.0011 21.0172ZM34.4407 23.8242C34.5461 23.9569 34.5677 24.1687 34.6393 24.3298C34.9806 25.3817 35.3091 26.4385 35.6257 27.4978C35.5727 27.6479 35.3521 27.6349 35.2189 27.6528C34.6125 27.6635 34.0006 27.6939 33.3973 27.6242C33.2393 27.592 33.3472 27.3746 33.3605 27.2722C33.6843 26.1291 34.0224 24.9887 34.4053 23.8638C34.4134 23.8482 34.419 23.8233 34.4407 23.8242Z" fill="white"/>
<path id="path5356" d="M40.5872 21.043C40.3977 21.0589 40.1848 21.016 40.0078 21.0817C39.944 21.8896 39.9667 22.7053 39.9513 23.5164C39.9376 26.3096 39.9426 29.1032 39.98 31.8962C40.0006 32.0574 40.2252 31.9774 40.3337 32.006C40.8017 32.0169 41.2713 31.9972 41.7376 31.977C41.7615 30.5095 41.7393 29.0402 41.816 27.5741C41.819 27.4756 41.8255 27.3496 41.9583 27.3652C42.8909 27.288 43.8307 27.3172 44.7644 27.2877C44.7634 26.6895 44.7667 26.0893 44.7628 25.4922C43.8054 25.4187 42.8405 25.4785 41.8834 25.397C41.7271 25.3929 41.8066 25.1744 41.7739 25.0753C41.7532 24.404 41.7293 23.7285 41.7916 23.0591C41.8831 22.9153 42.1115 22.9904 42.2572 22.9623C43.4907 22.9211 44.7265 22.9464 45.9587 22.8772C46.099 22.8976 46.1569 22.7728 46.1549 22.6532C46.2045 22.1509 46.2041 21.6369 46.149 21.1373C45.9934 21.0239 45.7725 21.1031 45.5915 21.0739C43.9235 21.054 42.2553 21.0441 40.5872 21.043Z" fill="white"/>
<path id="path5358" d="M25.3705 20.8862C24.6387 20.8772 23.8685 21.0466 23.3148 21.5524C22.8075 21.972 22.4399 22.561 22.3075 23.207C22.2591 23.7148 22.248 24.236 22.3429 24.7392C22.5563 25.5682 23.1068 26.323 23.8881 26.6961C24.877 27.1868 25.987 27.3838 26.9606 27.9075C27.3932 28.1288 27.5233 28.69 27.4154 29.1362C27.2557 29.7762 26.6291 30.1931 25.9929 30.2462C25.4375 30.3099 24.8203 30.2113 24.4248 29.7847C24.0232 29.4219 23.9014 28.877 23.7182 28.3901C23.6763 28.2375 23.5092 28.2181 23.373 28.2446C22.9032 28.2915 22.4209 28.3189 21.9697 28.4637C21.8733 28.5382 21.9672 28.7353 21.9572 28.8575C22.0708 29.4965 22.2388 30.1498 22.5998 30.6968C23.0533 31.3702 23.7372 31.9247 24.5539 32.0625C25.3919 32.2308 26.2681 32.193 27.0985 32.0016C27.9956 31.7067 28.8171 31.0259 29.1031 30.1031C29.3194 29.3616 29.3463 28.5638 29.21 27.8048C29.0712 27.001 28.5423 26.3003 27.8389 25.8997C26.861 25.3168 25.7115 25.136 24.6884 24.6558C24.3028 24.4537 23.945 24.0246 24.0475 23.5627C24.1777 23.024 24.7617 22.7631 25.2762 22.7617C25.7759 22.7228 26.3585 22.7356 26.7197 23.1332C27.008 23.3929 27.0894 23.7844 27.2082 24.1379C27.3261 24.2897 27.5631 24.1996 27.727 24.2256C28.1455 24.2139 28.5739 24.2278 28.9835 24.1345C29.0749 24.02 29.0062 23.8359 29.0163 23.6983C28.9292 22.9598 28.6461 22.2148 28.083 21.708C27.4776 21.0741 26.5626 20.9082 25.7217 20.8906C25.6047 20.8873 25.4876 20.8846 25.3705 20.8862Z" fill="white"/>
<path id="path5360" d="M16.8186 21.0256C16.8198 21.2437 16.8164 21.4638 16.8203 21.6808C17.0982 21.6808 17.3762 21.6808 17.6541 21.6808C17.6541 24.8957 17.6541 28.1106 17.6541 31.3255C17.3758 31.3267 17.0957 31.3232 16.8186 31.3272C16.8198 31.552 16.8164 31.7788 16.8203 32.0026C18.0239 31.9926 19.229 32.0271 20.4316 31.9672C20.4344 31.7549 20.4344 31.5378 20.4316 31.3255C20.1537 31.3255 19.8758 31.3255 19.5978 31.3255C19.5978 28.1106 19.5978 24.8957 19.5978 21.6808C19.8671 21.6797 20.1382 21.6831 20.4063 21.6791C20.4051 21.4722 20.4086 21.2634 20.4046 21.0576C19.2294 21.0493 18.0521 21.0768 16.8781 21.0355C16.8601 21.037 16.8354 21.0199 16.8186 21.0256Z" fill="white"/>
<path id="path5362" d="M10.1685 32.1998C9.38699 32.259 8.64717 32.6314 8.06302 33.1422C7.64359 33.4868 7.41177 34.0248 7.42997 34.5655C7.40455 35.1039 7.45587 35.6449 7.62424 36.1589C7.9487 37.2188 8.44621 38.2554 9.21986 39.0616C9.88615 39.7261 10.8921 39.9891 11.8104 39.8316C12.3164 39.7366 12.8656 39.5225 13.1422 39.0627C13.3342 38.686 13.0338 38.3073 12.962 37.9409C12.8556 37.4792 12.7017 36.986 12.8323 36.5143C12.9103 36.2209 13.268 36.1554 13.5178 36.2642C14.0194 36.4519 14.1796 37.0344 14.2581 37.514C14.3431 37.867 14.2723 38.2996 14.5436 38.5802C14.8322 38.8215 15.2359 38.598 15.4515 38.3629C15.7916 37.9357 15.7568 37.347 15.7513 36.831C15.6484 36.3124 15.241 35.9071 14.8156 35.6224C14.2552 35.2563 13.5812 35.1017 12.9165 35.1218C12.3191 35.1128 11.6321 35.1665 11.217 35.6536C10.7762 36.1836 10.861 36.9462 11.068 37.5567C11.1738 37.924 11.3773 38.2679 11.4208 38.6501C11.4059 38.8404 11.1796 38.9436 11.0191 38.8396C10.423 38.5716 9.93209 38.0827 9.68021 37.477C9.32752 36.7083 9.04277 35.9024 8.87656 35.0725C8.84039 34.6953 8.83242 34.2741 9.08121 33.9633C9.50911 33.4142 10.218 33.1595 10.6241 32.5923C10.7403 32.4368 10.6166 32.2167 10.4287 32.2133C10.3433 32.1975 10.255 32.1964 10.1685 32.1998Z" fill="white"/>
<path id="path5364" d="M14.9768 40.3541C14.6512 40.3774 14.3062 40.4047 14.0117 40.5521C13.7703 40.7219 13.8876 41.0409 13.8752 41.2855C13.8627 41.6494 14.0011 42.0576 13.7919 42.3855C13.6386 42.6537 13.3092 42.6752 13.0331 42.654C12.0005 42.607 11.0401 42.1771 10.1188 41.7442C9.93969 41.6731 9.6583 41.5096 9.51446 41.7193C9.37752 42.1234 9.57391 42.5561 9.76523 42.91C10.0048 43.2927 10.3076 43.7454 10.8005 43.7911C11.6351 43.8754 12.4949 43.7665 13.2812 43.4735C14.1226 43.128 14.7916 42.4288 15.2068 41.63C15.3462 41.3185 15.5106 40.9766 15.4569 40.6278C15.4069 40.4071 15.1791 40.3358 14.9768 40.3541Z" fill="white"/>
<path id="path5366" d="M19.6526 39.5654C19.2972 39.6423 19.0342 39.9281 18.7601 40.1494C17.7784 41.0667 16.8147 42.0052 15.894 42.9838C15.5774 43.3149 15.404 43.7834 15.4965 44.2404C15.5474 44.8609 16.0538 45.3884 16.6649 45.4864C17.3111 45.6077 17.9716 45.6141 18.626 45.6552C18.6479 46.1095 18.6745 46.5688 18.7608 47.0154C18.8949 47.2919 19.2216 47.3934 19.4602 47.5614C19.9332 47.8265 20.3804 48.1406 20.8612 48.389C21.042 48.4276 21.0482 48.1704 21.0872 48.0536C21.1656 47.7087 21.2335 47.3587 21.2503 47.0053C20.8482 46.663 20.3203 46.4413 20.0148 46.0031C19.9142 45.8501 19.8519 45.6845 19.8835 45.4994C19.893 44.6228 19.875 43.7406 19.9802 42.8693C20.018 42.7433 20.2153 42.8299 20.307 42.8432C21.2231 43.186 22.1353 43.5514 23.082 43.8033C23.3425 43.8477 23.5503 43.6259 23.7675 43.5185C23.9268 43.3945 24.1515 43.3132 24.2484 43.1295C24.2273 42.9667 24.012 42.9227 23.8939 42.8415C22.7667 42.3193 21.616 41.8484 20.4673 41.3759C20.0861 41.2471 19.6417 41.0678 19.2518 41.2599C18.9054 41.4842 18.7465 41.9203 18.7616 42.3219C18.7139 42.9765 18.7494 43.6396 18.6437 44.2884C18.6 44.4462 18.3735 44.3671 18.2521 44.3859C17.9487 44.353 17.608 44.3622 17.3434 44.1966C17.0616 43.9809 16.8523 43.5708 17.0545 43.2331C17.3563 42.7295 17.8284 42.3517 18.2373 41.9357C18.7977 41.3829 19.4042 40.8733 19.923 40.2804C20.108 40.0615 19.9616 39.5766 19.6526 39.5654Z" fill="white"/>
<path id="path5370" d="M24.373 45.5403C23.9635 45.5809 23.6533 45.897 23.3514 46.1467C22.6837 46.8059 22.0538 47.5058 21.4678 48.2387C21.3508 48.3561 21.3112 48.5887 21.4919 48.6673C21.8169 48.7536 22.1258 48.5399 22.4293 48.4534C22.5596 48.3535 22.5854 48.5425 22.6215 48.6255C22.772 49.1308 23.0848 49.6793 23.642 49.7967C23.9998 49.8994 24.3658 49.7718 24.725 49.7899C25.2433 50.0602 25.7368 50.4729 26.3504 50.4831C26.9409 50.5144 27.5301 50.4313 28.0954 50.2616C28.7672 50.5931 29.3698 51.051 30.0459 51.3724C30.3469 51.4791 30.6962 51.4277 30.9807 51.2958C31.4417 50.9924 31.562 50.384 31.4967 49.8676C31.434 49.2233 30.9849 48.7124 30.659 48.1822C30.0988 47.3775 29.5351 46.5669 28.8622 45.8513C28.6177 45.5777 28.1864 45.6054 27.9161 45.8241C27.5881 46.0763 27.2334 46.3992 27.1842 46.8339C27.1708 47.0829 27.2587 47.4178 27.5548 47.4436C27.9055 47.4835 28.2696 47.3735 28.6125 47.4681C29.1422 47.69 29.421 48.2273 29.7997 48.6284C30.2057 49.1216 30.6576 49.6139 30.846 50.2371C30.9291 50.4435 30.6674 50.5953 30.494 50.4999C29.6411 50.2078 28.9649 49.5702 28.146 49.2095C27.9624 49.1491 27.7475 49.0944 27.6923 48.8821C27.4826 48.4402 27.4409 47.9193 27.1514 47.5177C26.9645 47.3204 26.6509 47.5034 26.5568 47.7106C26.304 48.1465 26.3508 48.6695 26.2157 49.1389C26.1377 49.3664 25.8495 49.2728 25.6767 49.2324C25.5745 49.2096 25.3938 49.147 25.4695 49.0092C25.5845 48.6467 25.8616 48.285 25.7441 47.8891C25.6541 47.7315 25.4235 47.6139 25.28 47.7771C25.0421 48.0447 24.9177 48.3898 24.6627 48.6454C24.4936 48.8634 24.2248 49.0228 23.9418 48.9402C23.6737 48.8755 23.4581 48.6442 23.3649 48.3936C23.3346 47.9318 23.4981 47.4733 23.6984 47.0638C23.8593 46.7997 24.0443 46.4964 24.346 46.3875C24.5984 46.4383 24.7437 46.7066 24.8852 46.8987C25.0472 47.1466 25.2575 47.4985 25.6026 47.447C25.8039 47.3764 25.7919 47.0979 25.7912 46.9198C25.6836 46.3644 25.2653 45.8976 24.7802 45.6291C24.6553 45.5642 24.5137 45.5329 24.373 45.5403Z" fill="white"/>
<path id="path5372" d="M35.361 47.0554C34.9909 47.0822 34.7636 47.4507 34.6359 47.7628C34.4163 48.3925 34.2501 49.0522 34.2249 49.7209C34.205 50.1471 34.4223 50.6513 34.8784 50.7408C35.5082 50.8013 36.1432 50.7577 36.775 50.7694C36.9063 50.977 36.8601 51.2313 36.7229 51.4222C36.2388 52.1348 35.4505 52.5576 34.8718 53.1853C34.6457 53.4397 34.3661 53.6937 34.2914 54.0379C34.2946 54.3098 34.6252 54.374 34.8422 54.3537C35.6918 54.3442 36.6086 54.1089 37.2037 53.4678C37.6407 52.9211 37.7639 52.1942 37.8233 51.5148C37.9123 50.4649 37.6 49.4105 37.0268 48.5342C36.6702 48.0059 36.3014 47.4256 35.7155 47.1295C35.6045 47.0803 35.4832 47.0487 35.361 47.0554ZM35.7501 48.4357C36.1011 48.4726 36.3417 48.8762 36.2857 49.2122C36.2307 49.4804 35.8861 49.4818 35.6717 49.4388C35.4556 49.3813 35.1286 49.3018 35.1572 49.0185C35.1775 48.715 35.4437 48.4456 35.7501 48.4357Z" fill="white"/>
<path id="path5374" d="M37.4248 43.6269C37.1301 43.6878 36.9815 44.0053 36.852 44.2469C36.6817 44.6449 36.5696 45.1146 36.7072 45.5378C37.2248 46.5865 37.8119 47.5997 38.376 48.6239C38.5793 48.9538 38.742 49.3491 39.0839 49.5592C39.1982 49.6404 39.34 49.6125 39.4132 49.4918C39.6518 49.2279 39.5641 48.8416 39.5372 48.5202C39.3651 47.6505 39.0541 46.8147 38.7563 45.9816C38.466 45.2519 38.1992 44.4988 37.7669 43.8392C37.6844 43.7327 37.5715 43.6159 37.4248 43.6269Z" fill="white"/>
<path id="path5376" d="M49.056 29.322C48.8241 29.4079 48.8007 29.7134 48.7435 29.9224C48.5208 31.1582 48.5047 32.4174 48.517 33.6693C48.4852 33.8792 48.5549 34.0705 48.6572 34.2508C48.9006 34.7428 49.3896 35.1741 49.9688 35.1381C50.6115 35.1852 51.2622 35.1375 51.9 35.2349C52.2595 35.3575 52.4518 35.7972 52.3885 36.1605C52.3329 36.4929 51.9639 36.5891 51.6752 36.6119C51.3637 36.616 51.1349 36.8447 50.8582 36.9462C50.261 37.026 49.6501 36.9911 49.0577 37.1029C48.7476 37.2049 48.3772 37.4044 48.3342 37.7623C48.303 38.0725 48.3379 38.3933 48.5167 38.6575C48.724 39.0418 49.0718 39.3153 49.403 39.5865C49.5795 39.8431 49.4883 40.1852 49.5133 40.4792C49.541 40.7097 49.4468 40.9867 49.1941 41.0274C48.8342 41.0545 48.4844 40.9096 48.1366 40.833C47.6407 40.6826 47.1231 40.5679 46.6646 40.3209C46.4098 40.143 46.1229 39.8846 46.1774 39.5376C46.1607 38.9678 46.5098 38.48 46.732 37.9797C46.8658 37.6928 47.0324 37.414 47.1466 37.1223C47.1476 36.6774 47.2122 36.1771 46.9724 35.7823C46.8801 35.6322 46.6957 35.7327 46.6238 35.8489C46.1259 36.4901 45.7868 37.2377 45.4045 37.9505C45.1428 38.495 44.824 39.0178 44.632 39.5924C44.5325 40.0319 44.72 40.5148 45.0986 40.7638C45.7477 41.1778 46.5014 41.4333 47.1013 41.921C47.2536 42.0312 47.2747 42.2433 47.1588 42.39C46.8485 42.871 46.3982 43.248 46.0031 43.6601C45.1875 44.4481 44.358 45.2522 43.368 45.8159C43.1796 45.9368 42.9817 45.7497 42.797 45.707C42.4578 45.5973 42.1025 45.4207 41.7383 45.4851C41.4807 45.5401 41.3422 45.8308 41.4435 46.0713C41.6224 46.5777 42.0296 46.9761 42.4642 47.2747C42.9986 47.6119 43.7065 47.5071 44.219 47.1764C45.0874 46.6407 45.8394 45.9362 46.5636 45.2221C47.0486 44.708 47.5565 44.1947 47.9047 43.575C48.0451 43.1688 47.9927 42.7143 48.1178 42.3076C48.3397 42.2152 48.5998 42.3278 48.8279 42.3641C49.3895 42.4825 50.0179 42.6063 50.5584 42.3463C50.9255 42.1687 50.9889 41.7272 51.0031 41.3627C51.0418 40.9162 51.001 40.4585 51.0848 40.0185C51.2083 39.7845 51.5333 39.8149 51.7476 39.7052C52.1962 39.5171 52.6049 39.1108 52.6405 38.603C52.6958 38.3025 52.6378 37.9771 52.7338 37.689C53.1723 37.3067 53.7805 37.0424 53.9987 36.4662C54.132 35.9833 54.0771 35.4233 53.7444 35.0303C53.3539 34.5085 52.8482 34.0066 52.1948 33.8546C51.6354 33.8174 51.0683 33.8185 50.5138 33.9102C50.3385 33.5747 50.2261 33.207 50.2357 32.8255C50.2009 32.1368 50.1898 31.4471 50.1685 30.7579C49.8748 30.2889 49.648 29.756 49.2303 29.3809C49.181 29.3447 49.1197 29.3126 49.056 29.322ZM49.878 37.5408C50.358 37.5585 50.9102 37.5528 51.2903 37.8878C51.4351 38.0317 51.5062 38.3115 51.3113 38.4478C51.0185 38.7883 50.5159 38.7353 50.1219 38.6393C49.7942 38.5458 49.369 38.4746 49.216 38.132C49.1417 37.9211 49.1952 37.6047 49.4569 37.5728C49.5947 37.5415 49.7374 37.5421 49.878 37.5408Z" fill="white"/>
<path id="path5380" d="M30.9664 1.90708C27.4871 1.96449 24.0277 2.66792 20.7979 3.9624C15.7014 5.91849 11.3052 9.50486 8.08114 13.8797C4.82877 18.4227 2.98027 23.9534 2.90381 29.5436C2.75167 36.4529 5.33983 43.3557 9.94789 48.4976C14.2131 53.3327 20.1678 56.6536 26.5253 57.7328C34.0737 59.0496 42.1408 57.2642 48.3307 52.7191C53.2393 49.1923 57.0293 44.0956 58.8116 38.3035C61.0109 31.4331 60.3201 23.7151 56.9837 17.3238C55.9133 15.1785 54.4919 13.2122 52.9026 11.4234C51.0683 9.4652 49.061 7.64468 46.7492 6.26392C42.0599 3.29706 36.5048 1.82156 30.9664 1.90708ZM32.2074 3.78652C34.7318 3.74365 37.2259 4.3007 39.636 5.00486C42.9037 6.03602 45.9729 7.72757 48.6197 9.88932C50.995 11.9595 53.149 14.3109 54.7011 17.0664C57.084 21.0856 58.2945 25.7876 58.1679 30.4583C58.2033 35.3554 56.5727 40.1888 53.9293 44.2789C49.9126 50.3297 43.372 54.6868 36.1865 55.8972C33.9941 56.2954 31.7512 56.307 29.53 56.2726C26.5458 55.951 23.561 55.3631 20.8141 54.1144C15.5767 51.8418 11.0744 47.9065 8.23446 42.9457C6.22987 39.4811 5.02702 35.5347 4.81863 31.535C4.74673 29.3 4.78052 27.045 5.2892 24.8563C6.70023 17.7451 11.3107 11.4213 17.4821 7.6792C20.998 5.50101 25.0417 4.18161 29.1628 3.84975C30.1759 3.78122 31.1924 3.7818 32.2074 3.78652Z" fill="white"/>
</g>
</g>
<defs>
<clipPath id="clip0_184_8829">
<rect width="60.9804" height="60" fill="white" transform="translate(0.96582)"/>
</clipPath>
</defs>
</svg>
