<svg width="123" height="40" viewBox="0 0 123 40" fill="none" xmlns="http://www.w3.org/2000/svg">
<mask id="mask0_276_135" style="mask-type:luminance" maskUnits="userSpaceOnUse" x="2" y="0" width="21" height="24">
<path d="M7.52411 2.99849L4.45649 5.74637C3.57614 6.54098 3.0471 7.65246 2.98553 8.83679C2.92397 10.0211 3.33492 11.1815 4.12814 12.0631L4.87128 12.9272L7.86977 16.254L10.8683 19.5722L11.6114 20.4364L14.6099 23.7632L17.9281 20.7647L20.9957 18.0082C21.876 17.2136 22.4051 16.1021 22.4667 14.9178C22.5282 13.7335 22.1173 12.5731 21.3241 11.6915L20.5809 10.8274L17.5824 7.47461L14.5926 4.14775L13.8408 3.28363L10.8078 0L7.52411 2.99849Z" fill="white"/>
</mask>
<g mask="url(#mask0_276_135)">
<path d="M14.5116 -10.1038L-9.19287 9.78662L10.9531 33.7956L34.6576 13.9052L14.5116 -10.1038Z" fill="url(#paint0_linear_276_135)"/>
</g>
<mask id="mask1_276_135" style="mask-type:luminance" maskUnits="userSpaceOnUse" x="0" y="16" width="20" height="24">
<path d="M4.54313 19.2175L1.48416 21.9827C1.04624 22.3749 0.690193 22.8498 0.436515 23.3801C0.182837 23.9104 0.0365304 24.4857 0.00601234 25.0728C-0.0245057 25.6598 0.0613732 26.2471 0.258697 26.8009C0.456021 27.3546 0.7609 27.8639 1.15579 28.2994L1.89893 29.1635L4.89742 32.4904L7.88726 35.8086L8.63905 36.6727L11.6289 39.9996L14.9557 37.0011L18.0147 34.2445C18.4522 33.8523 18.8081 33.3776 19.0619 32.8477C19.3157 32.3177 19.4624 31.7429 19.4937 31.1561C19.525 30.5693 19.4403 29.9822 19.2443 29.4282C19.0483 28.8743 18.745 28.3644 18.3517 27.9278L17.6086 27.0637L14.6101 23.7455L11.6116 20.4187L10.8685 19.5545L7.86998 16.2363L4.54313 19.2175Z" fill="white"/>
</mask>
<g mask="url(#mask1_276_135)">
<path d="M11.5297 6.12714L-12.1748 26.0176L7.97114 50.0266L31.6756 30.1361L11.5297 6.12714Z" fill="url(#paint1_linear_276_135)"/>
</g>
<path d="M89.0539 25.0501C87.6391 24.398 86.1507 23.9193 84.621 23.6244C82.6422 23.175 81.8472 22.6738 81.9595 21.9652C82.141 20.8073 83.9038 20.6604 85.416 20.6604C86.5967 20.6464 87.7772 20.707 88.9502 20.8419L90.3588 21.0579C90.7908 21.0579 90.955 20.911 91.0241 20.5395L91.1365 19.9346C91.1365 19.7185 91.2056 19.5803 91.2142 19.5112C91.2697 19.3174 91.2838 19.1142 91.2555 18.9147C91.2272 18.7152 91.1572 18.5239 91.05 18.3532C90.6661 17.9161 90.1266 17.6463 89.5465 17.6015C88.2787 17.505 87.0066 17.4761 85.7357 17.515C81.1645 17.515 78.6932 19.0791 78.1833 22.3023C78.0665 22.7786 78.0676 23.2763 78.1866 23.7521C78.3055 24.2279 78.5388 24.6676 78.866 25.0329C79.5998 25.6565 80.4655 26.1056 81.3979 26.3463C82.478 26.6401 83.4977 26.9253 84.4828 27.2104C86.4011 27.7635 87.1183 28.2387 87.0146 28.8868C86.8591 29.8719 85.6839 30.3472 83.4285 30.3472C82.1426 30.3515 80.8578 30.2677 79.5832 30.0966L78.287 29.9238C78.1217 29.915 77.9571 29.8948 77.7945 29.8633C77.492 29.8633 77.3365 30.0188 77.2587 30.399C77.181 30.7792 77.1723 30.8657 77.1378 30.978L77.06 31.4965C76.844 32.8445 77.4489 33.1296 78.0019 33.2247C79.7184 33.4746 81.4523 33.5844 83.1866 33.5531C87.801 33.5531 90.2983 31.9199 90.834 28.5585C90.9707 27.8567 90.8689 27.1294 90.5448 26.4922C90.2207 25.855 89.6929 25.3443 89.0453 25.0415" fill="#A0A4A9"/>
<path d="M122.158 17.6537H119.687C119.499 17.6405 119.311 17.6815 119.146 17.7719C118.98 17.8623 118.844 17.9982 118.754 18.1635L113.025 27.6083L110.147 18.1031C110.087 17.887 109.94 17.6451 109.361 17.6451H105.291C104.927 17.6691 104.584 17.8224 104.323 18.0771L97.2199 24.3074L99.2419 11.5271C99.2767 11.4632 99.2915 11.3904 99.2844 11.318C99.2773 11.2456 99.2486 11.177 99.202 11.1211C99.1555 11.0652 99.0932 11.0246 99.0232 11.0045C98.9533 10.9845 98.8789 10.9859 98.8098 11.0087H97.3063C96.8266 10.9769 96.3522 11.1247 95.9755 11.4234C95.607 11.7766 95.3822 12.2537 95.3447 12.7628L92.1648 32.8276C92.1143 32.9613 92.1143 33.1087 92.1648 33.2424C92.2794 33.3259 92.4214 33.3629 92.5623 33.3461H95.1546C95.578 33.3461 95.7595 33.1905 95.82 32.7585L97.0384 25.1024L101.869 32.9227C101.951 33.0623 102.071 33.176 102.214 33.2509C102.358 33.3257 102.52 33.3587 102.681 33.3461H105.861C106.032 33.3595 106.203 33.3137 106.345 33.2165C106.453 33.1003 106.52 32.9513 106.535 32.793C106.546 32.6246 106.494 32.4581 106.388 32.3264L101.255 24.6444L106.621 20.1942L110.432 31.6697L110.372 31.7561L106.051 38.2975C105.933 38.4548 105.848 38.634 105.801 38.8246C105.782 38.8876 105.776 38.9538 105.784 39.0191C105.791 39.0844 105.812 39.1475 105.844 39.2048C105.958 39.2899 106.1 39.3272 106.241 39.3085H108.704C108.906 39.3253 109.109 39.2848 109.29 39.1916C109.47 39.0984 109.62 38.9562 109.724 38.7814L122.34 18.6215C122.451 18.4699 122.536 18.3004 122.59 18.1203C122.616 18.0601 122.629 17.9955 122.629 17.9302C122.629 17.865 122.616 17.8003 122.59 17.7401C122.478 17.6519 122.335 17.6116 122.193 17.6278" fill="#A0A4A9"/>
<path d="M69.222 15.2519C69.2822 15.2596 69.3432 15.2596 69.4034 15.2519C69.6799 15.2519 70.4144 15.1395 71.5464 14.9926C72.6784 14.8457 72.713 14.7939 72.7994 14.4482C72.9636 13.8002 73.3006 11.7435 73.3006 11.7263C73.3474 11.5949 73.3474 11.4515 73.3006 11.3201C73.1901 11.2423 73.0545 11.2085 72.9204 11.2251H72.7476H72.4106C69.8182 11.2251 69.7145 11.9509 69.5158 12.9533L69.222 14.8198C69.1896 14.979 69.1751 15.1413 69.1788 15.3037L69.222 15.2519Z" fill="#E61C3E"/>
<path d="M59.3626 22.1649C59.4847 21.6517 59.4906 21.1178 59.38 20.602C59.2694 20.0862 59.045 19.6017 58.7232 19.1837C57.7726 18.0776 55.837 17.5073 52.9595 17.5073C50.2375 17.5073 48.1464 18.1468 46.7379 19.3911C45.3293 20.6354 44.3875 22.6661 43.9554 25.4399C43.5233 28.2137 43.8258 30.2703 44.8195 31.6011C45.8133 32.9318 47.7402 33.5885 50.4708 33.5885C52.0838 33.6228 53.6972 33.5535 55.3013 33.3812C55.6927 33.3743 56.0679 33.2233 56.3549 32.957C56.6419 32.6907 56.8205 32.3279 56.8567 31.9381L57.0208 30.495C57.0208 29.9852 56.7962 29.9852 56.6752 29.9852L54.61 30.1148C52.8248 30.349 51.0155 30.3316 49.2352 30.063C48.8365 29.9713 48.473 29.7657 48.1892 29.4711C47.9053 29.1765 47.7133 28.8057 47.6365 28.4038L47.5415 27.9718L53.4002 26.9608C54.1934 26.8356 54.9783 26.6625 55.7506 26.4423C56.4389 26.1806 57.0851 25.8196 57.6689 25.3708C58.6091 24.5662 59.2032 23.4306 59.328 22.1995M54.5149 23.7462C53.8612 23.9728 53.1868 24.1349 52.5015 24.2302L47.7575 25.0943L47.8612 24.5499C47.9744 23.3866 48.4839 22.2975 49.3043 21.465C50.2862 20.84 51.4449 20.5519 52.6052 20.6441C53.9964 20.6441 54.8692 20.8774 55.284 21.3613C55.4002 21.4942 55.4835 21.6527 55.5271 21.8239C55.5706 21.995 55.5732 22.174 55.5346 22.3464C55.5006 22.6503 55.389 22.9403 55.2104 23.1885C55.0318 23.4368 54.7923 23.6348 54.5149 23.7635" fill="#A0A4A9"/>
<path d="M66.5865 11.19H65.1175C64.871 11.1597 64.6208 11.1815 64.3833 11.2541C64.1458 11.3268 63.9262 11.4485 63.7388 11.6115C63.5514 11.7744 63.4003 11.975 63.2954 12.2001C63.1906 12.4252 63.1342 12.6699 63.13 12.9182L59.9673 32.8621C59.9341 32.9869 59.9496 33.1197 60.0105 33.2336C60.0624 33.2855 60.1747 33.3546 60.4685 33.3546H63.0176C63.1863 33.3681 63.3544 33.3223 63.4929 33.225C63.6044 33.1108 63.6718 32.9608 63.683 32.8016L67.0271 11.7171C67.0467 11.648 67.0523 11.5757 67.0434 11.5045C67.0344 11.4332 67.0113 11.3645 66.9753 11.3023C66.9235 11.2332 66.7852 11.1986 66.5865 11.1986" fill="#A0A4A9"/>
<path d="M72.0653 17.5159L70.4062 17.6628C68.678 17.8443 68.6002 18.1467 68.4014 19.3911L66.2757 32.7935C66.2409 32.8574 66.2261 32.9303 66.2332 33.0027C66.2403 33.0751 66.269 33.1437 66.3156 33.1996C66.3621 33.2555 66.4244 33.2961 66.4944 33.3161C66.5643 33.3362 66.6387 33.3347 66.7078 33.312H69.3001C69.4661 33.3257 69.6316 33.2797 69.7667 33.1824C69.8846 33.0603 69.9577 32.9019 69.9741 32.733L72.2813 18.1554C72.3505 17.7147 72.2813 17.5764 72.2813 17.5332C72.2182 17.4899 72.1412 17.4715 72.0653 17.4814" fill="#A0A4A9"/>
<path d="M36.671 17.4898C35.393 17.4854 34.1164 17.5749 32.8516 17.7577L32.3331 17.8268L33.3355 11.5274C33.3903 11.3946 33.3903 11.2455 33.3355 11.1126C33.2232 11.0312 33.0846 10.9943 32.9467 11.0089H31.4431C30.9635 10.978 30.4894 11.1257 30.1124 11.4237C29.7471 11.7802 29.5205 12.2549 29.4729 12.7631L26.3016 32.8279C26.2668 32.8918 26.252 32.9646 26.2591 33.0371C26.2662 33.1095 26.2949 33.178 26.3414 33.2339C26.388 33.2898 26.4503 33.3304 26.5203 33.3505C26.5902 33.3705 26.6645 33.3691 26.7337 33.3464H29.326C29.4096 33.3603 29.4952 33.3557 29.5768 33.3329C29.6585 33.3101 29.7341 33.2697 29.7984 33.2145C29.8626 33.1592 29.914 33.0906 29.9489 33.0133C29.9837 32.9361 30.0012 32.8521 30 32.7674L31.8406 21.1277H32.0134C33.2345 20.8926 34.4772 20.7883 35.7205 20.8167C36.511 20.7292 37.309 20.8924 38.0017 21.2833C38.5029 21.7326 38.6585 22.5103 38.477 23.651L37.0167 32.8625C36.9699 32.9968 36.9699 33.1429 37.0167 33.2772C37.1305 33.3624 37.2732 33.3996 37.4141 33.3809H40.0065C40.0905 33.3947 40.1765 33.39 40.2585 33.3673C40.3406 33.3446 40.4167 33.3043 40.4816 33.2492C40.5465 33.1941 40.5987 33.1256 40.6346 33.0484C40.6704 32.9712 40.689 32.8871 40.6892 32.802L42.2532 23.0288C42.5297 21.3006 42.2532 19.9612 41.5101 19.0625C40.6459 18.0256 38.9955 17.4985 36.671 17.4985" fill="#A0A4A9"/>
<defs>
<linearGradient id="paint0_linear_276_135" x1="20.7433" y1="18.5644" x2="7.51816" y2="2.80328" gradientUnits="userSpaceOnUse">
<stop stop-color="#CFD1D4"/>
<stop offset="0.48" stop-color="#E1E3E3"/>
<stop offset="1" stop-color="#F8FBF6"/>
</linearGradient>
<linearGradient id="paint1_linear_276_135" x1="17.2252" y1="35.2452" x2="4.00005" y2="19.4841" gradientUnits="userSpaceOnUse">
<stop stop-color="#CFD1D4"/>
<stop offset="0.48" stop-color="#E1E3E3"/>
<stop offset="1" stop-color="#F8FBF6"/>
</linearGradient>
</defs>
</svg>
