<svg width="61" height="60" viewBox="0 0 61 60" fill="none" xmlns="http://www.w3.org/2000/svg">
<g clip-path="url(#clip0_184_9058)">
<mask id="mask0_184_9058" style="mask-type:luminance" maskUnits="userSpaceOnUse" x="-59" y="-793" width="667" height="943">
<path d="M-58.502 149.068H607.546V-792.914H-58.502V149.068Z" fill="white"/>
</mask>
<g mask="url(#mask0_184_9058)">
<path d="M15.4644 6.57239C15.6411 6.57239 15.7676 6.52092 15.894 6.4191C15.96 6.3542 15.9981 6.2591 16.0216 6.16176C16.0339 6.11588 16.0451 6.06777 16.0451 6.0163C16.0451 5.83951 15.9958 5.71308 15.8683 5.61462C15.7676 5.51168 15.6411 5.43671 15.4644 5.43671C15.3122 5.43671 15.1623 5.51168 15.0616 5.61462C14.9609 5.71308 14.8848 5.83951 14.8848 6.0163C14.8848 6.16847 14.9609 6.31952 15.0616 6.4191C15.1623 6.52092 15.3122 6.57239 15.4644 6.57239Z" fill="#004A8F"/>
<path d="M5.63149 17.7666C5.78366 17.7666 5.90786 17.7163 6.01191 17.6144C6.08688 17.5137 6.16296 17.3884 6.16296 17.262C6.16296 17.1109 6.08688 16.9856 6.01191 16.8838C5.90786 16.8077 5.78366 16.7327 5.63149 16.7327C5.48156 16.7327 5.35512 16.8077 5.25442 16.8838C5.15372 16.9856 5.10449 17.1109 5.10449 17.262C5.10449 17.3884 5.15372 17.5137 5.25442 17.6144C5.35512 17.7163 5.48156 17.7666 5.63149 17.7666Z" fill="#004A8F"/>
<path d="M16.4741 9.7998C16.5289 9.7998 16.5804 9.78973 16.633 9.77295C16.7303 9.75169 16.8199 9.71589 16.9038 9.64987C16.9709 9.58274 17.0056 9.48987 17.028 9.39365C17.0436 9.34665 17.0526 9.2963 17.0526 9.24595C17.0526 9.09379 17.0045 8.94274 16.878 8.84092C16.7773 8.74133 16.6498 8.66637 16.4741 8.66637C16.3219 8.66637 16.172 8.74133 16.0702 8.84092C15.9695 8.94274 15.8945 9.09379 15.8945 9.24595C15.8945 9.39589 15.9695 9.54805 16.0702 9.64987C16.134 9.71253 16.2201 9.74945 16.3119 9.77183C16.3633 9.7875 16.4171 9.7998 16.4741 9.7998Z" fill="#004A8F"/>
<path d="M8.10257 19.2288C7.97837 19.3295 7.92578 19.4805 7.92578 19.6327C7.92578 19.7826 7.97837 19.9348 8.10257 20.0355C8.16746 20.0981 8.25138 20.1328 8.34425 20.1586C8.39571 20.1765 8.44942 20.1865 8.50537 20.1865C8.56355 20.1865 8.61837 20.1765 8.66984 20.1586C8.76159 20.1328 8.84663 20.0981 8.90929 20.0355C9.03684 19.9348 9.08495 19.7826 9.08495 19.6327C9.08495 19.4805 9.03684 19.3295 8.90929 19.2288C8.80859 19.1269 8.65754 19.0531 8.50537 19.0531C8.35543 19.0531 8.20438 19.1269 8.10257 19.2288Z" fill="#004A8F"/>
<path d="M1.54862 31.5068C1.69855 31.5068 1.85072 31.433 1.9503 31.3312L1.93911 31.3189C2.03869 31.2193 2.10247 31.0794 2.10247 30.9284H2.12709C2.12709 30.7784 2.07674 30.6252 1.9503 30.5245C1.88652 30.4618 1.80149 30.4249 1.71086 30.4014C1.65715 30.3846 1.60456 30.3734 1.54862 30.3734C1.48932 30.3734 1.43673 30.3846 1.38526 30.4014C1.29351 30.4249 1.20848 30.4618 1.1447 30.5245C1.01827 30.6252 0.966797 30.7784 0.966797 30.9284C0.966797 31.0794 1.01827 31.2316 1.1447 31.3312C1.2454 31.433 1.39533 31.5068 1.54862 31.5068Z" fill="#004A8F"/>
<path d="M6.04777 45.7303C5.99518 45.7147 5.94148 45.7024 5.88441 45.7024C5.82623 45.7024 5.77364 45.7147 5.72106 45.7303C5.62931 45.7538 5.54427 45.7885 5.48161 45.8523C5.35518 45.9541 5.30371 46.1063 5.30371 46.2562C5.30371 46.4095 5.35518 46.5594 5.48161 46.6612C5.5812 46.7608 5.73225 46.8369 5.88441 46.8369C6.03546 46.8369 6.18763 46.7608 6.28833 46.6612C6.41253 46.5594 6.46512 46.4095 6.46512 46.2562C6.46512 46.1063 6.41253 45.9541 6.28833 45.8523C6.22344 45.7885 6.13728 45.7538 6.04777 45.7303Z" fill="#004A8F"/>
<path d="M44.2327 8.94172C44.3334 8.8399 44.4095 8.68885 44.4095 8.5378C44.4095 8.38675 44.3334 8.2357 44.2327 8.135C44.1309 8.03318 43.9799 7.95934 43.8042 7.95934C43.6531 7.95934 43.501 8.03318 43.4003 8.135C43.2996 8.2357 43.2246 8.36214 43.2246 8.5378C43.2246 8.68885 43.2996 8.8399 43.4003 8.94172C43.501 9.04242 43.6531 9.09277 43.8042 9.09277C43.9799 9.09277 44.1309 9.04242 44.2327 8.94172Z" fill="#004A8F"/>
<path d="M44.6108 5.15918C44.7876 5.15918 44.9398 5.10883 45.0394 5.00925C45.1412 4.90855 45.2173 4.75638 45.2173 4.60533C45.2173 4.42631 45.1412 4.30323 45.0394 4.20141C44.9398 4.10183 44.7876 4.02351 44.6108 4.02351C44.4609 4.02351 44.3087 4.10183 44.208 4.20141C44.1073 4.30323 44.0312 4.42631 44.0312 4.60533C44.0312 4.75638 44.1073 4.90855 44.208 5.00925C44.3087 5.10883 44.4609 5.15918 44.6108 5.15918Z" fill="#004A8F"/>
<path d="M54.3313 16.7308C54.3827 16.7465 54.4387 16.7577 54.4946 16.7577C54.5528 16.7577 54.6099 16.7465 54.6625 16.732C54.7654 16.7085 54.8571 16.6727 54.9232 16.6055C55.0227 16.5071 55.0999 16.3549 55.0999 16.2038C55.0999 16.0517 55.0227 15.9006 54.9232 15.7999C54.8225 15.6992 54.6714 15.6231 54.4946 15.6231C54.3447 15.6231 54.1914 15.6992 54.0896 15.7999C53.99 15.9006 53.915 16.0517 53.915 16.2038C53.915 16.3549 53.99 16.5071 54.0896 16.6055C54.1534 16.6715 54.2406 16.7062 54.3313 16.7308Z" fill="#004A8F"/>
<path d="M52.2757 19.7832C52.3362 19.7832 52.3899 19.7731 52.4447 19.7575C52.5454 19.734 52.6383 19.697 52.7031 19.6333C52.805 19.5303 52.8822 19.3804 52.8822 19.2294C52.8822 19.0772 52.805 18.9261 52.7031 18.8254C52.6047 18.7236 52.4525 18.6498 52.2757 18.6498C52.1236 18.6498 51.9736 18.7236 51.8729 18.8254C51.7722 18.9261 51.6973 19.0772 51.6973 19.2294C51.6973 19.3804 51.7722 19.5303 51.8729 19.6333C51.9356 19.6959 52.0217 19.7317 52.1124 19.7563C52.165 19.7731 52.2175 19.7832 52.2757 19.7832Z" fill="#004A8F"/>
<path d="M58.8553 29.3393H58.8307C58.6797 29.3393 58.5297 29.4143 58.4268 29.5161C58.3283 29.6157 58.25 29.7679 58.25 29.9189C58.25 30.0711 58.3283 30.221 58.4268 30.3228C58.5297 30.4235 58.6797 30.5007 58.8307 30.5007H58.8553C59.0075 30.5007 59.1585 30.4235 59.2592 30.3228C59.3611 30.221 59.4349 30.0711 59.4349 29.9189C59.4349 29.7679 59.3611 29.6157 59.2592 29.5161C59.1585 29.4143 59.0075 29.3639 58.8553 29.3393Z" fill="#004A8F"/>
<path d="M55.9617 45.0185C55.9303 45.0096 55.8968 45.004 55.8621 45.0006C55.8531 45.0006 55.6943 45.0085 55.6439 45.0253C55.551 45.0465 55.466 45.0846 55.4022 45.1483C55.3015 45.2479 55.2266 45.4001 55.2266 45.5523C55.2266 45.7022 55.3015 45.8521 55.4022 45.9539C55.504 46.0546 55.6529 46.1318 55.8061 46.1318C55.9818 46.1318 56.134 46.0546 56.2347 45.9539C56.3354 45.8521 56.4115 45.7022 56.4115 45.5523C56.4115 45.4001 56.3354 45.2479 56.2347 45.1483C56.1631 45.0756 56.0657 45.0409 55.9617 45.0185Z" fill="#004A8F"/>
<path d="M39.5184 55.8884C39.3673 55.8884 39.242 55.9398 39.1413 56.0405C39.0652 56.1412 38.9902 56.2665 38.9902 56.393C38.9902 56.544 39.0652 56.6705 39.1413 56.7712C39.2051 56.8204 39.2856 56.8517 39.3729 56.873C39.4188 56.8875 39.4669 56.8965 39.5184 56.8965C39.5765 56.8965 39.6314 56.8842 39.6828 56.8685C39.7231 56.854 39.76 56.8361 39.7947 56.8126C39.7981 56.8114 39.8025 56.8103 39.8048 56.8081C39.835 56.7868 39.8686 56.7745 39.8954 56.7443C39.9984 56.6705 40.0476 56.544 40.0476 56.393C40.0476 56.2665 39.9984 56.1412 39.8954 56.0405C39.797 55.9398 39.6705 55.8884 39.5184 55.8884Z" fill="#004A8F"/>
<path d="M22.499 56.5441C22.499 56.392 22.424 56.242 22.3233 56.1402C22.2226 56.0395 22.0705 55.9881 21.9205 55.9881C21.7684 55.9881 21.6162 56.0395 21.5155 56.1402C21.4148 56.242 21.3398 56.392 21.3398 56.5441C21.3398 56.6963 21.4148 56.8474 21.5155 56.9458C21.6162 57.0488 21.7684 57.1248 21.9205 57.1248C22.0705 57.1248 22.2226 57.0488 22.3233 56.9458C22.424 56.8474 22.499 56.6963 22.499 56.5441Z" fill="#004A8F"/>
<path d="M18.5154 6.57201C18.9674 6.41089 19.4206 6.2397 19.8693 6.06516C20.1658 6.16809 20.4522 6.25649 20.7353 6.34376C21.0631 6.41872 21.3898 6.49705 21.7177 6.54516C21.8441 6.54516 21.9694 6.47019 21.9694 6.34376C21.994 6.21844 21.9202 6.11662 21.7937 6.09425C21.4637 6.04166 21.1392 5.99355 20.836 5.91634C20.7308 5.88166 20.62 5.84473 20.5104 5.80893C20.9266 5.63662 21.3417 5.4576 21.7557 5.27074C22.2021 5.52137 22.6665 5.62207 23.1543 5.7127C23.2573 5.73844 23.3557 5.76417 23.4575 5.78991C23.5571 5.8134 23.6847 5.73844 23.7104 5.61424C23.7361 5.48781 23.6589 5.36137 23.5347 5.33564C23.434 5.3099 23.3333 5.3099 23.2304 5.28529C22.8992 5.21592 22.5814 5.15438 22.2737 5.03354C22.3666 4.99102 22.4584 4.95074 22.5501 4.90822C22.8668 4.7527 23.1823 4.59158 23.4956 4.4271C24.0875 4.57815 25.3238 4.605 25.3473 4.605C25.4738 4.62962 25.5745 4.53004 25.5745 4.4036C25.5745 4.27717 25.4738 4.17647 25.3731 4.17647C25.3238 4.17647 24.5104 4.14066 24.13 4.0892C24.9322 3.65842 25.7356 3.2008 26.5591 2.7152C26.6598 2.64023 26.7101 2.51156 26.6341 2.38736C26.5837 2.28555 26.4315 2.25981 26.3308 2.31128C25.4458 2.8517 24.582 3.33618 23.7227 3.79157C23.7764 3.62262 23.8424 3.44583 23.9107 3.26905C23.961 3.2187 23.9868 3.1415 24.0125 3.09226C24.0371 3.0408 24.0617 2.96583 24.1132 2.91548C24.1624 2.81478 24.1378 2.66373 24.0371 2.6145C23.9107 2.5373 23.7854 2.58765 23.7361 2.68946C23.7361 2.68946 23.2539 3.76248 23.1968 4.07017C22.9126 4.21787 22.6307 4.36332 22.3487 4.5043C22.2424 4.55353 22.1384 4.60165 22.0321 4.64976C22.0567 4.50319 22.0813 4.35773 22.1216 4.2257C22.1965 3.94933 22.2972 3.6987 22.474 3.47045C22.5501 3.36975 22.5244 3.2187 22.4237 3.1415C22.323 3.06653 22.1708 3.09226 22.0947 3.19296C21.8944 3.49507 21.7691 3.7994 21.6919 4.1015C21.6293 4.35773 21.5856 4.61731 21.5588 4.87242C21.0709 5.09396 20.5842 5.30431 20.093 5.50683C20.1445 5.30767 20.2004 5.11186 20.281 4.90822C20.3806 4.605 20.5316 4.27717 20.7353 3.92472C20.7834 3.8229 20.7599 3.6987 20.6335 3.62262C20.5316 3.57115 20.4063 3.598 20.3314 3.72332C20.1288 4.07577 19.9778 4.4271 19.8525 4.75605C19.7327 5.08948 19.6589 5.3983 19.5873 5.71047C19.1823 5.86935 18.7783 6.02264 18.3643 6.16809C18.239 6.19271 18.1887 6.31914 18.239 6.44558C18.2636 6.57201 18.3901 6.62124 18.5154 6.57201Z" fill="#004A8F"/>
<path d="M4.21923 30.0466C4.2707 29.4872 4.28413 28.8729 4.2763 28.2307C4.68805 27.9185 4.94651 27.4307 5.20385 26.9182C5.20385 26.9182 5.45672 26.4125 5.58092 26.2133C5.65701 26.1126 5.63127 25.9605 5.53057 25.8866C5.42987 25.834 5.27994 25.8609 5.22735 25.9605C5.05169 26.1887 4.92525 26.464 4.79994 26.7191C4.6321 27.0514 4.46427 27.3725 4.25951 27.6254C4.24049 27.0245 4.20804 26.3968 4.17112 25.7568C4.55714 25.542 4.76749 25.1728 4.9756 24.8024C5.10315 24.5999 5.20385 24.3728 5.35379 24.196C5.42987 24.1221 5.42987 23.9688 5.32805 23.8939C5.22735 23.8189 5.10315 23.8189 5.02595 23.9196C4.85029 24.1221 4.72273 24.347 4.59854 24.5742C4.45532 24.8259 4.32105 25.0609 4.13979 25.2287C4.10622 24.6939 4.07266 24.1535 4.04804 23.613C4.42175 23.3109 4.7742 22.2793 4.90175 22.079C4.9756 21.9772 4.95099 21.853 4.8749 21.7758C4.7742 21.6986 4.62203 21.7255 4.54707 21.8273C4.3714 22.0533 4.10622 22.8421 4.02231 22.982C3.98315 21.8508 3.98874 20.7431 4.09392 19.7338C4.11965 19.6074 4.01783 19.481 3.8914 19.481C3.76608 19.4575 3.66538 19.5582 3.63853 19.6846C3.54342 20.6379 3.53783 21.6606 3.56916 22.7078C3.49755 22.6004 3.1865 22.0533 3.13391 21.9772C3.0858 21.8765 2.95824 21.8273 2.83405 21.8765C2.73111 21.9537 2.683 22.079 2.73111 22.1797C2.78146 22.2569 3.37783 23.2058 3.59601 23.4441C3.61951 23.9811 3.64748 24.5216 3.67657 25.0575C3.323 24.7487 2.80831 23.9688 2.80831 23.9688C2.75684 23.8681 2.63153 23.8189 2.50621 23.8681C2.40551 23.8939 2.32943 24.0438 2.37866 24.1445C2.62705 24.7644 3.23573 25.2835 3.71126 25.6606C3.75042 26.3297 3.78734 26.9854 3.80636 27.6108C3.64524 27.4385 3.46622 27.2315 3.31293 27.02C3.05894 26.6922 2.88328 26.1887 2.78146 26.1126C2.683 26.0365 2.45474 26.1619 2.45474 26.1887C2.35292 26.3644 2.60691 26.8186 2.95824 27.2987C3.24244 27.6757 3.59377 28.074 3.82203 28.2475C3.82874 28.8673 3.81755 29.457 3.76608 29.9941C3.76608 30.1205 3.84105 30.2212 3.96748 30.248C4.09392 30.248 4.19462 30.172 4.21923 30.0466Z" fill="#004A8F"/>
<path d="M10.5481 15.1438C10.65 15.0677 10.6735 14.9424 10.6242 14.8406C10.5728 14.7164 10.4228 14.6907 10.321 14.7399C10.095 14.8675 9.89136 14.9939 9.71681 15.1203C9.52772 15.2501 9.36324 15.3542 9.16744 15.4191C9.39681 15.0062 9.63401 14.5564 9.87905 14.0753C10.3255 14.1066 10.7149 13.8593 11.102 13.6322C11.3045 13.5058 11.4813 13.3793 11.657 13.3301C11.7834 13.2786 11.8337 13.1522 11.8091 13.0504C11.7599 12.9273 11.6323 12.8758 11.5316 12.9004C11.3045 12.9743 11.0785 13.1018 10.876 13.2529C10.6209 13.3995 10.3702 13.5539 10.1174 13.6143C10.1185 13.6109 10.1196 13.6065 10.1196 13.6065C10.3065 13.2372 10.5023 12.8557 10.7026 12.4686C11.2866 12.416 12.1616 11.8162 12.3138 11.7155C12.4145 11.6641 12.4402 11.5141 12.363 11.4123C12.3138 11.3127 12.1616 11.287 12.0609 11.3385C11.9098 11.4392 11.2519 11.8979 10.9655 11.9695C11.5898 10.7902 13.069 8.43719 13.0947 8.43719C13.1451 8.33649 13.1205 8.18656 13.0187 8.13621C12.9056 8.06572 12.7938 8.10488 12.7177 8.18656C11.9758 9.24168 11.3146 10.3751 10.7182 11.4806C10.669 11.2266 10.5985 10.2778 10.5985 10.2285C10.6242 10.1021 10.5481 9.97567 10.4228 9.95105C10.2953 9.95105 10.1957 10.0271 10.17 10.1525C10.1453 10.2285 10.3053 11.7323 10.3937 12.0926C10.1811 12.4932 9.97975 12.887 9.78394 13.2719C9.76045 13.2249 9.73807 13.1757 9.71681 13.1287C9.53891 12.7483 9.33751 12.3712 9.43933 12.0188C9.46506 11.8923 9.38674 11.7659 9.26366 11.7413C9.16296 11.7155 9.03653 11.7927 9.01079 11.9181C8.85974 12.4227 9.08464 12.8758 9.31289 13.3301C9.39121 13.4879 9.46282 13.6411 9.51765 13.7855C9.24352 14.3192 8.9817 14.8216 8.73443 15.2736C8.65498 14.9928 8.58114 14.6302 8.53191 14.3136C8.53191 14.2129 8.50505 14.1111 8.50505 14.0339C8.50505 13.9589 8.48156 13.9108 8.48156 13.8336V13.809C8.48156 13.6825 8.38086 13.5818 8.25442 13.5818C8.12799 13.5818 8.02729 13.6825 8.0519 13.809V13.8582V14.0853C8.07764 14.1849 8.07764 14.2867 8.10225 14.3617C8.17498 14.8507 8.3182 15.4739 8.44239 15.7905C8.25778 16.1049 8.07764 16.3903 7.89973 16.6319C7.82477 16.7091 7.8505 16.8591 7.9512 16.934C8.0519 17.0101 8.20295 16.9855 8.25442 16.8837C8.4547 16.614 8.65946 16.294 8.86869 15.9427C9.33751 15.9013 9.61499 15.7189 9.96968 15.4974C10.1196 15.371 10.2953 15.2703 10.5481 15.1438Z" fill="#004A8F"/>
<path d="M42.7717 5.86638C42.3846 5.7377 42.0042 5.59449 41.6226 5.44344C41.6047 5.42218 41.5835 5.39309 41.5611 5.36176C41.4861 5.03392 41.3821 4.70721 41.2579 4.37713C41.1315 4.02468 40.9815 3.67223 40.7801 3.3209C40.7287 3.21908 40.5787 3.19335 40.4769 3.24258C40.3762 3.29405 40.3247 3.44398 40.3997 3.5458C40.5787 3.87475 40.7287 4.20147 40.854 4.53042C40.9278 4.75084 40.9972 4.98469 41.0498 5.2163C40.5619 5.01378 40.073 4.79784 39.5851 4.56847C39.5404 4.28762 39.5113 4.00566 39.4162 3.7237C39.3423 3.42048 39.2148 3.11838 39.0134 2.81516C38.9384 2.71558 38.7874 2.68985 38.6867 2.7637C38.5849 2.83866 38.5849 2.99083 38.6352 3.09265C38.8109 3.3209 38.9149 3.57153 38.9899 3.8479C39.0335 4.01014 39.066 4.1735 39.0928 4.3335C38.9832 4.28091 38.8724 4.23056 38.7616 4.17685C38.3253 3.95867 37.8889 3.72594 37.4525 3.4865C37.4525 3.34104 37.476 3.24146 37.476 3.11838C37.5253 2.86551 37.5767 2.64062 37.3753 2.31166C37.3239 2.21096 37.1997 2.18523 37.0721 2.2367C36.9714 2.31166 36.9468 2.4381 36.9983 2.53768C37.1214 2.73796 37.0721 2.86551 37.0475 3.04118C37.0374 3.10943 37.0262 3.17769 37.0195 3.24929C36.2833 2.83866 35.5392 2.40901 34.7784 1.9581C34.6766 1.90775 34.5266 1.93348 34.4752 2.0353C34.4002 2.13488 34.4517 2.28593 34.5513 2.33516C35.2394 2.75474 35.9219 3.15755 36.5966 3.53685C36.5697 3.54692 36.5429 3.56146 36.5183 3.57153C36.2911 3.69797 36.0897 3.79979 35.7608 3.79979C35.6343 3.79979 35.5348 3.9251 35.5348 4.02468C35.5348 4.15 35.6343 4.25182 35.7608 4.25182C36.1904 4.22608 36.4422 4.12762 36.7197 3.97545C36.8372 3.9251 36.9602 3.86692 37.0911 3.8065C37.5835 4.07615 38.0746 4.33685 38.5602 4.57965C38.6319 4.6177 38.7057 4.64791 38.7773 4.68259C38.4998 4.78441 38.2089 4.84371 37.9057 4.90861C37.8039 4.93322 37.7032 4.95784 37.5767 4.98469C37.476 5.00931 37.4011 5.10889 37.4268 5.23532C37.4503 5.36176 37.551 5.43672 37.6774 5.41211L37.9807 5.33602C38.4405 5.24987 38.8791 5.15364 39.3021 4.93322C39.6926 5.1156 40.0831 5.29351 40.4769 5.46246C40.4187 5.47812 40.3572 5.49826 40.299 5.51169C39.9723 5.61351 39.6702 5.66498 39.3423 5.71309C39.2148 5.73882 39.1398 5.83952 39.1398 5.9682C39.1644 6.09463 39.292 6.16848 39.3927 6.16848C39.7451 6.11701 40.073 6.04204 40.3997 5.94022C40.6347 5.88875 40.8719 5.81267 41.1158 5.72316C41.6103 5.92568 42.1127 6.11925 42.6196 6.29491C42.746 6.34414 42.8713 6.2703 42.8959 6.16848C42.9474 6.04204 42.8713 5.91673 42.7717 5.86638Z" fill="#004A8F"/>
<path d="M51.5019 13.5967C51.5075 13.5318 51.5254 13.458 51.5433 13.3796C51.5691 13.2789 51.5937 13.2029 51.6194 13.1022C51.6977 12.6233 51.7459 12.1198 51.7459 11.5883C51.7459 11.463 51.6463 11.3634 51.5187 11.3634C51.3912 11.3634 51.2927 11.463 51.2927 11.5883C51.2927 12.0873 51.2401 12.5595 51.1674 13.007C50.9716 12.6636 50.7646 12.3234 50.552 11.9833C50.5643 11.9508 50.6102 11.7159 50.637 11.6398C50.712 11.2124 50.7377 10.7335 50.712 10.2277C50.712 10.1281 50.6102 10.0274 50.486 10.0274C50.3584 10.0274 50.2577 10.1528 50.2835 10.2535C50.3058 10.6663 50.2656 11.0781 50.1995 11.435C49.9623 11.0714 49.7139 10.7066 49.4588 10.3441C49.5338 10.1158 49.5808 9.85961 49.6032 9.59779C49.6267 9.29569 49.6535 8.96786 49.6267 8.66688C49.6267 8.53932 49.526 8.4375 49.4029 8.4375C49.2753 8.4375 49.1993 8.53932 49.1993 8.66688C49.1993 8.96786 49.1993 9.27108 49.1489 9.54856C49.14 9.65038 49.1232 9.74549 49.1086 9.84171C48.9531 9.628 48.792 9.41653 48.6186 9.19387C48.3668 8.84142 48.0904 8.51359 47.813 8.18687C47.7358 8.08393 47.5858 8.08393 47.4851 8.16226C47.409 8.2361 47.3844 8.36254 47.4594 8.46436C47.7358 8.78995 48.0166 9.14352 48.2661 9.47248C48.4104 9.65933 48.557 9.85626 48.7002 10.0509C48.3903 9.98829 48.0871 9.90213 47.813 9.64926C47.7123 9.57206 47.5858 9.57206 47.4851 9.67388C47.409 9.74996 47.409 9.89989 47.5109 9.97598C47.9629 10.3788 48.4183 10.456 48.8972 10.5567C48.952 10.5567 49.0225 10.569 49.0941 10.588C49.3783 10.9942 49.6535 11.4026 49.9142 11.8166C49.7945 11.8042 49.6781 11.7785 49.5786 11.7405C49.3246 11.6912 49.1232 11.5883 48.8972 11.5145C48.7965 11.4395 48.67 11.4876 48.6186 11.6152C48.5425 11.7159 48.5951 11.8658 48.7204 11.9173C48.9453 12.0191 49.1993 12.1198 49.451 12.1959C49.6916 12.2406 49.9355 12.2787 50.1917 12.2742C50.4155 12.6345 50.6348 12.9981 50.8407 13.3651C50.712 13.3382 50.5811 13.3036 50.4602 13.2532C50.1828 13.1782 49.9042 13.0507 49.6535 12.9008C49.526 12.8526 49.4029 12.875 49.3503 13.0015C49.2753 13.1022 49.3246 13.2297 49.4253 13.3036C49.7274 13.4546 50.006 13.581 50.307 13.6829C50.5677 13.7679 50.8295 13.8126 51.1025 13.8406C51.4852 14.541 51.8477 15.2426 52.1744 15.9508C52.2247 16.0515 52.3512 16.1041 52.4519 16.0515C52.5783 16.0023 52.6287 15.8759 52.5783 15.7494C52.2494 15.0244 51.8913 14.3072 51.5019 13.5967Z" fill="#004A8F"/>
<path d="M55.1001 24.222C55.024 24.1213 54.8718 24.1213 54.7711 24.1705C54.6715 24.2444 54.6715 24.3977 54.7487 24.4973C54.9982 24.8508 55.3015 25.1775 55.5789 25.455C55.8508 25.728 56.1462 25.9552 56.4595 26.1633L56.5132 27.4478C56.5132 27.5742 56.6128 27.676 56.7392 27.6503C56.8646 27.6503 56.9653 27.5485 56.9406 27.4232L56.8925 26.1487C56.9541 26.0939 57.0134 26.0413 57.066 25.9854C57.1409 25.9115 57.2181 25.8332 57.3177 25.7325C57.697 25.2805 58.0998 24.7009 58.4523 24.0206C58.5026 23.8931 58.4791 23.7666 58.3516 23.7174C58.2497 23.6424 58.1267 23.6917 58.0752 23.7924C57.7216 24.4726 56.8992 25.5222 56.8679 25.5613L56.7929 23.62C57.0536 23.3773 57.2953 23.0684 57.4956 22.7339C57.7216 22.3535 57.9241 21.9272 58.0998 21.4986C58.1513 21.3711 58.0752 21.2458 57.9745 21.1965C57.8481 21.1451 57.7216 21.22 57.6713 21.3218C57.5202 21.7515 57.3177 22.1543 57.1174 22.5056C57.0134 22.6891 56.8936 22.8514 56.7683 22.9968L56.7101 21.4796C57.1935 21.0197 57.4083 20.3137 57.6209 19.582V19.5574C57.6467 19.4567 57.5963 19.3302 57.4688 19.2799C57.3434 19.2553 57.2181 19.3302 57.1935 19.4298V19.4567C57.0536 19.94 56.9015 20.42 56.6833 20.8004L56.5871 18.321C56.5613 18.1946 56.4606 18.0939 56.3353 18.0939C56.21 18.0939 56.1339 18.1946 56.1339 18.321L56.2469 21.06C56.2346 21.0556 55.6047 20.6158 55.3015 20.2869C55.2265 20.1873 55.0732 20.1873 54.9725 20.2634C54.8987 20.3641 54.8987 20.4894 54.9725 20.5901C55.3015 20.9448 55.6528 21.2458 55.9817 21.4225C56.0578 21.4718 56.2402 21.568 56.2693 21.5758L56.3364 23.2419C56.2928 23.2251 56.2458 23.2061 56.21 23.1882C55.8564 23.0114 55.504 22.6824 55.1515 22.2561C55.0732 22.1789 54.9233 22.1543 54.8483 22.2304C54.7487 22.3054 54.7208 22.4564 54.7968 22.556C55.2008 23.0114 55.5789 23.3884 56.0075 23.5898C56.0824 23.6167 56.1574 23.6659 56.2592 23.6917C56.2917 23.7017 56.3252 23.7118 56.3577 23.7241L56.436 25.5949C56.2536 25.4506 56.0757 25.2973 55.9068 25.1272C55.6047 24.8754 55.3529 24.5487 55.1001 24.222Z" fill="#004A8F"/>
<path d="M59.1589 35.39C58.8076 35.719 57.983 36.2549 57.974 36.2572C58.3555 35.3744 58.7472 34.4647 59.1589 33.4991C59.1846 33.3984 59.1332 33.272 59.0325 33.2227C58.9083 33.1713 58.7807 33.2227 58.7315 33.3234C58.3757 34.1548 58.0009 35.0353 57.6137 35.9416C57.5186 35.5657 57.4526 35.1752 57.419 34.7858C57.419 34.6851 57.3944 34.0552 57.3944 34.0306C57.3944 33.9019 57.2937 33.8023 57.1662 33.8023C57.0655 33.8023 56.9648 33.9019 56.9648 34.0306C56.9648 34.0552 56.9648 34.6851 56.9905 34.8116C57.0364 35.4135 57.1326 36.0155 57.3429 36.5794C57.1147 37.1075 56.8864 37.6435 56.6537 38.1839C56.4109 37.7721 56.233 37.338 56.1334 36.9028C56.1077 36.8032 56.082 36.6779 56.0573 36.576C56.0573 36.4753 56.0327 36.3489 56.0327 36.2482C56.0327 36.1218 55.9063 36.0222 55.7799 36.0222C55.6792 36.0222 55.5785 36.1464 55.5785 36.2482V36.2739C55.5785 36.3993 55.6042 36.5235 55.6299 36.6521C55.6299 36.7517 55.6534 36.8781 55.6792 37.0057C55.8213 37.5719 56.0786 38.1402 56.4445 38.6672C56.3248 38.9447 55.8671 40.001 55.7586 40.2527C55.6691 39.9909 55.5885 39.728 55.5292 39.4762C55.4285 39.0477 55.3524 38.5923 55.2741 38.1649C55.2741 38.0384 55.151 37.9623 55.0235 37.9623C54.9228 37.9881 54.8221 38.0888 54.8478 38.2141C54.8982 38.6684 54.9989 39.1215 55.0996 39.5758C55.1924 40.0155 55.3312 40.4306 55.5091 40.8278C55.3334 41.2429 55.1566 41.6569 54.9731 42.0731C54.9228 42.1973 54.9731 42.3249 55.0996 42.3752C55.2003 42.4256 55.3278 42.3752 55.3771 42.2488C55.5561 41.8438 55.734 41.4387 55.9096 41.0337C56.2196 40.867 56.5306 40.698 56.8641 40.4854C57.2176 40.2572 57.5701 40.0301 57.9471 39.7268C58.049 39.6776 58.0747 39.5243 57.9997 39.4259C57.9237 39.324 57.7983 39.2994 57.6965 39.3755C57.3183 39.6519 56.9648 39.9025 56.638 40.105C56.4848 40.1923 56.3393 40.2796 56.1961 40.3612C56.2923 40.1352 56.7399 39.0935 56.8674 38.8015C57.2098 38.6594 57.5533 38.4938 57.8722 38.2644C58.2492 38.0127 58.6286 37.7352 59.0079 37.357C59.1086 37.2809 59.1086 37.1299 59.0079 37.0303C58.9329 36.9542 58.7807 36.9542 58.7046 37.0303C58.3276 37.3828 57.974 37.6602 57.6462 37.8874C57.4761 37.997 57.3049 38.0944 57.1371 38.1839C57.3306 37.7386 57.5253 37.2899 57.7211 36.8379C57.7894 36.8144 58.0993 36.6779 58.2011 36.6264C58.6286 36.3993 59.0828 36.0714 59.4621 35.719C59.5617 35.6418 59.5617 35.4918 59.4867 35.4169C59.4107 35.3162 59.2596 35.3162 59.1589 35.39Z" fill="#004A8F"/>
<path d="M60.7217 30.7265C60.7217 30.5766 60.546 30.4736 60.4196 30.524C59.3231 31.0387 58.3698 31.6395 57.5519 32.3142C57.4769 31.625 57.365 30.9368 57.1827 30.2521C58.7994 28.0344 59.5111 25.6478 59.3869 23.1113C59.2593 20.5155 58.3284 17.791 56.6131 14.9188C56.5124 14.7655 56.2842 14.7655 56.2092 14.9412L54.6461 18.5742C54.5107 18.9423 54.4 19.3116 54.2993 19.6752C53.9871 18.8819 53.4847 17.5281 53.4847 17.2114C53.4847 17.0604 53.5116 16.9104 53.5116 16.7583C53.5362 15.5476 53.5362 14.5641 52.9823 11.7401L52.9566 11.7154C52.1756 9.42171 49.8808 7.50394 47.9641 6.31903C47.6106 6.06728 47.2581 5.867 46.9314 5.68909C46.6036 5.51231 46.3014 5.36126 46.0732 5.26056C45.9221 5.18559 45.7465 5.28629 45.7465 5.43734C45.7051 6.1098 45.7342 6.74757 45.808 7.35736C45.7263 7.30141 45.6503 7.24995 45.5686 7.20183C45.4007 7.0754 45.2262 6.93106 44.97 6.76994C44.9666 6.76659 44.9655 6.76435 44.961 6.76211C44.9241 6.73861 44.0626 5.96993 43.6273 5.48769C43.257 5.05021 42.9045 4.59594 42.702 4.1853C42.6583 4.10027 42.6326 4.00293 42.5879 3.93132L42.5935 3.92573C42.5811 3.91118 42.5677 3.89775 42.5554 3.88656C42.5554 3.88544 42.5532 3.88544 42.5532 3.88321C42.5532 3.88321 42.5521 3.88321 42.5521 3.88097C42.0127 3.31817 41.4913 2.80236 40.7797 2.31117C40.0469 1.80767 39.1641 1.37801 37.9545 0.999825C37.9545 0.999825 36.5962 0.722343 35.1551 0.621643C33.8952 0.52206 32.6353 0.419125 31.5769 0.0163231L31.5746 0.0185585C31.5411 0.00737 31.5075 -0.00269699 31.4896 0.000659943C31.3687 0.0241547 31.3117 0.0554848 31.2893 0.11031C31.2669 0.166252 31.2535 0.162895 31.2725 0.26807C31.4124 1.06472 31.7279 1.75061 32.162 2.38837C31.3106 2.82698 30.5699 3.30027 29.9366 3.77356C29.2317 4.32629 28.6767 4.88349 28.1989 5.48769C28.0971 5.61525 28.1721 5.81441 28.3489 5.84015C29.5595 6.06728 30.7444 6.1691 31.9539 6.11763C33.1019 6.06952 34.2532 5.90616 35.4851 5.65217C35.5277 5.68126 36.1386 6.06728 36.4172 6.21833C37.7733 6.9333 39.2905 7.30813 40.876 7.30589V7.30812C40.876 7.30812 42.2914 7.22645 42.8463 7.17722C43.4002 7.12575 44.5179 7.04407 44.5325 7.04071C44.5605 7.05078 45.657 7.7982 45.8964 7.94142C46.3585 10.5395 47.6844 12.4886 48.5952 13.5549C48.8212 13.8324 49.0226 14.0338 49.1748 14.1848C49.3258 14.3359 49.4265 14.4377 49.4769 14.4645C50.0576 14.9188 50.6371 15.4469 51.2414 16.078C51.8411 16.7001 52.4128 17.4218 53.0361 18.1681L53.0327 18.1703C53.2084 18.5228 53.384 18.8998 53.563 19.3026C53.76 19.7021 53.9356 20.1004 54.1091 20.426C53.9882 20.9698 53.8998 21.5046 53.8394 22.0282C53.7398 22.8909 53.7219 23.7401 53.7644 24.5614C53.5463 24.3164 53.3281 24.0713 53.1077 23.8185C52.6299 23.2881 52.1242 22.7331 51.671 22.1793C51.5446 22.0529 51.342 22.0786 51.2682 22.2296C50.4861 24.4976 50.335 26.4635 50.6371 28.181C50.9393 29.894 51.7214 31.3822 52.7809 32.6431C52.7809 32.6431 53.6123 33.3492 54.0408 33.7016C54.466 34.0552 54.9124 34.4121 55.3398 34.7858C55.0154 35.2916 54.7323 35.8186 54.4951 36.3746C54.2926 36.8289 54.1158 37.3313 53.9658 37.8348C53.8898 38.1447 53.8215 38.4491 53.7577 38.7568C53.6212 38.4714 53.4657 38.1906 53.2833 37.9131C52.9823 37.3816 52.603 36.9028 52.1499 36.3981C52.0492 36.2728 51.8221 36.3232 51.7717 36.4753C51.4427 37.6099 51.04 38.6684 50.5611 39.6776C50.4861 39.8779 50.3865 40.0547 50.2847 40.2572C50.2108 40.4284 50.0072 40.7864 50.0072 40.7864C49.0998 42.072 48.4934 43.3073 48.0906 44.4418C47.6878 45.5999 47.5367 46.7087 47.5602 47.7414C47.4248 47.7918 47.2906 47.8421 47.1574 47.8959C44.9398 48.8279 43.1742 50.2142 41.8125 52.0816C41.3325 52.838 40.829 53.4422 40.199 53.8718C39.6687 54.1997 39.0645 54.4201 38.3596 54.5208C39.6866 53.0696 40.5918 51.2626 41.2071 49.2833C41.2575 49.1065 41.0829 48.9286 40.905 49.0069C40.3255 49.2575 39.7448 49.4343 39.1406 49.5854C38.5106 49.7096 37.9053 49.7879 37.2485 49.8371H37.2239L37.2586 49.9904L37.2619 50.0531L37.2239 49.8371C35.7358 50.0643 34.2991 50.4671 33.0381 51.1227C32.3411 51.4852 31.6921 51.9306 31.098 52.4654C30.637 51.9653 29.9354 51.5658 29.0291 51.2503C28.0456 50.8978 25.348 50.4939 25.348 50.4939C24.567 50.4424 23.786 50.3675 23.0039 50.241C22.2218 50.1403 21.4408 49.9893 20.6576 49.7879C20.4808 49.761 20.3309 49.9389 20.4059 50.1135C21.1387 51.6016 22.2979 52.7373 23.6842 53.6939C24.1955 54.0374 24.7404 54.3574 25.3077 54.6584C25.1533 54.6148 25.0011 54.5711 24.8434 54.5275C23.5678 54.1516 22.2923 53.7275 21.0414 53.2766C18.7868 51.229 16.5077 49.6794 14.1781 48.7272C14.0114 48.6589 13.8413 48.5985 13.6746 48.5336C13.6914 47.5065 13.5918 46.4771 13.3211 45.3996C13.019 44.2908 12.5155 43.1294 11.7076 41.9467C11.7076 41.9467 10.7733 40.7361 10.3482 40.0547C9.91739 39.3487 9.51459 38.5923 9.18788 37.7341C9.11179 37.5842 8.86004 37.5584 8.78508 37.7106C8.4013 38.3853 8.13052 39.107 7.96493 39.8857C7.3708 38.3439 6.49135 36.8983 5.32994 35.5657C7.29248 33.7385 8.66312 31.7648 9.36354 29.6926C10.0953 27.5746 10.1456 25.329 9.51459 22.9592C9.48886 22.8092 9.31207 22.7578 9.21137 22.8092C8.65752 23.061 8.1529 23.4145 7.67402 23.842C7.32045 24.1597 6.97807 24.5334 6.66254 24.9508C6.62674 24.4215 6.5596 23.8856 6.48911 23.3396C6.43876 22.986 6.36268 22.3057 6.36268 22.3057C6.25303 21.8738 6.14226 21.4733 6.03373 21.0962C6.25527 20.7952 6.37387 20.5636 6.4645 20.3387C6.5652 20.1105 6.92324 19.5029 6.93331 19.4705C8.91934 18.2095 10.7543 16.3499 12.0858 14.3124C12.3398 13.9096 12.5904 13.5057 12.8187 13.1017C13.0458 12.6732 13.245 12.2693 13.4229 11.8665C13.4229 11.8665 14.0886 9.68465 14.2419 8.77052C14.582 8.57919 14.9233 8.408 15.2635 8.26143C15.6137 8.08576 15.9885 7.91121 16.3622 7.68744C16.906 7.72548 17.4106 7.70421 17.9365 7.68184C18.4657 7.6561 18.9703 7.63037 19.5242 7.65611C20.7091 7.70534 21.8436 7.60575 22.9021 7.30141C23.9617 7.02505 24.9463 6.54617 25.8526 5.79092C26.7343 5.00881 27.4403 4.22559 27.9696 3.4211C28.4753 2.58753 28.8043 1.70585 28.8781 0.696609C28.9016 0.54668 28.7259 0.419121 28.576 0.470589C27.1897 1.02556 25.7016 1.3534 24.2134 1.68011C23.7099 1.78193 23.1796 1.90725 22.6492 2.0348L22.6515 2.03927C20.8489 2.39396 19.5443 3.12125 18.5149 4.04992C17.4956 4.99538 16.746 6.11427 16.097 7.33051C15.7591 7.5196 15.4212 7.68967 15.062 7.85638C14.8237 7.95932 14.5776 8.07681 14.3303 8.201C14.365 7.96156 14.3997 7.721 14.4321 7.48044C14.4813 7.0754 14.5574 6.62113 14.6078 6.21833C14.6581 6.04266 14.4556 5.91623 14.3057 5.99343C12.615 6.72183 11.6584 7.52967 10.5238 8.48743C10.196 8.76604 9.38368 9.44185 9.38368 9.44185L9.38704 9.44856C6.59429 12.1171 6.53946 15.9851 6.51373 18.723V19.344C6.25526 19.6674 6.15233 19.927 6.03485 20.1631C5.99345 20.285 5.94198 20.4081 5.86813 20.5435C5.72939 20.097 5.59288 19.6808 5.45526 19.2803C5.12631 18.4232 4.80071 17.64 4.37106 16.8075C4.29609 16.6565 4.06784 16.6307 3.99287 16.7829C3.08545 18.2453 2.65692 19.457 2.17691 20.8433C2.00125 21.2954 1.62418 22.3303 1.62418 22.3303C0.614942 26.1614 2.32908 29.8448 3.51511 32.3892C3.57441 32.5525 3.64825 32.7092 3.69077 32.792V33.4499C3.69077 33.5674 3.69077 33.6736 3.67846 33.9075C3.41776 33.6792 3.15706 33.4566 2.88405 33.2473C2.4544 32.9195 2.00125 32.5906 1.52236 32.2638C1.37131 32.1631 1.19341 32.2638 1.16879 32.4417C1.04124 35.0118 1.26949 37.2809 1.90055 39.173C2.5551 41.0639 3.6393 42.5778 5.20351 43.6609C6.43876 44.5168 7.47262 45.4746 8.30395 46.5353C8.455 46.7613 8.60605 46.9627 8.75822 47.1898C8.78507 47.2312 8.81305 47.2771 8.84102 47.3207C8.86675 47.3935 8.88913 47.464 8.91487 47.5356C8.24577 47.511 7.5722 47.5255 6.89191 47.5926C6.71625 47.5926 6.61443 47.822 6.74198 47.9719C7.32045 48.5773 7.8743 49.2575 8.455 50.0128C9.03571 50.7703 10.1714 52.4341 10.1714 52.4341C11.4805 53.9714 13.0458 54.8553 14.7834 55.2581C16.5054 55.6319 18.4008 55.5602 20.3947 55.2179L26.6907 56.932C25.433 57.6101 23.9237 58.1382 22.1726 58.5365C22.0954 58.5622 22.0204 58.6875 22.0204 58.7625C22.0204 58.9393 22.0204 59.1396 22.0954 59.3186C22.1446 59.5178 22.2722 59.7192 22.4747 59.9217C22.4993 59.9485 22.6257 60 22.6492 60C23.4817 59.8478 24.2884 59.671 25.0963 59.4193C25.9298 59.1922 27.5925 58.5119 27.5925 58.5119C28.0456 58.259 28.7024 58.2322 29.5069 58.2075C29.9108 58.1829 30.3405 58.1583 30.8451 58.108C31.2087 58.0677 31.5556 58.0151 31.8969 57.9536C31.9204 57.9782 34.326 58.7368 35.5344 58.9908C36.7193 59.2671 37.9288 59.4417 39.1909 59.4954C39.2413 59.4954 39.342 59.4417 39.3666 59.3936C39.568 59.1161 39.6698 58.814 39.6955 58.5365C39.719 58.2322 39.6698 57.9558 39.5176 57.6526C39.4941 57.6033 39.3923 57.553 39.342 57.5295C38.6102 57.4512 37.8527 57.3751 37.0975 57.2498C36.4631 57.1446 35.8488 57.0126 35.2379 56.857C36.1128 56.4207 36.8894 55.8926 37.5763 55.2828C37.9568 55.2805 38.2723 55.2581 38.5845 55.2335C38.9257 55.2067 39.267 55.1843 39.6105 55.1597C41.6469 55.5356 43.5557 55.5602 45.3179 55.1328C47.0824 54.7032 48.6948 53.8472 50.1571 52.509C51.5446 51.2234 52.603 50.1135 53.3348 49.1568C54.09 48.1991 54.5208 47.4181 54.7211 46.7613C54.7479 46.6102 54.6193 46.4592 54.4436 46.4838C54.0296 46.5722 53.6123 46.6405 53.1983 46.7031C53.5295 46.1705 53.8092 45.6055 54.024 45.0192C55.1049 44.5907 56.1611 44.0849 57.1927 42.9537C58.2008 41.8449 60.0067 37.7128 60.1667 37.206C60.3279 36.6991 60.6456 34.0787 60.7217 32.4664C60.7474 32.1396 60.7474 31.8364 60.7474 31.5332C60.7474 31.2557 60.7474 30.9782 60.7217 30.7265ZM31.9293 5.66448C30.8966 5.70923 29.8638 5.62644 28.811 5.44965C29.2071 4.99203 29.658 4.5579 30.2141 4.12825C30.8384 3.66391 31.5769 3.2018 32.4317 2.75984C32.4664 2.80236 32.999 3.43117 33.2597 3.70194C32.2706 3.93691 30.4669 4.63062 30.4669 4.63062C30.3405 4.67986 30.2913 4.80741 30.3405 4.93272C30.3662 5.03455 30.5173 5.11063 30.618 5.06028C30.618 5.06028 32.9072 4.17412 33.6367 4.08461C33.9993 4.4393 34.9481 5.25496 35.0074 5.30196C33.9545 5.50895 32.9307 5.6421 31.9293 5.66448ZM42.8217 6.72183C42.241 6.7733 41.6614 6.82365 41.1579 6.84938C39.5176 6.90085 38.006 6.54616 36.6432 5.81441C36.3657 5.68909 33.9545 4.2088 32.8613 2.61438C32.83 2.5741 32.736 2.47005 32.5738 2.22166C32.4116 1.96991 32.0222 1.55032 31.7906 0.552273C32.8267 0.875629 33.9657 0.986401 35.1058 1.07591C36.0379 1.15311 36.8659 1.15871 37.8281 1.42948C38.7903 1.69801 39.8466 2.21046 40.5269 2.68935C41.1926 3.13355 41.714 3.64936 42.232 4.19202C42.4178 4.68769 42.8329 5.27511 43.2995 5.79092C43.5758 6.09749 43.8701 6.38504 44.1219 6.62672C43.681 6.66589 43.2424 6.70169 42.8217 6.72183ZM51.5703 15.7748C50.9695 15.1493 49.7543 14.111 49.7543 14.111C49.7286 14.0852 49.149 13.5325 48.923 13.2785C47.8489 11.9862 46.0945 9.34227 46.1884 5.81105C46.354 5.89497 46.5319 5.9856 46.7289 6.09525C47.0321 6.24406 47.3845 6.44658 47.7381 6.6726C49.5697 7.82729 51.7762 9.68242 52.5415 11.8385L52.5281 11.8419C53.1077 14.6156 53.0819 15.5734 53.0573 16.7583V17.2114C53.0573 17.2931 53.0819 17.424 53.1233 17.5851C52.6042 16.9295 52.0872 16.3141 51.5703 15.7748ZM18.7935 4.37776C19.7759 3.49607 21.038 2.81578 22.7499 2.46222C23.2803 2.33578 23.786 2.2362 24.3153 2.10865C25.7016 1.80879 27.0666 1.50556 28.3891 1.03004C28.2616 1.79759 28.0065 2.51257 27.5925 3.16824C27.089 3.94922 26.4065 4.70671 25.5505 5.46308C24.7181 6.14336 23.786 6.59763 22.7757 6.874C21.7676 7.1526 20.6856 7.2533 19.5488 7.22645C18.9703 7.17722 18.44 7.20183 17.9119 7.22645C17.4934 7.24771 17.0761 7.26673 16.6464 7.24995C17.2484 6.17805 17.9085 5.19678 18.7935 4.37776ZM6.968 18.723C6.9915 16.0265 7.01835 12.2201 9.79096 9.67346C10.1714 9.37024 10.4981 9.09388 10.8259 8.84101C11.8464 7.95932 12.7258 7.22645 14.1155 6.5663C14.073 6.86952 14.0371 7.15148 14.0025 7.43008C13.8268 8.71569 13.6489 9.97556 12.9943 11.6908C12.8433 12.0947 12.6397 12.4718 12.4148 12.8746C12.2134 13.2785 11.9605 13.6824 11.7076 14.0606C10.4645 15.9482 8.79067 17.6937 6.96576 18.8998C6.96576 18.8428 6.968 18.7812 6.968 18.723ZM23.9371 53.3169C22.7332 52.5001 21.7161 51.5345 21.0302 50.3216C21.6702 50.4671 22.3046 50.5924 22.9536 50.6953C23.7267 50.8184 24.4999 50.8934 25.2977 50.9448C26.7108 51.0981 27.9203 51.3241 28.8781 51.6531C29.7229 51.9507 30.3595 52.33 30.7713 52.7753C30.4457 53.102 30.138 53.4612 29.8538 53.8584C29.3984 53.6615 28.9408 53.4713 28.4842 53.2878C28.3198 52.9678 28.0546 52.6198 27.7435 52.3076C27.6932 52.2338 27.371 51.8701 27.3206 51.8701C27.2233 51.8097 27.108 51.8332 27.0107 51.9048C26.9458 51.9932 26.9592 52.1185 27.0151 52.1991L27.014 52.2025C27.0151 52.2036 27.6507 52.8637 27.7525 52.9913C27.381 52.8447 27.0096 52.6948 26.6392 52.5448C26.3718 51.991 26.054 51.5815 25.7519 51.351C25.6758 51.3018 25.6009 51.2503 25.5237 51.2234C25.4487 51.1742 25.3737 51.1485 25.2977 51.1485C25.1723 51.1227 25.0705 51.2234 25.0459 51.351C25.0213 51.4517 25.2977 51.6016 25.348 51.6273C25.3995 51.6531 25.8123 52.0223 25.9813 52.2763C25.0504 51.8959 24.0993 51.5054 23.0778 51.0992C22.9536 51.0466 22.8271 51.0992 22.7757 51.2234C22.7253 51.3241 22.8014 51.4763 22.9021 51.5009C23.8207 51.8836 24.8076 52.2853 25.8202 52.6948C25.7564 52.6992 25.6904 52.7071 25.6244 52.7104C25.348 52.7373 25.0459 52.7104 24.7181 52.6858C24.5916 52.6858 24.4909 52.7619 24.4909 52.8872C24.4663 53.0137 24.567 53.1144 24.6923 53.1401C25.0213 53.1658 25.348 53.1658 25.6501 53.1658C25.9712 53.1401 26.2912 53.0897 26.5665 52.9935C26.9749 53.1569 27.3877 53.3225 27.8028 53.4869C27.654 53.5395 27.4996 53.582 27.3396 53.6201C27.0107 53.6704 26.6593 53.7197 26.3304 53.7454C26.2062 53.7454 26.1055 53.8472 26.129 53.9714C26.129 54.0979 26.2319 54.1997 26.3561 54.1997C26.7108 54.1739 27.089 54.1225 27.4403 54.0486C27.767 53.9781 28.0714 53.8629 28.3757 53.7253C28.7875 53.8998 29.2026 54.0676 29.6188 54.2332C29.3492 54.7155 29.0068 55.1597 28.595 55.5625C28.3869 55.5088 28.1777 55.4517 27.9696 55.3958C26.5072 54.8028 25.1332 54.137 23.9371 53.3169ZM6.69051 25.6825C6.69835 25.6725 6.70842 25.668 6.71625 25.6579C7.09555 25.0515 7.52185 24.5737 7.9515 24.1709C8.33305 23.8319 8.73361 23.5667 9.14983 23.3396C9.67907 25.5281 9.61193 27.5813 8.95962 29.5405C8.26032 31.5623 6.94227 33.4599 5.03232 35.2356C4.90253 35.0946 4.7705 34.9548 4.63511 34.8149C4.97973 34.2532 5.31988 33.6535 5.65219 33.0213C5.65442 33.0202 5.65554 33.0202 5.65778 33.0202C5.93414 32.8445 5.93414 32.8445 5.95988 32.8445C6.28771 32.6174 6.64016 32.4149 6.968 32.2146C7.0687 32.1396 7.09555 32.011 7.04297 31.9103C6.968 31.8118 6.84156 31.7603 6.74198 31.8364C6.48911 31.9864 6.26422 32.124 6.04156 32.2605C6.26981 31.8029 6.49135 31.3285 6.70842 30.8395C6.92996 30.6672 7.14926 30.5206 7.34619 30.3964C7.57332 30.2957 7.77472 30.195 7.97724 30.1469C8.10255 30.1201 8.17864 29.9936 8.1529 29.894C8.12829 29.7676 8.00185 29.6926 7.8743 29.7173C7.62367 29.7922 7.39653 29.8694 7.14478 30.0194C7.10786 30.0373 7.06982 30.0652 7.03289 30.0854C7.17835 29.7396 7.32045 29.3816 7.46143 29.0191C7.46478 29.0157 7.47038 29.0146 7.47262 29.0101C7.59793 28.8602 7.7501 28.7337 7.9515 28.5838C8.17864 28.4563 8.40465 28.3298 8.68326 28.2056C8.80857 28.1542 8.83431 28.0042 8.78508 27.9024C8.73361 27.776 8.60605 27.7514 8.50535 27.8017C8.2178 27.9226 7.97724 28.0635 7.75905 28.209C7.88101 27.8498 7.99626 27.4895 8.10703 27.1349C8.12381 27.1237 8.13836 27.1136 8.1529 27.0946C8.27822 26.9435 8.40465 26.7936 8.53109 26.6918C8.68326 26.5642 8.80857 26.4635 8.98424 26.3639C9.08494 26.3147 9.11179 26.1883 9.06144 26.0618C9.00997 25.96 8.88354 25.9343 8.75822 25.9858C8.63402 26.0574 8.5143 26.1424 8.39794 26.2274C8.46955 25.9958 8.5378 25.7597 8.60605 25.5315C8.63179 25.4062 8.55682 25.2809 8.43039 25.254C8.32969 25.2048 8.20325 25.2809 8.1529 25.4062C8.02647 25.9343 7.8743 26.44 7.72437 26.92C7.5487 27.4235 7.39653 27.9024 7.21975 28.3813C6.35261 30.7567 5.34113 32.7908 4.3028 34.4871C4.23903 34.4278 4.18196 34.3662 4.11819 34.3058C4.1014 34.289 4.11818 33.197 4.14392 32.7741C4.51315 32.1508 4.85889 31.3631 5.20351 30.5766C5.42729 30.0518 5.91065 29.037 5.91065 29.037C6.51485 27.8666 6.69499 26.7768 6.69051 25.6825ZM2.046 22.4534L2.0516 22.4568C2.253 21.9533 2.4309 21.4464 2.58195 20.9933C3.01943 19.7524 3.41664 18.6548 4.15399 17.3793C4.4919 18.0573 4.7705 18.7253 5.02561 19.4302C5.32883 20.2873 5.63093 21.2461 5.93414 22.4064H5.9375C5.96323 22.7477 6.01135 23.0688 6.05946 23.3888C6.28771 25.254 6.48911 26.9693 5.53023 28.8087C5.53023 28.8087 5.02561 29.8694 4.80071 30.3964C4.51204 31.0566 4.22448 31.691 3.93469 32.2336C3.93133 32.2191 1.07704 26.1267 2.046 22.4534ZM5.45526 43.2815C3.96714 42.2723 2.95902 40.8368 2.32908 39.0197C1.75621 37.2809 1.52796 35.2233 1.60963 32.8748C1.95201 33.112 2.28321 33.3548 2.60657 33.5998C3.0351 33.9288 3.43902 34.2812 3.8172 34.609C5.73162 36.425 7.04297 38.4412 7.77472 40.66C7.78255 40.7003 7.80269 40.7316 7.82843 40.7585C7.78031 41.206 7.76017 41.6659 7.77472 42.147C7.81052 43.3297 8.04101 44.6153 8.43039 46.0027C7.61472 45.0024 6.63233 44.0894 5.45526 43.2815ZM8.22899 42.1224C8.18311 40.7137 8.41808 39.4639 8.94732 38.3551C9.25277 39.0566 9.59291 39.6966 9.96886 40.2818C10.3963 40.9856 10.8763 41.6178 11.3552 42.1973C12.1115 43.333 12.5904 44.4418 12.8936 45.5003C13.1487 46.4995 13.2271 47.4349 13.2204 48.3658C12.8108 48.2237 12.3991 48.1028 11.9851 47.9977C11.9113 47.8377 11.8452 47.6732 11.7736 47.5121C11.8687 47.3252 11.7591 47.568 11.7826 47.5188C12.0355 46.9135 12.2872 46.2824 12.5155 45.7286C12.5658 45.6021 12.4886 45.4746 12.3879 45.4253C12.2626 45.3996 12.135 45.4488 12.0858 45.5529C11.8945 46.0486 11.7177 46.5006 11.5331 46.9437C11.354 46.5073 11.1862 46.0653 11.024 45.6223C11.1269 45.4052 11.2276 45.196 11.3305 44.9711C11.4805 44.6679 11.6069 44.3423 11.7333 44.0648C11.7826 43.9618 11.7333 43.8119 11.6326 43.785C11.5062 43.7369 11.3798 43.785 11.3305 43.8857C11.203 44.1901 11.0531 44.4922 10.9278 44.7943C10.8919 44.8748 10.8528 44.9532 10.8159 45.0315C10.7689 44.895 10.7196 44.7574 10.676 44.6186C10.5943 44.3758 10.5205 44.1364 10.4455 43.8958C10.4701 43.8701 10.4903 43.8399 10.4981 43.8119C10.5238 43.6094 10.5731 43.408 10.648 43.1797C10.7498 42.9783 10.8517 42.778 11.0016 42.5778C11.0777 42.4994 11.0777 42.3495 10.977 42.2723C10.8763 42.1973 10.7498 42.1973 10.676 42.298C10.4735 42.5263 10.3482 42.778 10.2463 43.0298C10.2329 43.0589 10.2262 43.0913 10.2161 43.1215C10.027 42.4748 9.85809 41.8315 9.71599 41.1892C9.69026 41.0639 9.56494 40.9856 9.46424 41.0382C9.33781 41.0639 9.26284 41.1635 9.28746 41.2888C9.43739 41.978 9.61641 42.6684 9.81445 43.3509C9.55599 43.2099 9.2841 43.0332 9.00997 42.8027C8.90927 42.7266 8.78508 42.7523 8.70787 42.8553C8.60605 42.9302 8.63179 43.079 8.73361 43.1574C9.06144 43.4337 9.43851 43.6844 9.79096 43.8376C9.86145 43.86 9.92634 43.8835 9.97781 43.9059C10.0628 44.1856 10.1535 44.4653 10.2463 44.7451C10.3045 44.9252 10.3683 45.1042 10.4287 45.2844C10.3336 45.2362 10.2385 45.1904 10.1456 45.1479C9.86704 44.9957 9.61529 44.8704 9.33781 44.7697C9.21137 44.7193 9.08494 44.7697 9.03571 44.8704C9.00997 44.9957 9.06144 45.1232 9.1599 45.1725C9.43851 45.2732 9.69026 45.3996 9.94425 45.526C10.1568 45.6446 10.3761 45.7621 10.6324 45.8617C10.8763 46.5319 11.1448 47.1977 11.4424 47.8612C10.8047 47.7224 10.1613 47.6262 9.51459 47.5725C9.42732 47.4147 9.33445 47.2603 9.23823 47.1026C8.61948 45.2486 8.27486 43.5993 8.22899 42.1224ZM20.3812 54.7546C18.4142 55.1328 16.5479 55.2067 14.8853 54.8039C13.2315 54.429 11.7524 53.6011 10.5216 52.1577H10.5238C9.94425 51.3241 9.38704 50.4939 8.80857 49.7364C8.32633 49.1098 7.84745 48.5202 7.36856 47.9943C9.6511 47.8522 11.8497 48.2338 14.0025 49.1311C16.2973 50.09 18.5664 51.6016 20.7829 53.6436C20.8098 53.6436 23.4336 54.5756 24.7181 54.956C25.7239 55.2514 26.7287 55.5267 27.7357 55.7919C27.8722 55.8512 28.0121 55.906 28.1497 55.9619C27.8677 56.1969 27.5623 56.4151 27.2333 56.6187L20.3812 54.7546ZM37.0225 57.6783C37.714 57.798 38.4491 57.8931 39.1663 57.967C39.2446 58.1482 39.2659 58.3183 39.2659 58.485C39.2446 58.6708 39.173 58.8386 39.079 59.0333C37.9087 58.9762 36.7596 58.8061 35.6116 58.5622C34.6381 58.3508 33.6647 58.0822 32.6913 57.7801C33.3906 57.6101 34.0429 57.3952 34.6527 57.1356C34.6795 57.1714 34.7131 57.205 34.7523 57.2263C35.5098 57.4019 36.265 57.553 37.0225 57.6783ZM37.4264 54.8039C35.8365 56.3177 33.6681 57.3505 30.7936 57.6783C30.3405 57.7298 29.8862 57.7298 29.4834 57.7533C28.6252 57.7801 27.9438 57.8305 27.3654 58.1326L27.371 58.1393C26.5709 58.4649 25.7698 58.7647 24.9698 58.9908C24.2269 59.2056 23.4649 59.3947 22.6985 59.5222C22.6101 59.4036 22.5441 59.2906 22.525 59.1922C22.4971 59.1027 22.4769 59.0221 22.4646 58.9415C24.3242 58.4929 25.9231 57.9043 27.2154 57.1491C28.482 56.4072 29.4499 55.483 30.0619 54.3563C30.1234 54.3373 30.1738 54.2925 30.1894 54.2243C30.204 54.193 30.2073 54.1527 30.204 54.1158C31.0499 52.9734 32.0848 52.1163 33.2653 51.5009C34.4748 50.871 35.8365 50.4939 37.3 50.2668L37.2977 50.2645C37.9702 50.2388 38.5923 50.1627 39.2144 50.0128C39.709 49.9009 40.1722 49.7487 40.6298 49.5775C39.9462 51.6128 38.9291 53.4165 37.4264 54.8039ZM54.2691 22.0786C54.3933 20.9933 54.6461 19.8844 55.0735 18.723L56.433 15.5353C57.9759 18.1916 58.8364 20.7337 58.9326 23.1113C59.0512 25.4655 58.4302 27.6585 57.0271 29.7184C56.9634 29.5159 56.894 29.3133 56.8145 29.1131C56.3614 27.9069 55.6587 26.7007 54.579 25.5169L54.5947 25.508C54.4861 25.3816 54.3731 25.2529 54.2601 25.1253C54.1437 24.1429 54.146 23.1337 54.2691 22.0786ZM54.3172 33.3492C53.9188 33.0247 53.5216 32.7002 53.1256 32.3534C52.0951 31.145 51.3678 29.7385 51.0657 28.1038C50.805 26.5385 50.9303 24.7673 51.5759 22.7578C51.9597 23.2131 52.367 23.6652 52.7809 24.1217C53.1435 24.5189 53.4914 24.9195 53.8383 25.3178C53.8562 25.3569 53.8864 25.3894 53.9189 25.4118C54.0263 25.536 54.1348 25.6602 54.2433 25.7844V25.809C55.2749 26.9435 55.9575 28.1038 56.4117 29.2898C56.8224 30.4042 57.045 31.541 57.1289 32.6801C56.9063 32.8804 56.6993 33.0896 56.5001 33.3033C56.1488 32.7461 55.8109 32.1855 55.4864 31.625C55.6106 31.2971 55.7124 30.7533 55.7561 30.0943C55.7561 29.9186 55.8053 29.1377 55.8053 29.1131C55.8053 28.9877 55.7046 28.8859 55.5782 28.8859C55.454 28.8859 55.3522 28.9877 55.3522 29.1131C55.3522 29.1131 55.3275 29.9187 55.3018 30.0462C55.2727 30.4479 55.228 30.797 55.1709 31.0733C54.8878 30.5732 54.2131 29.3044 54.1482 29.1735C54.2288 28.9575 54.3038 28.6465 54.344 28.2806C54.419 27.8521 54.4693 27.3474 54.4951 26.8686C54.4951 26.7679 54.419 26.6403 54.2926 26.6403C54.1661 26.6403 54.0665 26.7186 54.0408 26.8428C54.0162 27.3206 53.9658 27.8017 53.9144 28.2291C53.8898 28.3488 53.8707 28.4607 53.8472 28.567C53.3639 27.5634 52.9197 26.5541 52.5023 25.5315C52.4531 25.4062 52.3256 25.3547 52.2002 25.4062C52.0984 25.4554 52.0492 25.583 52.0984 25.6837C52.5258 26.7488 52.9823 27.7984 53.4914 28.8344C53.3348 28.7684 53.1748 28.6856 53.007 28.5838C52.7037 28.407 52.377 28.1542 52.0492 27.9024C51.9485 27.8263 51.8221 27.8263 51.7471 27.927C51.671 28.0266 51.671 28.1542 51.7717 28.2291C52.0984 28.5066 52.4531 28.7595 52.7809 28.9877C53.1121 29.1757 53.4444 29.3189 53.7779 29.3995C53.8416 29.5214 54.4559 30.7131 54.7133 31.1763C54.5298 31.0901 53.4098 30.4736 53.0327 30.195C52.932 30.1469 52.8044 30.1715 52.7295 30.2733C52.6545 30.374 52.678 30.4994 52.7809 30.5766C53.1849 30.8529 54.6954 31.6708 55.0847 31.842C55.4349 32.4451 55.8042 33.0471 56.1913 33.6468C55.9832 33.8918 55.7874 34.1413 55.6028 34.3998C55.1854 34.0529 54.7513 33.6904 54.3172 33.3492ZM54.1538 46.9828C53.9479 47.5221 53.5586 48.1599 52.9823 48.9051C52.2506 49.8125 51.2413 50.8978 49.855 52.1834C48.4687 53.4679 46.9057 54.3004 45.2172 54.7032C43.5009 55.106 41.6614 55.0825 39.6698 54.7032C39.6698 54.7032 40.1476 54.4346 40.4262 54.2489C41.1311 53.77 41.6872 53.1144 42.1895 52.3334L42.175 52.3222C43.4841 50.5387 45.196 49.205 47.3331 48.3255C47.7381 48.1487 48.1666 47.9977 48.6187 47.8444C49.0483 47.7202 49.5261 47.5926 50.0072 47.4919C50.0072 47.4919 52.9107 47.2144 54.1538 46.9828ZM52.6545 46.7109C52.6388 46.7311 52.6299 46.7568 52.6221 46.7803C51.9843 46.8598 51.3476 46.9213 50.7177 46.9683C50.805 46.7747 50.89 46.5789 50.965 46.382C51.0903 46.0553 51.3689 45.2922 51.3812 45.2519C51.643 45.1579 51.9172 44.9845 52.1756 44.7697C52.4788 44.5168 52.7809 44.2147 53.0819 43.8857C53.158 43.8119 53.158 43.6609 53.0573 43.5837C52.9823 43.483 52.8302 43.5087 52.7552 43.5837C52.4788 43.9126 52.1756 44.1901 51.897 44.4161C51.7851 44.519 51.671 44.6018 51.558 44.6712C51.718 44.1129 51.8511 43.5411 51.9664 42.9571C52.1264 42.8754 52.3144 42.749 52.5023 42.6001C52.7295 42.3987 52.9566 42.1739 53.2084 41.8941C53.2833 41.7945 53.2833 41.6692 53.1849 41.5663C53.1077 41.4913 52.9566 41.4913 52.8805 41.592C52.6299 41.8449 52.4005 42.072 52.2002 42.2488C52.1588 42.2891 52.1174 42.3249 52.0783 42.3585C52.2271 41.4936 52.3323 40.6063 52.4005 39.7011C52.4005 39.5758 52.3256 39.4751 52.2002 39.4751C52.0738 39.4494 51.9742 39.5501 51.9485 39.6776C51.8881 40.5828 51.7851 41.4779 51.6318 42.3506C51.5692 42.279 51.5054 42.2041 51.4427 42.1224C51.3174 41.8941 51.1921 41.6435 51.0657 41.366C51.04 41.2407 50.9135 41.1892 50.7893 41.2138C50.6618 41.2653 50.6125 41.3906 50.6618 41.5171C50.7893 41.8449 50.9135 42.1224 51.0903 42.3752C51.2123 42.5778 51.3711 42.7411 51.5323 42.8799C51.4181 43.4628 51.2816 44.0379 51.1183 44.5962C51.0657 44.519 51.012 44.4374 50.965 44.3423C50.8128 44.0648 50.6618 43.7101 50.4861 43.2323C50.4346 43.1294 50.3082 43.0555 50.184 43.1059C50.0833 43.1574 50.0072 43.2816 50.0576 43.3811C50.2332 43.8858 50.41 44.2404 50.5611 44.5437C50.6897 44.7999 50.8195 44.9823 50.9471 45.1423C50.9359 45.1769 50.5376 46.2858 50.5253 46.3137C50.335 46.0575 50.1594 45.7979 50.0072 45.5529C49.9826 45.4746 49.855 45.2239 49.8304 45.1479C49.7801 45.0472 49.6536 44.9957 49.5529 45.0225C49.4265 45.0718 49.3762 45.1982 49.4265 45.3246C49.4511 45.3739 49.5787 45.676 49.6268 45.7521C49.8136 46.1 50.0486 46.4312 50.3205 46.7747C50.2825 46.8553 50.2444 46.9325 50.2075 47.0086C50.1907 47.0097 48.1711 47.5244 48.0134 47.5781C48.0066 46.6371 48.1588 45.6491 48.5202 44.5929C48.8984 43.483 49.5037 42.298 50.3865 41.0382C50.3865 41.0382 50.89 40.0547 50.965 39.8533C51.389 38.9593 51.7516 37.9847 52.0738 36.9844C52.3927 37.3537 52.6668 37.7386 52.9051 38.1391C53.2084 38.6169 53.4612 39.1204 53.6369 39.6026C54.5689 42.1224 54.0162 44.6679 52.6545 46.7109ZM60.2943 32.4417C60.2182 34.0294 59.9407 35.8946 59.7136 37.1299C59.7136 37.1299 57.8439 41.5954 56.8649 42.6527C55.9989 43.5837 55.1138 44.067 54.2064 44.4609C54.6573 42.9101 54.6663 41.2217 54.0721 39.5411C54.0789 39.5266 54.2691 38.467 54.3933 37.9623C54.5454 37.4835 54.6954 37.0046 54.8979 36.5503C55.4775 35.2211 56.3122 34.035 57.4299 33.0124C57.5049 32.999 57.5597 32.9508 57.5821 32.8804C58.3553 32.2001 59.2593 31.5947 60.3044 31.0733C60.3111 31.2222 60.3178 31.3721 60.3178 31.5332C60.3178 31.8118 60.2943 32.1139 60.2943 32.4417Z" fill="#004A8F"/>
<path d="M49.4028 49.2572C49.4766 48.9283 49.6277 48.6262 49.7798 48.3252C49.8548 48.2234 49.8056 48.0981 49.7049 48.0209C49.6042 47.9728 49.4509 47.9974 49.4028 48.1238C49.2238 48.4494 49.0738 48.7784 48.972 49.1308C48.8847 49.424 48.8154 49.735 48.8008 50.0505C48.294 50.3672 47.7793 50.6782 47.2601 50.9792C47.2981 50.5731 47.3686 50.1736 47.485 49.7876C47.5107 49.66 47.6361 49.283 47.6875 49.1565C47.7368 49.0301 47.6607 48.9048 47.56 48.8791C47.4358 48.8276 47.3093 48.8791 47.2579 49.0066C47.2344 49.1073 47.0822 49.5593 47.0565 49.66C46.9133 50.1915 46.8372 50.7207 46.7857 51.2511C46.2195 51.5677 45.6455 51.8721 45.0637 52.1686C45.0772 51.9135 45.1197 51.6629 45.1902 51.3999C45.3177 51.0463 45.4934 50.6704 45.7462 50.3157C45.8212 50.2139 45.7955 50.064 45.6948 50.0125C45.5941 49.9386 45.4688 49.9644 45.3927 50.064C45.1152 50.4679 44.9138 50.8707 44.7605 51.2746C44.6486 51.6349 44.6005 52.0175 44.6095 52.4013C43.6763 52.8668 42.7219 53.3099 41.7373 53.7205C41.6354 53.7697 41.584 53.8973 41.6354 53.9969C41.6612 54.1233 41.8122 54.1736 41.9129 54.1233C42.2788 53.9734 42.6346 53.8145 42.9893 53.6578C43.0094 53.6713 43.024 53.6858 43.0475 53.6948C43.3742 53.8469 43.7032 53.9219 44.0567 53.9722C44.3834 53.9969 44.737 53.9969 45.0637 53.9476C45.1902 53.9219 45.2909 53.8201 45.2651 53.6948C45.2416 53.5694 45.1409 53.4922 45.0145 53.4922C44.7124 53.5426 44.3834 53.5426 44.0802 53.5191C43.909 53.5034 43.7278 53.4598 43.5487 53.4083C44.0019 53.1991 44.4483 52.982 44.8881 52.765C45.2483 52.8701 45.5739 52.9395 45.8716 52.9652C46.224 53.0134 46.5272 53.0402 46.8305 53.0134C46.9558 53.0134 47.0565 52.9127 47.0565 52.7885C47.0319 52.6631 46.9323 52.5613 46.8047 52.5613C46.5272 52.5871 46.2486 52.5871 45.9476 52.5356C45.8011 52.5132 45.6534 52.4841 45.5034 52.4517C46.0416 52.1708 46.5787 51.8878 47.1057 51.5912C47.3586 51.6629 47.6092 51.711 47.8632 51.7535C48.1664 51.7792 48.4685 51.8038 48.7706 51.8038C48.8982 51.8296 48.9989 51.7278 48.9989 51.6024C48.9989 51.4771 48.8982 51.3753 48.7706 51.3753C48.4685 51.3753 47.7502 51.2735 47.6674 51.2589C48.1384 50.9803 48.6017 50.6984 49.0593 50.4108C49.3032 50.4746 49.5315 50.5182 49.7798 50.5182C50.0316 50.544 50.308 50.544 50.5877 50.5182C50.7119 50.5182 50.7891 50.3918 50.7891 50.2676C50.7634 50.1647 50.6615 50.064 50.5351 50.0908C50.2845 50.1132 49.6825 50.0707 49.621 50.0617C50.4064 49.5593 51.1807 49.0469 51.9483 48.5244C52.049 48.4494 52.0736 48.2995 51.9964 48.1988C51.9214 48.0981 51.7726 48.0723 51.6708 48.1484C50.8954 48.6911 50.0976 49.2282 49.2864 49.7484C49.3099 49.5828 49.3468 49.4217 49.4028 49.2572Z" fill="#004A8F"/>
<path d="M6.66841 41.9149C6.74114 41.5479 6.76463 41.1809 6.74114 40.8362C6.74114 40.4581 6.7154 40.1045 6.66505 39.7263C6.66505 39.6021 6.53862 39.5238 6.41442 39.5238C6.3126 39.5495 6.20966 39.6513 6.23652 39.7778C6.26225 40.1302 6.28799 40.4838 6.3126 40.8362C6.3126 40.9548 6.30589 41.069 6.30029 41.1842C6.10001 40.8004 5.88966 40.4133 5.68267 40.0295C5.6905 39.3325 5.55288 38.4071 5.48127 37.7347V37.7112C5.45441 37.5836 5.32798 37.5087 5.22728 37.5087C5.10196 37.5333 5.00238 37.634 5.02588 37.7604V37.7862C5.08182 38.18 5.1456 38.6533 5.187 39.1064C5.16686 39.0695 5.14672 39.0326 5.12658 38.9957C4.9677 38.6947 4.79874 38.3915 4.63539 38.0905C4.63874 38.0715 4.57273 37.3565 4.52238 37.0052C4.49776 36.6259 4.44629 36.2734 4.42168 35.9198C4.42168 35.7934 4.31986 35.6938 4.19454 35.6938C4.06811 35.6938 3.96741 35.8191 3.96741 35.9198V35.9445C3.99314 36.298 4.04237 36.6773 4.09384 37.0544C4.09384 37.0689 4.09496 37.0835 4.0972 37.098C3.68097 36.345 3.25691 35.5909 2.83285 34.8368C2.75677 34.7092 2.62922 34.6846 2.53187 34.7361C2.40544 34.811 2.37859 34.9363 2.43117 35.037C2.92125 35.8975 3.39678 36.7456 3.86447 37.5859C3.78167 37.5512 3.69888 37.5176 3.61272 37.4829C3.28601 37.3565 2.95817 37.2301 2.65607 37.1294C2.55537 37.0801 2.43117 37.1294 2.37859 37.2558C2.32712 37.3822 2.40544 37.5087 2.50502 37.5333C2.80824 37.634 3.13384 37.7862 3.46167 37.9126C3.7179 38.0189 3.95734 38.1095 4.20573 38.2091C4.38587 38.538 4.57385 38.8715 4.74951 39.1982C4.83791 39.3627 4.92182 39.5271 5.01021 39.6927C4.86476 39.6267 4.72042 39.554 4.57273 39.4757C4.19454 39.2743 3.84097 39.0975 3.51426 38.9957C3.38782 38.9453 3.26139 39.0203 3.21104 39.121C3.1853 39.2485 3.26139 39.375 3.36097 39.4007C3.66531 39.5003 4.01776 39.6771 4.37133 39.8527C4.68574 40.0463 5.02252 40.2153 5.34029 40.3182C5.54392 40.7087 5.74868 41.0958 5.94784 41.4818C5.93554 41.4774 5.92099 41.4729 5.9098 41.4673C5.40518 41.2648 4.89944 40.9851 4.37133 40.6348C4.26839 40.561 4.11734 40.5845 4.06811 40.6852C3.99314 40.787 4.01776 40.9101 4.11734 40.9851C4.67231 41.3666 5.20378 41.6687 5.75651 41.8936C5.85833 41.9205 5.95903 41.9708 6.05973 41.9965C6.11903 42.0234 6.17722 42.0446 6.23876 42.0626C6.44239 42.4609 6.64827 42.8603 6.84184 43.2575C6.89107 43.3817 7.0175 43.4086 7.14506 43.3571C7.24576 43.3068 7.29611 43.1792 7.24576 43.0561C7.06002 42.6779 6.86086 42.2964 6.66841 41.9149Z" fill="#004A8F"/>
<path d="M19.7259 53.7699C18.9158 53.4409 18.1046 53.094 17.3002 52.7394L15.9955 50.6705C15.9172 50.5441 15.793 50.5184 15.6923 50.5956C15.5916 50.6437 15.5401 50.7958 15.6173 50.8977L16.5483 52.3992C16.0996 52.1967 15.6543 51.9908 15.2123 51.7827C15.04 51.4672 14.8229 51.1326 14.6081 50.8193C14.3798 50.4669 14.1784 50.1133 14.0028 49.7877C13.9278 49.6859 13.8003 49.6356 13.7007 49.6859C13.5742 49.7609 13.5485 49.8884 13.5989 49.9891V50.0126L13.6101 50.0093C13.7835 50.355 14.0061 50.7007 14.2299 51.0465C14.315 51.1807 14.4 51.3105 14.4805 51.4392C14.0162 51.2098 13.553 50.9726 13.0898 50.7365C12.9398 50.5128 12.7642 50.261 12.5415 49.9119C12.3401 49.6356 12.1611 49.3323 11.9854 49.1063C11.934 48.981 11.7829 48.9553 11.6822 49.0302C11.5815 49.1063 11.558 49.2316 11.6072 49.3323C11.8098 49.6109 11.9854 49.8884 12.1611 50.1648C12.1868 50.2062 12.2193 50.2543 12.2439 50.2968C11.3331 49.8146 10.429 49.3122 9.53953 48.7774C9.43883 48.727 9.28778 48.7539 9.23743 48.8546C9.16247 48.9553 9.2117 49.1063 9.3124 49.1567C10.2545 49.7116 11.2033 50.242 12.1555 50.7489C12.0738 50.7578 11.9933 50.7634 11.9105 50.7701C11.558 50.7958 11.2302 50.8193 10.9012 50.8708C10.7737 50.8708 10.6987 50.9972 10.6987 51.1226C10.7256 51.2501 10.8509 51.3251 10.9762 51.3016C11.2794 51.2501 11.6072 51.2233 11.934 51.1986C12.2293 51.1752 12.5426 51.1517 12.8403 51.1103C13.2912 51.3452 13.7443 51.5768 14.1964 51.8006C14.0386 51.8096 13.8797 51.8208 13.7264 51.8297C13.2699 51.8532 12.8179 51.8789 12.414 51.9304C12.2875 51.9304 12.2126 52.0568 12.2126 52.1833C12.2372 52.3075 12.3401 52.3847 12.4643 52.3578C12.8671 52.3075 13.3214 52.2817 13.7499 52.2571C14.1706 52.2347 14.5868 52.2079 14.9661 52.1654C15.4585 52.3959 15.9497 52.6241 16.4408 52.8445L14.7334 53.2664C14.6081 53.2899 14.5331 53.4174 14.5824 53.5192C14.6081 53.6434 14.7334 53.7195 14.8341 53.6938L17.092 53.1366C17.4546 53.2977 17.8193 53.4566 18.1852 53.6143C17.6134 53.8448 16.5483 53.997 16.4733 53.997C16.3469 54.0227 16.2719 54.1503 16.2976 54.2734C16.2976 54.3763 16.4229 54.4759 16.5483 54.4513C16.6008 54.4513 17.9278 54.2487 18.7525 53.8549C19.0266 53.969 19.2985 54.0854 19.576 54.1995C19.6756 54.2487 19.8009 54.1995 19.8523 54.0742C19.9027 53.9478 19.8523 53.8202 19.7259 53.7699Z" fill="#004A8F"/>
<path d="M38.8628 50.7195C37.8893 51.3796 36.917 52.0185 35.9425 52.635C35.9682 52.4929 36.0006 52.3497 36.0398 52.2076C36.1148 51.9548 36.2155 51.6784 36.3665 51.4009C36.4415 51.3013 36.3922 51.1749 36.2904 51.0999C36.1897 51.0473 36.0398 51.0742 35.9883 51.1984C35.8127 51.5016 35.6862 51.8048 35.6113 52.1058C35.5184 52.3844 35.4736 52.6597 35.4647 52.936C35.0955 53.1699 34.7262 53.397 34.3559 53.6219C34.4029 53.3511 34.5024 53.0255 34.6535 52.663C34.677 52.5612 34.7285 52.4616 34.8034 52.3341C34.8527 52.2076 34.9041 52.0823 34.9802 51.9816C35.0306 51.8541 34.9802 51.7287 34.8795 51.6784C34.7777 51.6023 34.6278 51.6538 34.5763 51.7545V51.7791C34.5013 51.9044 34.451 52.0308 34.3995 52.1327C34.3492 52.2334 34.2999 52.3587 34.2238 52.4851C34.0034 53.0356 33.8871 53.519 33.8938 53.9027C33.4574 54.1623 33.0233 54.4197 32.5891 54.6725C32.5925 54.4723 32.6205 54.2518 32.6842 53.9967C32.8118 53.5704 33.0132 53.0904 33.3422 52.5097C33.3914 52.409 33.3422 52.2815 33.2403 52.2076C33.1396 52.1584 33.0132 52.1841 32.9371 52.3072C32.6104 52.9136 32.381 53.4171 32.2568 53.8725C32.1472 54.2686 32.1181 54.6244 32.1449 54.9276C31.8428 55.1033 31.5407 55.2745 31.2409 55.4401C31.2845 55.1906 31.3337 54.9388 31.3986 54.677C31.4993 54.2999 31.6515 53.9229 31.8026 53.519C31.854 53.4171 31.8026 53.2907 31.7019 53.2415C31.5765 53.19 31.4501 53.2415 31.3986 53.3422C31.223 53.7707 31.0719 54.1735 30.9712 54.5763C30.8795 54.9467 30.8112 55.3204 30.7609 55.7075C30.1891 56.0208 29.6207 56.3285 29.0546 56.6205C28.927 56.6698 28.9024 56.7962 28.9539 56.9226C29.0042 57.0233 29.1307 57.0726 29.256 56.9987C29.8467 56.6977 30.4375 56.3844 31.0294 56.0644C31.3953 56.1517 31.7656 56.22 32.1561 56.267C32.56 56.343 32.9875 56.3677 33.4171 56.343C33.5436 56.343 33.6443 56.2423 33.6443 56.117C33.6443 56.0152 33.5436 55.9145 33.4171 55.9145C33.0132 55.9145 32.6104 55.8888 32.2065 55.8384C32.0084 55.8138 31.8093 55.7814 31.6135 55.7444C31.8887 55.5923 32.1617 55.4356 32.4359 55.2779C32.7894 55.364 33.1754 55.411 33.5671 55.4356C33.971 55.4602 34.3995 55.4356 34.8527 55.4099C34.9802 55.3841 35.0552 55.2823 35.0552 55.1581C35.0552 55.0317 34.9299 54.9567 34.8292 54.9567C34.3995 55.006 33.971 55.006 33.5671 54.9813C33.3869 54.9813 33.2001 54.969 33.0143 54.9455C33.3936 54.7251 33.7685 54.5002 34.1466 54.2653C34.5058 54.3514 34.9041 54.3771 35.2823 54.3995C35.712 54.4275 36.1148 54.3995 36.5176 54.3995C36.644 54.3995 36.7447 54.2999 36.7447 54.1735C36.7447 54.0482 36.644 53.9475 36.5176 53.9475C36.1148 53.9721 35.712 53.9721 35.308 53.9475C35.1055 53.9475 34.9131 53.9341 34.7251 53.9139C35.0708 53.7025 35.4177 53.4876 35.7646 53.2683L37.4753 53.3164C37.6018 53.3164 37.7025 53.2169 37.7025 53.0904C37.7025 52.9651 37.6018 52.8644 37.5011 52.8644L36.4515 52.8353C37.3332 52.2692 38.2216 51.6817 39.1145 51.0742C39.2141 50.9981 39.2409 50.8717 39.1649 50.771C39.1145 50.6714 38.9635 50.6434 38.8628 50.7195Z" fill="#004A8F"/>
<path d="M14.4068 12.7251L13.2969 13.6303V39.5505C13.5755 44.4423 16.3738 46.181 20.6088 46.0053L26.6855 46.181C28.8785 46.7863 29.9885 48.0473 30.6184 49.3329C30.6956 49.5086 30.7706 49.6865 30.8467 49.8633C31.5258 48.1234 32.7365 46.5603 35.0548 46.181C37.1997 46.1329 39.4442 46.0557 41.5846 46.0053C45.0901 45.9539 47.1321 44.3416 47.2843 40.6101V39.6512V39.5505V12.7251H30.6184H14.4068ZM42.115 44.7455C39.7452 44.7455 37.4011 44.7455 35.0548 44.9211C33.1404 45.1729 31.7798 45.8297 30.8198 47.3156C30.7448 47.216 30.6676 47.1388 30.6184 47.0403C29.5073 45.6764 28.1725 45.023 26.6855 44.9211C24.2139 44.7455 21.768 44.7455 19.2964 44.7455C16.4488 44.5933 14.6586 43.1298 14.6586 39.5505V13.4322H30.6184H46.5783V39.5505C46.7058 42.7035 45.3184 44.5172 42.115 44.7455Z" fill="#004A8F"/>
</g>
<path d="M35.1807 25.6846V15.5474V14.4901H45.771V25.6846H35.1807Z" fill="#004A8F"/>
<path d="M35.1543 43.3327L35.18 33.3981V32.2624H45.7703V40.6854C45.6942 42.7274 44.0047 44.164 41.6092 43.9626H35.1543V43.3327Z" fill="#004A8F"/>
<path d="M26.5449 25.6846V15.5474V14.4901H15.9546V25.6846H26.5449Z" fill="#004A8F"/>
<path d="M26.5703 43.3327L26.5446 33.3981V32.2624H15.9543V40.6854C16.0304 42.7274 17.7199 44.164 20.1154 43.9626H26.5703V43.3327Z" fill="#004A8F"/>
</g>
<defs>
<clipPath id="clip0_184_9058">
<rect width="59.7807" height="60" fill="white" transform="translate(0.96582)"/>
</clipPath>
</defs>
</svg>
